<?xml version='1.0' encoding='utf-8'?>
<svg xmlns="http://www.w3.org/2000/svg" width="1920" height="1080" viewBox="0 0 1920 1080" data-theme="light" data-semantic-intent="taxonomy_list" data-relation-type="taxonomy" data-site-visual-identity="signal-cobalt">
  <style>
        @font-face {
            font-family: 'Inter';
            src: url('assets/fonts/Inter-Regular.ttf') format('truetype');
            font-weight: 400;
            font-style: normal;
            font-display: swap;
        }
        @font-face {
            font-family: 'Inter';
            src: url('assets/fonts/Inter-Bold.ttf') format('truetype');
            font-weight: 600;
            font-style: normal;
            font-display: swap;
        }
        @font-face {
            font-family: 'Inter';
            src: url('assets/fonts/Inter-Bold.ttf') format('truetype');
            font-weight: 800;
            font-style: normal;
            font-display: swap;
        }
        
:root {
    --background: #f8fafc;
    --panel: #ffffff;
    --primary-text: #0f172a;
    --muted-text: #64748b;
    --inverse-text: #ffffff;
    --border: #e2e8f0;
    --shadow-color: #000000;
    --icon-pad-bg: #1e293b;
    --art-glow: #0891b2;
    --art-glow-opacity: 0.10;
    --art-sheen: #ffffff;
    --art-sheen-opacity: 0.34;
    --art-shadow: #0f172a;
    --art-shadow-opacity: 0.14;
    --art-muted-line: #94a3b8;
    --art-panel-tint: #f1f5f9;
    --semantic-risk: #b91c1c;
    --semantic-warning: #c2410c;
    --semantic-uncertain: #a16207;
    --semantic-evidence: #1d4ed8;
    --semantic-claim: #6d28d9;
    --semantic-positive: #15803d;
    --semantic-outcome: #0e7490;
    --font-family: 'Inter', 'Segoe UI', 'Kalam', Roboto, Helvetica, Arial, sans-serif;
    --radius-xl: 16px;
    --font-family-headline: 'Segoe UI Variable Display', 'Aptos Display', 'Inter', 'Segoe UI', Helvetica, Arial, sans-serif;
    --font-family-body: 'Segoe UI Variable Text', 'Aptos', 'Inter', 'Segoe UI', Helvetica, Arial, sans-serif;
    --font-heading: var(--font-family-headline);
    --font-body: var(--font-family-body);
    --font-size-h1: 64px;
    --font-size-h2: 42px;
    --font-size-h3: 29px;
    --font-size-body: 21px;
    --font-size-caption: 17px;
    --secondary-text: var(--muted-text);
    --panel-border: var(--border);
    --font-weight-normal: 400;
    --font-weight-medium: 500;
    --font-weight-semibold: 600;
    --font-weight-bold: 700;
    --spacing-gutter-pct: 0.07;
    --spacing-top-pct: 0.15;
    --spacing-bottom-pct: 0.07;
    --spacing-title-y-pct: 0.055;
    --accent-1: #1d4ed8;
    --accent-2: #2563eb;
    --accent-3: #4f46e5;
    --accent-4: #6d28d9;
    --accent-5: #0369a1;
    --accent-6: #c2410c;
}
:root[data-theme="dark"] {
    --background: #0f172a;
    --panel: #1e293b;
    --primary-text: #f1f5f9;
    --muted-text: #94a3b8;
    --inverse-text: #0f172a;
    --border: #334155;
    --shadow-color: #000000;
    --icon-pad-bg: #1e293b;
    --art-glow: #7dd3fc;
    --art-glow-opacity: 0.18;
    --art-sheen: #ffffff;
    --art-sheen-opacity: 0.18;
    --art-shadow: #000000;
    --art-shadow-opacity: 0.28;
    --art-muted-line: #64748b;
    --art-panel-tint: #1e293b;
    --semantic-risk: #f87171;
    --semantic-warning: #fb923c;
    --semantic-uncertain: #fbbf24;
    --semantic-evidence: #60a5fa;
    --semantic-claim: #c084fc;
    --semantic-positive: #4ade80;
    --semantic-outcome: #22d3ee;
    --accent-1: #93c5fd;
    --accent-2: #60a5fa;
    --accent-3: #818cf8;
    --accent-4: #a78bfa;
    --accent-5: #38bdf8;
    --accent-6: #fb923c;
}
:root[data-theme="light"] {
    --background: #f8fafc;
    --panel: #ffffff;
    --primary-text: #0f172a;
    --muted-text: #64748b;
    --inverse-text: #ffffff;
    --border: #e2e8f0;
    --shadow-color: #000000;
    --icon-pad-bg: #1e293b;
    --art-glow: #0891b2;
    --art-glow-opacity: 0.10;
    --art-sheen: #ffffff;
    --art-sheen-opacity: 0.34;
    --art-shadow: #0f172a;
    --art-shadow-opacity: 0.14;
    --art-muted-line: #94a3b8;
    --art-panel-tint: #f1f5f9;
    --semantic-risk: #b91c1c;
    --semantic-warning: #c2410c;
    --semantic-uncertain: #a16207;
    --semantic-evidence: #1d4ed8;
    --semantic-claim: #6d28d9;
    --semantic-positive: #15803d;
    --semantic-outcome: #0e7490;
    --accent-1: #1d4ed8;
    --accent-2: #2563eb;
    --accent-3: #4f46e5;
    --accent-4: #6d28d9;
    --accent-5: #0369a1;
    --accent-6: #c2410c;
}</style>
  <rect x="0" y="0" width="1.92E+3" height="1.08E+3" fill="#252a34" stroke="none" id="programmatic_background"/>
  <line id="HEADER_DECOR" x1="960.0" x2="1080.0" y1="135.0" y2="135.0" stroke="var(--accent-1)" stroke-width="6" stroke-linecap="round"/>
  <defs>
    <pattern id="svgddd5b47c-napkin-hatch" patternUnits="userSpaceOnUse" width="12" height="12">
      <path d="M -3 12 L 12 -3 M 0 15 L 15 0" fill="none" stroke="var(--primary-text)" stroke-width="1" stroke-opacity="0.05"/>
    </pattern>
    <filter id="svgddd5b47c-shadow" x="-30%" y="-30%" width="160%" height="160%">
      <feDropShadow dx="0" dy="2" stdDeviation="3" flood-color="#000000" flood-opacity="0.08"/>
      <feDropShadow dx="0" dy="6" stdDeviation="10" flood-color="#000000" flood-opacity="0.12"/>
    </filter>
    <filter id="svgddd5b47c-beam-glow" x="-40%" y="-40%" width="180%" height="180%">
      <feDropShadow dx="0" dy="0" stdDeviation="8" flood-color="#000000" flood-opacity="0.12"/>
    </filter>
    <radialGradient id="svgddd5b47c-universal-edge-vignette" cx="50%" cy="50%" r="72%">
      <stop offset="0%" stop-color="var(--background)" stop-opacity="0"/>
      <stop offset="72%" stop-color="var(--background)" stop-opacity="0.12"/>
      <stop offset="100%" stop-color="var(--primary-text)" stop-opacity="0.08"/>
    </radialGradient>
    <linearGradient id="svgddd5b47c-universal-surface-sheen" x1="0%" y1="0%" x2="100%" y2="100%">
      <stop offset="0%" stop-color="var(--art-sheen)" stop-opacity="var(--art-sheen-opacity)"/>
      <stop offset="46%" stop-color="var(--art-sheen)" stop-opacity="0.035"/>
      <stop offset="100%" stop-color="var(--art-panel-tint)" stop-opacity="0.14"/>
    </linearGradient>
    <radialGradient id="svgddd5b47c-universal-icon-aura" cx="50%" cy="42%" r="64%">
      <stop offset="0%" stop-color="var(--art-glow)" stop-opacity="var(--art-glow-opacity)"/>
      <stop offset="100%" stop-color="var(--background)" stop-opacity="0"/>
    </radialGradient>
    <linearGradient id="svgddd5b47c-prism-glass-sheen" x1="0%" y1="0%" x2="100%" y2="100%">
      <stop offset="0%" stop-color="var(--inverse-text)" stop-opacity="0.20"/>
      <stop offset="100%" stop-color="var(--inverse-text)" stop-opacity="0"/>
    </linearGradient>
    <filter id="svgddd5b47c-text-glow" x="-20%" y="-20%" width="140%" height="140%">
      <feDropShadow dx="0" dy="0" stdDeviation="2" flood-color="#000000" flood-opacity="0.4"/>
    </filter>
    <marker id="svgddd5b47c-arrowhead" markerWidth="10" markerHeight="7" refX="9" refY="3.5" orient="auto" markerUnits="strokeWidth">
      <polygon points="0 0, 10 3.5, 0 7" fill="var(--muted-text)" opacity="0.6"/>
    </marker>
  </defs>
  <rect width="100%" height="100%" fill="var(--background)" id="CANVAS_BG"/>
  <rect width="100%" height="100%" fill="url(#svgddd5b47c-napkin-hatch)"/>
  <rect id="UNIVERSAL_EDGE_VIGNETTE" width="100%" height="100%" fill="url(#svgddd5b47c-universal-edge-vignette)" opacity="0.62"/>
  <text id="TITLE" x="960.0" y="59" text-anchor="middle" font-weight="800" font-size="56" fill="#0f172a" style="font-size: 69px; font-family: 'Segoe UI Variable Display', 'Aptos Display', 'Inter', 'Segoe UI', Helvetica, Arial, sans-serif; font-weight: 800; font-kerning: normal; font-feature-settings: &quot;kern&quot; 1, &quot;liga&quot; 1; letter-spacing:-1.2px;" data-final-font-size="69">
    <tspan x="960.0" dy="70.47px">Institutional Roles in Canberra UFO Records</tspan>
  </text>
  <rect id="TITLE_FRAME" x="134" y="59" width="1652" height="103" fill="none"/>
  <path d="M 0 540 L 598 540" stroke="var(--primary-text)" stroke-width="20" stroke-linecap="round" opacity="0.08"/>
  <path d="M 0 540 L 598 540" stroke="var(--primary-text)" stroke-width="10" stroke-linecap="round" opacity="0.45"/>
  <text x="200" y="500" font-weight="bold" font-size="32" fill="var(--muted-text)">INPUT</text>
  <ellipse id="PRISM_ART_SHADOW" cx="690" cy="718" rx="180" ry="38" fill="var(--primary-text)" opacity="0.055"/>
  <path d="M 600 690 L 600 390 L 840 540 Z" fill="var(--panel)" fill-opacity="0.72" stroke="var(--primary-text)" stroke-width="9" stroke-opacity="0.75"/>
  <path id="PRISM_ART_GLASS_SHEEN" d="M 622 426 L 622 654 L 792 540 Z" fill="url(#svgddd5b47c-prism-glass-sheen)" opacity="0.88"/>
  <path d="M 600 540 L 756 540" fill="none" stroke="var(--primary-text)" stroke-width="3" stroke-opacity="0.28"/>
  <path d="M 600 390 L 688 540 L 600 690" fill="none" stroke="var(--primary-text)" stroke-width="3" stroke-opacity="0.18"/>
  <g>
    <line x1="840" y1="540" x2="1100" y2="275" stroke="var(--accent-1)" stroke-width="18" stroke-linecap="round" opacity="0.18" filter="url(#svgddd5b47c-beam-glow)"/>
    <line x1="840" y1="540" x2="1100" y2="275" stroke="var(--accent-1)" stroke-width="4" stroke-linecap="round" opacity="0.72"/>
    <g transform="translate(1100, 275)">
      <path id="ITEM_1_BG" d="M 0 -60 L 610 -60 L 740 15 L 610 90 L 0 90 L 56 15 Z" fill="var(--panel)" fill-opacity="0.95" stroke="var(--accent-1)" stroke-width="3" filter="url(#svgddd5b47c-shadow)"/>
      <rect id="ITEM_1_TEXT_BG" x="138" y="-42" width="520" height="114" rx="18" fill="var(--panel)" fill-opacity="0.9" stroke="var(--primary-text)" stroke-opacity="0.1" stroke-width="1.5"/>
      <rect x="150" y="-32" width="496" height="94" rx="14" fill="url(#svgddd5b47c-universal-surface-sheen)" opacity="0.76"/>
      <circle cx="82" cy="15" r="56" fill="url(#svgddd5b47c-universal-icon-aura)" opacity="0.82"/>
      <circle id="ITEM_1_PAD" cx="82" cy="15" r="40" fill="var(--icon-pad-bg)" stroke="var(--accent-1)" opacity="1" fill-opacity="0.9" stroke-width="2" stroke-opacity="0.72" data-badge-layer="pad"/>
      <circle id="ITEM_1_PAD_INNER" cx="82" cy="15" r="31.20" fill="var(--accent-1)" fill-opacity="0.12" stroke="none" data-badge-layer="tint"/>
      <circle cx="82" cy="15" r="32" fill="none" stroke="var(--accent-1)" stroke-width="3" stroke-dasharray="6 4" display="none" data-suppressed-decoration="redundant-badge-ring"/>
      <g id="ITEM_1_ICON" transform="translate(50, -17)" data-icon-size="64" stroke-linecap="round" stroke-linejoin="round" data-badge-treatment="clean">
        <g transform="translate(-3.0085470085470134,-2.735042735042735) scale(0.13675213675213677)" vector-effect="non-scaling-stroke" fill="#f1f5f9" fill-opacity="1.0" stroke="none">
          <path fill="#f1f5f9" d="M352 21v18h39v16h18V39h39V21zm35 52l-40 30h106l-40-30zM69.48 120.5l-8.96 15.6l110.98 63.7l35.6 20.4l33.6-58.7l-77 13.1zM329 121v30h30v-30zm48 0v30h46v-30zm64 0v30h30v-30zm-103 48l34.5 46h55l34.5-46zm39 64v30h46v-30zm0 48v206h46V281zM68.52 329L34.3 375H359v-46zM25 393v94h30v-64h66v64h238v-94zm416 .5V487h46v-65.9zM160 439h48v18h-48zm96 0h48v18h-48zm-183 2v46h30v-46z" vector-effect="non-scaling-stroke" stroke="none"/>
        </g>
      </g>
      <text id="ITEM_1_HEAD" x="162.0" y="-30.0" font-weight="700" font-size="27" fill="var(--accent-1)" data-bg-id="ITEM_1_TEXT_BG" fill-opacity="1.0" style="font-size: 31px; font-family: 'Segoe UI Variable Display', 'Aptos Display', 'Inter', 'Segoe UI', Helvetica, Arial, sans-serif; font-weight: 700; font-kerning: normal; font-feature-settings: &quot;kern&quot; 1, &quot;liga&quot; 1; letter-spacing:-0.4px;" data-final-font-size="31">
        <tspan x="162.0" dy="29.76px">Aviation Safety</tspan>
      </text>
      <rect id="ITEM_1_HEAD_FRAME" x="162" y="-30" width="472" height="36" fill="none"/>
      <text id="ITEM_1_BODY" x="162.0" y="10.0" font-size="18.5" fill="var(--primary-text)" data-bg-id="ITEM_1_TEXT_BG" style="font-size: 23px; font-family: 'Segoe UI Variable Text', 'Aptos', 'Inter', 'Segoe UI', Helvetica, Arial, sans-serif; font-weight: 400; font-kerning: normal; font-feature-settings: &quot;kern&quot; 1, &quot;liga&quot; 1;" data-final-font-size="23">
        <tspan x="162.0" dy="21.98px">Airport officials monitor airspace</tspan>
        <tspan x="162.0" dy="26.45px">for navigation hazards</tspan>
      </text>
      <rect id="ITEM_1_BODY_FRAME" x="162" y="10" width="468" height="60" fill="none"/>
    </g>
    <line x1="840" y1="540" x2="1100" y2="425" stroke="var(--accent-2)" stroke-width="18" stroke-linecap="round" opacity="0.18" filter="url(#svgddd5b47c-beam-glow)"/>
    <line x1="840" y1="540" x2="1100" y2="425" stroke="var(--accent-2)" stroke-width="4" stroke-linecap="round" opacity="0.72"/>
    <g transform="translate(1100, 425)">
      <path id="ITEM_2_BG" d="M 0 -60 L 610 -60 L 740 15 L 610 90 L 0 90 L 56 15 Z" fill="var(--panel)" fill-opacity="0.95" stroke="var(--accent-2)" stroke-width="3" filter="url(#svgddd5b47c-shadow)"/>
      <rect id="ITEM_2_TEXT_BG" x="138" y="-42" width="520" height="114" rx="18" fill="var(--panel)" fill-opacity="0.9" stroke="var(--primary-text)" stroke-opacity="0.1" stroke-width="1.5"/>
      <rect x="150" y="-32" width="496" height="94" rx="14" fill="url(#svgddd5b47c-universal-surface-sheen)" opacity="0.76"/>
      <circle cx="82" cy="15" r="56" fill="url(#svgddd5b47c-universal-icon-aura)" opacity="0.82"/>
      <circle id="ITEM_2_PAD" cx="82" cy="15" r="40" fill="var(--icon-pad-bg)" stroke="var(--accent-2)" opacity="1" fill-opacity="0.9" stroke-width="2" stroke-opacity="0.72" data-badge-layer="pad"/>
      <circle id="ITEM_2_PAD_INNER" cx="82" cy="15" r="31.20" fill="var(--accent-2)" fill-opacity="0.12" stroke="none" data-badge-layer="tint"/>
      <circle cx="82" cy="15" r="32" fill="none" stroke="var(--accent-2)" stroke-width="3" stroke-dasharray="6 4" display="none" data-suppressed-decoration="redundant-badge-ring"/>
      <g id="ITEM_2_ICON" transform="translate(50, -17)" data-icon-size="64" stroke-linecap="round" stroke-linejoin="round" data-badge-treatment="clean">
        <g transform="translate(-4.571428571428571,-4.571428571428571) scale(2.2857142857142856)">
          <path d="M19.17 30H15.56C15.23 30 14.93 29.78 14.84 29.46L11 16H16L19.77 29.2C19.89 29.6 19.59 30 19.17 30Z" fill="#7D4533"/>
          <path d="M30 12.46C29.98 11.64 29.28 11 28.46 11H28.43C27.89 11 27.4 10.66 27.21 10.15C25.45 5.39 20.87 2 15.5 2C8.65 2 3 7.67 3 14.5C3 14.5 3 15.74 3 17.06C3 18.39 2.67 19.7 2.13 20.92C2.04 21.1 2 21.3 2 21.52C2.01 22.34 2.68 23 3.5 23C6.37 23 7.65 22.4 10.26 21.23L22.96 15.51C25.19 14.51 26.05 14 28.49 14C29.34 14 30.02 13.31 30 12.46Z" fill="#008463"/>
          <path d="M9.02999 18.49L21.73 12.77C24.02 11.74 24.99 11.02 28.27 11.02C28.27 11.01 28.26 10.99 28.26 10.98C27.79 10.92 27.38 10.6 27.21 10.14C25.45 5.39 20.87 2 15.5 2C8.64999 2 2.99999 7.67 2.99999 14.5C2.99999 14.5 2.99999 15.74 2.99999 17.06C2.99999 18.06 2.80999 19.04 2.48999 19.98C5.93999 19.93 7.13999 19.34 9.02999 18.49Z" fill="#44911B"/>
          <path d="M18.2363 23.9L18.8363 26H14L13.26 23.9H18.2363ZM18.26 22.9H13.26C12.94 22.9 12.63 23.06 12.44 23.32C12.25 23.58 12.21 23.92 12.31 24.23L13.05 26.33C13.2 26.73 13.58 27 14 27H18.86C19.17 27 19.47 26.85 19.66 26.6C19.85 26.35 19.91 26.02 19.82 25.72L19.22 23.62C19.1 23.2 18.7 22.9 18.26 22.9Z" fill="#9B9B9B"/>
          <path d="M12.8641 22.558C12.6235 21.686 12.8241 21.2048 14.0569 20.6636C14.9425 20.2748 16.1452 19.7816 16.788 19.5181C16.8611 19.4881 16.927 19.4611 16.9844 19.4375L16.668 18.3359L12.2327 20.3428L12.8641 22.558ZM17.8706 24.639L17.8706 24.639C17.7836 24.3379 17.6566 23.8981 16.7915 23.8981H18.2361L18.845 25.9966H17.2276C18.3078 25.9966 17.9966 25.035 17.8991 24.7336L17.897 24.7271C17.8881 24.6996 17.8796 24.67 17.8706 24.639ZM14.4242 23.9014C13.9883 23.9014 13.9882 24.3323 14.1454 24.8088C14.4518 25.7374 15.0173 25.9951 15.3113 26.0052H14.0034L13.2532 23.9014H14.4242Z" fill="#5C2614"/>
        </g>
      </g>
      <text id="ITEM_2_HEAD" x="162.0" y="-30.0" font-weight="700" font-size="27" fill="var(--accent-2)" data-bg-id="ITEM_2_TEXT_BG" fill-opacity="1.0" style="font-size: 31px; font-family: 'Segoe UI Variable Display', 'Aptos Display', 'Inter', 'Segoe UI', Helvetica, Arial, sans-serif; font-weight: 700; font-kerning: normal; font-feature-settings: &quot;kern&quot; 1, &quot;liga&quot; 1; letter-spacing:-0.4px;" data-final-font-size="31">
        <tspan x="162.0" dy="29.76px">National Security</tspan>
      </text>
      <rect id="ITEM_2_HEAD_FRAME" x="162" y="-30" width="472" height="36" fill="none"/>
      <text id="ITEM_2_BODY" x="162.0" y="10.0" font-size="18.5" fill="var(--primary-text)" data-bg-id="ITEM_2_TEXT_BG" style="font-size: 23px; font-family: 'Segoe UI Variable Text', 'Aptos', 'Inter', 'Segoe UI', Helvetica, Arial, sans-serif; font-weight: 400; font-kerning: normal; font-feature-settings: &quot;kern&quot; 1, &quot;liga&quot; 1;" data-final-font-size="23">
        <tspan x="162.0" dy="21.98px">RAAF assesses reports for potential</tspan>
        <tspan x="162.0" dy="26.45px">hostile aircraft threats</tspan>
      </text>
      <rect id="ITEM_2_BODY_FRAME" x="162" y="10" width="468" height="60" fill="none"/>
    </g>
    <line x1="840" y1="540" x2="1100" y2="575" stroke="var(--accent-3)" stroke-width="18" stroke-linecap="round" opacity="0.18" filter="url(#svgddd5b47c-beam-glow)"/>
    <line x1="840" y1="540" x2="1100" y2="575" stroke="var(--accent-3)" stroke-width="4" stroke-linecap="round" opacity="0.72"/>
    <g transform="translate(1100, 575)">
      <path id="ITEM_3_BG" d="M 0 -60 L 610 -60 L 740 15 L 610 90 L 0 90 L 56 15 Z" fill="var(--panel)" fill-opacity="0.95" stroke="var(--accent-3)" stroke-width="3" filter="url(#svgddd5b47c-shadow)"/>
      <rect id="ITEM_3_TEXT_BG" x="138" y="-42" width="520" height="114" rx="18" fill="var(--panel)" fill-opacity="0.9" stroke="var(--primary-text)" stroke-opacity="0.1" stroke-width="1.5"/>
      <rect x="150" y="-32" width="496" height="94" rx="14" fill="url(#svgddd5b47c-universal-surface-sheen)" opacity="0.76"/>
      <circle cx="82" cy="15" r="56" fill="url(#svgddd5b47c-universal-icon-aura)" opacity="0.82"/>
      <circle id="ITEM_3_PAD" cx="82" cy="15" r="40" fill="var(--icon-pad-bg)" stroke="var(--accent-3)" opacity="1" fill-opacity="0.9" stroke-width="2" stroke-opacity="0.72" data-badge-layer="pad"/>
      <circle id="ITEM_3_PAD_INNER" cx="82" cy="15" r="31.20" fill="var(--accent-3)" fill-opacity="0.12" stroke="none" data-badge-layer="tint"/>
      <circle cx="82" cy="15" r="32" fill="none" stroke="var(--accent-3)" stroke-width="3" stroke-dasharray="6 4" display="none" data-suppressed-decoration="redundant-badge-ring"/>
      <g id="ITEM_3_ICON" transform="translate(50, -17)" data-icon-size="64" stroke-linecap="round" stroke-linejoin="round" data-badge-treatment="clean">
        <g transform="translate(-5.9813084112149495,-10.467289719626164) scale(0.14953271028037382)" vector-effect="non-scaling-stroke" fill="#f1f5f9" fill-opacity="1.0" stroke="none">
          <path fill="#f1f5f9" d="M220.324 73.05a186 186 0 0 0-15.28.925c38.583 92.843 40.53 149.816 41.948 194.722c13.665-.22 27.327-.79 40.985-1.726c-.867-86.935-37.327-165.248-67.653-193.92zm40.545 3.663c27.632 13.237 52.446 35.57 72.437 60.955l18.207-12.98c-24.553-23.846-55.78-40.86-90.645-47.975zm-74.163.09C105.784 93.517 44.517 163.548 41.16 248.64c62.735 12.36 125.33 19.76 187.834 20.13c-1.395-45.53-3.087-99.25-42.287-191.967zm244.068 14.543a15.3 15.3 0 0 0-5.462.853c-5.536 1.94-10 7.087-12.463 15.51c-2.464 8.425-2.434 19.664 1.22 30.987s10.147 20.295 16.994 25.455c6.848 5.16 13.388 6.453 18.924 4.512c5.536-1.94 9.998-7.087 12.46-15.512c2.464-8.424 2.437-19.663-1.218-30.986c-1.744-5.406-4.14-10.268-6.91-14.443a15.318 9.72 76.94 0 0-6.146-7.575a38 38 0 0 0-3.94-3.44c-4.707-3.547-9.268-5.265-13.46-5.362zm5.805 8.857a28.954 18.568 76.585 0 1 3.45.305a15.318 9.72 76.94 0 0-2.934 17.04a15.318 9.72 76.94 0 0 13.416 11.14a15.318 9.72 76.94 0 0 5.744-12.774a28.954 18.568 76.585 0 1 2.34 6.106a28.954 18.568 76.585 0 1-9.225 34.36a28.954 18.568 76.585 0 1-25.64-21.05a28.954 18.568 76.585 0 1 9.223-34.357a28.954 18.568 76.585 0 1 3.627-.77zm-43.223 16.762l-13.67 9.744c-.292 19.73 3.38 31.84 8.604 41.048c5.153 9.08 12.31 15.71 20.147 23.537l16.1-9.61a49 49 0 0 1-4.305-2.892c-10.227-7.708-18.465-19.618-23.152-34.14c-3.023-9.367-4.227-18.796-3.723-27.688zm-31.265 22.29l-64.63 46.073c5.126 19.47 9.352 43.4 10.077 66.193l84.907-50.68c-6.756-6.63-14-13.953-19.812-24.2c-5.47-9.64-9.332-21.66-10.543-37.386zm40.457 76.516l-22.27 13.292c2.23 8.957 3.495 17.38 3.683 24.963a703 703 0 0 0 22.89-5.056c-.43-11.366-1.9-22.46-4.304-33.2zM41 266.794v30.127c122.077 29.426 243.923 29.426 366 0v-29.6c-122.274 28.494-244.39 23.097-366-.527m0 48.646v157.04a1222 1222 0 0 0 53 9.106V426c4.292-6.5 12.224-9.7 20.72-9.865c12.42-.244 26.045 5.99 31.28 17.865v54.055c87.183 8.608 174.138 5.576 261-15.207v-157.41c-121.928 28.724-244.072 28.724-366 0zm329.984 87.73c6.89.014 13.016 3.185 13.016 10.185v32l-32 4v-32c0-9 10.125-14.203 18.984-14.185m-81.486 11.783C296.968 414.955 304 418.5 304 426v32l-32 2v-32c0-8.5 9.03-13.05 17.498-13.047M208 420c8 0 16 4 16 12v32h-32v-32c0-8 8-12 16-12" vector-effect="non-scaling-stroke" stroke="none"/>
        </g>
      </g>
      <text id="ITEM_3_HEAD" x="162.0" y="-30.0" font-weight="700" font-size="27" fill="var(--accent-3)" data-bg-id="ITEM_3_TEXT_BG" fill-opacity="1.0" style="font-size: 31px; font-family: 'Segoe UI Variable Display', 'Aptos Display', 'Inter', 'Segoe UI', Helvetica, Arial, sans-serif; font-weight: 700; font-kerning: normal; font-feature-settings: &quot;kern&quot; 1, &quot;liga&quot; 1; letter-spacing:-0.4px;" data-final-font-size="31">
        <tspan x="162.0" dy="29.76px">Scientific Analysis</tspan>
      </text>
      <rect id="ITEM_3_HEAD_FRAME" x="162" y="-30" width="472" height="36" fill="none"/>
      <text id="ITEM_3_BODY" x="162.0" y="10.0" font-size="18.5" fill="var(--primary-text)" data-bg-id="ITEM_3_TEXT_BG" style="font-size: 23px; font-family: 'Segoe UI Variable Text', 'Aptos', 'Inter', 'Segoe UI', Helvetica, Arial, sans-serif; font-weight: 400; font-kerning: normal; font-feature-settings: &quot;kern&quot; 1, &quot;liga&quot; 1;" data-final-font-size="23">
        <tspan x="162.0" dy="21.98px">Mount Stromlo astronomers provide</tspan>
        <tspan x="162.0" dy="26.45px">planetary position data</tspan>
      </text>
      <rect id="ITEM_3_BODY_FRAME" x="162" y="10" width="468" height="60" fill="none"/>
    </g>
    <line x1="840" y1="540" x2="1100" y2="725" stroke="var(--accent-4)" stroke-width="18" stroke-linecap="round" opacity="0.18" filter="url(#svgddd5b47c-beam-glow)"/>
    <line x1="840" y1="540" x2="1100" y2="725" stroke="var(--accent-4)" stroke-width="4" stroke-linecap="round" opacity="0.72"/>
    <g transform="translate(1100, 725)">
      <path id="ITEM_4_BG" d="M 0 -60 L 610 -60 L 740 15 L 610 90 L 0 90 L 56 15 Z" fill="var(--panel)" fill-opacity="0.95" stroke="var(--accent-4)" stroke-width="3" filter="url(#svgddd5b47c-shadow)"/>
      <rect id="ITEM_4_TEXT_BG" x="138" y="-42" width="520" height="114" rx="18" fill="var(--panel)" fill-opacity="0.9" stroke="var(--primary-text)" stroke-opacity="0.1" stroke-width="1.5"/>
      <rect x="150" y="-32" width="496" height="94" rx="14" fill="url(#svgddd5b47c-universal-surface-sheen)" opacity="0.76"/>
      <circle cx="82" cy="15" r="56" fill="url(#svgddd5b47c-universal-icon-aura)" opacity="0.82"/>
      <circle id="ITEM_4_PAD" cx="82" cy="15" r="40" fill="var(--icon-pad-bg)" stroke="var(--accent-1)" opacity="1" fill-opacity="0.9" stroke-width="2" stroke-opacity="0.72" data-badge-layer="pad"/>
      <circle id="ITEM_4_PAD_INNER" cx="82" cy="15" r="31.20" fill="var(--accent-1)" fill-opacity="0.12" stroke="none" data-badge-layer="tint"/>
      <circle cx="82" cy="15" r="32" fill="none" stroke="var(--accent-4)" stroke-width="3" stroke-dasharray="6 4" display="none" data-suppressed-decoration="redundant-badge-ring"/>
      <g id="ITEM_4_ICON" transform="translate(50, -17)" data-icon-size="64" stroke-linecap="round" stroke-linejoin="round" data-badge-treatment="clean">
        <g transform="translate(0.0,0.0) scale(4.571428571428571)" vector-effect="non-scaling-stroke" stroke-width="2.48" stroke-linecap="round" stroke-linejoin="round" stroke-opacity="1.0">
          <path id="Vector" fill="none" d="M1.5 5h11v7c0 0.2652 -0.1054 0.5196 -0.2929 0.7071S11.7652 13 11.5 13h-9c-0.26522 0 -0.51957 -0.1054 -0.70711 -0.2929C1.60536 12.5196 1.5 12.2652 1.5 12V5Z" vector-effect="non-scaling-stroke" stroke="#f1f5f9"/>
          <path id="Vector_2" fill="none" d="M13.5 4V2c0 -0.55228 -0.4477 -1 -1 -1l-11 0c-0.552285 0 -1 0.44772 -1 1v2c0 0.55228 0.447715 1 1 1l11 0c0.5523 0 1 -0.44772 1 -1Z" vector-effect="non-scaling-stroke" stroke="#f1f5f9"/>
          <path id="Vector_3" stroke="#f1f5f9" d="M1.5 5h11v7c0 0.2652 -0.1054 0.5196 -0.2929 0.7071S11.7652 13 11.5 13h-9c-0.26522 0 -0.51957 -0.1054 -0.70711 -0.2929C1.60536 12.5196 1.5 12.2652 1.5 12V5v0Z" vector-effect="non-scaling-stroke" fill="none"/>
          <path id="Vector_4" stroke="#f1f5f9" d="M13.5 4V2c0 -0.55228 -0.4477 -1 -1 -1l-11 0c-0.552285 0 -1 0.44772 -1 1v2c0 0.55228 0.447715 1 1 1l11 0c0.5523 0 1 -0.44772 1 -1Z" vector-effect="non-scaling-stroke" fill="none"/>
          <path id="Vector_5" stroke="#f1f5f9" d="M5.5 8h3" vector-effect="non-scaling-stroke" fill="none"/>
        </g>
      </g>
      <text id="ITEM_4_HEAD" x="162.0" y="-30.0" font-weight="700" font-size="27" fill="var(--accent-1)" data-bg-id="ITEM_4_TEXT_BG" fill-opacity="1.0" style="font-size: 31px; font-family: 'Segoe UI Variable Display', 'Aptos Display', 'Inter', 'Segoe UI', Helvetica, Arial, sans-serif; font-weight: 700; font-kerning: normal; font-feature-settings: &quot;kern&quot; 1, &quot;liga&quot; 1; letter-spacing:-0.4px;" data-final-font-size="31">
        <tspan x="162.0" dy="29.76px">Public Records</tspan>
      </text>
      <rect id="ITEM_4_HEAD_FRAME" x="162" y="-30" width="472" height="36" fill="none"/>
      <text id="ITEM_4_BODY" x="162.0" y="10.0" font-size="18.5" fill="var(--primary-text)" data-bg-id="ITEM_4_TEXT_BG" style="font-size: 23px; font-family: 'Segoe UI Variable Text', 'Aptos', 'Inter', 'Segoe UI', Helvetica, Arial, sans-serif; font-weight: 400; font-kerning: normal; font-feature-settings: &quot;kern&quot; 1, &quot;liga&quot; 1;" data-final-font-size="23">
        <tspan x="162.0" dy="21.98px">National Archives manage historical files</tspan>
        <tspan x="162.0" dy="26.45px">for public access</tspan>
      </text>
      <rect id="ITEM_4_BODY_FRAME" x="162" y="10" width="468" height="60" fill="none"/>
    </g>
    <line x1="840" y1="540" x2="1100" y2="875" stroke="var(--accent-5)" stroke-width="18" stroke-linecap="round" opacity="0.18" filter="url(#svgddd5b47c-beam-glow)"/>
    <line x1="840" y1="540" x2="1100" y2="875" stroke="var(--accent-5)" stroke-width="4" stroke-linecap="round" opacity="0.72"/>
    <g transform="translate(1100, 875)">
      <path id="ITEM_5_BG" d="M 0 -60 L 610 -60 L 740 15 L 610 90 L 0 90 L 56 15 Z" fill="var(--panel)" fill-opacity="0.95" stroke="var(--accent-5)" stroke-width="3" filter="url(#svgddd5b47c-shadow)"/>
      <rect id="ITEM_5_TEXT_BG" x="138" y="-42" width="520" height="114" rx="18" fill="var(--panel)" fill-opacity="0.9" stroke="var(--primary-text)" stroke-opacity="0.1" stroke-width="1.5"/>
      <rect x="150" y="-32" width="496" height="94" rx="14" fill="url(#svgddd5b47c-universal-surface-sheen)" opacity="0.76"/>
      <circle cx="82" cy="15" r="56" fill="url(#svgddd5b47c-universal-icon-aura)" opacity="0.82"/>
      <circle id="ITEM_5_PAD" cx="82" cy="15" r="40" fill="var(--icon-pad-bg)" stroke="var(--accent-2)" opacity="1" fill-opacity="0.9" stroke-width="2" stroke-opacity="0.72" data-badge-layer="pad"/>
      <circle id="ITEM_5_PAD_INNER" cx="82" cy="15" r="31.20" fill="var(--accent-2)" fill-opacity="0.12" stroke="none" data-badge-layer="tint"/>
      <circle cx="82" cy="15" r="32" fill="none" stroke="var(--accent-5)" stroke-width="3" stroke-dasharray="6 4" display="none" data-suppressed-decoration="redundant-badge-ring"/>
      <g id="ITEM_5_ICON" transform="translate(50, -17)" data-icon-size="64" stroke-linecap="round" stroke-linejoin="round" data-badge-treatment="clean">
        <g transform="translate(-4.571428571428571,-4.571428571428571) scale(2.2857142857142856)">
          <path d="M21.74 16.08L8.83 3.17C7.27 1.61 4.74 1.61 3.17 3.17C1.61 4.73 1.61 7.26 3.17 8.83L16.08 21.74C15.69 23.92 16.34 26.24 18.02 27.92C20.75 30.65 25.19 30.65 27.92 27.92C30.65 25.19 30.65 20.75 27.92 18.02C26.24 16.34 23.92 15.7 21.74 16.08Z" fill="#F4F4F4"/>
          <path d="M4.59 7.42002C3.81 6.64002 3.81 5.37 4.59 4.59C5.37 3.81 6.63 3.81 7.42 4.59L21.1439 18.3139C21.7096 18.0919 22.3255 17.97 22.97 17.97C25.7314 17.97 27.97 20.2085 27.97 22.97C27.97 25.7314 25.7314 27.97 22.97 27.97C20.2085 27.97 17.97 25.7314 17.97 22.97C17.97 22.3255 18.0919 21.7096 18.3139 21.1439L4.59 7.42002Z" fill="#F8312F"/>
          <path d="M10.23 4.59998L8.11 6.71997C7.72 7.10997 7.72 7.74997 8.11 8.12997C8.5 8.51997 9.13 8.51997 9.52 8.12997L11.64 6.00998L10.23 4.59998ZM12.35 10.97L14.47 8.84998L15.88 10.26L13.76 12.38C13.37 12.77 12.74 12.77 12.35 12.38C11.96 11.99 11.96 11.36 12.35 10.97ZM16.59 15.21L18.71 13.09L20.12 14.5L18 16.62C17.61 17.01 16.98 17.01 16.59 16.62C16.2 16.23 16.2 15.6 16.59 15.21Z" fill="black"/>
          <path d="M24.97 23.97C26.0745 23.97 26.97 23.0745 26.97 21.97C26.97 20.8654 26.0745 19.97 24.97 19.97C23.8654 19.97 22.97 20.8654 22.97 21.97C22.97 23.0745 23.8654 23.97 24.97 23.97Z" fill="#FF8687"/>
        </g>
      </g>
      <text id="ITEM_5_HEAD" x="162.0" y="-30.0" font-weight="700" font-size="27" fill="var(--accent-2)" data-bg-id="ITEM_5_TEXT_BG" fill-opacity="1.0" style="font-size: 31px; font-family: 'Segoe UI Variable Display', 'Aptos Display', 'Inter', 'Segoe UI', Helvetica, Arial, sans-serif; font-weight: 700; font-kerning: normal; font-feature-settings: &quot;kern&quot; 1, &quot;liga&quot; 1; letter-spacing:-0.4px;" data-final-font-size="31">
        <tspan x="162.0" dy="29.76px">Meteorological Data</tspan>
      </text>
      <rect id="ITEM_5_HEAD_FRAME" x="162" y="-30" width="472" height="36" fill="none"/>
      <text id="ITEM_5_BODY" x="162.0" y="10.0" font-size="18.5" fill="var(--primary-text)" data-bg-id="ITEM_5_TEXT_BG" style="font-size: 23px; font-family: 'Segoe UI Variable Text', 'Aptos', 'Inter', 'Segoe UI', Helvetica, Arial, sans-serif; font-weight: 400; font-kerning: normal; font-feature-settings: &quot;kern&quot; 1, &quot;liga&quot; 1;" data-final-font-size="23">
        <tspan x="162.0" dy="21.98px">Weather services provide balloon</tspan>
        <tspan x="162.0" dy="26.45px">and atmospheric conditions</tspan>
      </text>
      <rect id="ITEM_5_BODY_FRAME" x="162" y="10" width="468" height="60" fill="none"/>
    </g>
  </g>
  <text id="SOURCE_NOTE" x="134.0" y="1058.0" fill="var(--muted-text)" opacity="0.88" style="font-family: var(--font-family); font-size: 20px;">Source: Introduction</text>
</svg>
