<?xml version='1.0' encoding='utf-8'?>
<svg xmlns="http://www.w3.org/2000/svg" width="1920" height="1080" viewBox="0 0 1920 1080" data-theme="dark" data-semantic-intent="uncertain_compare" data-relation-type="hypothesis_comparison" data-site-visual-identity="signal-cobalt">
  <style>
        @font-face {
            font-family: 'Inter';
            src: url('assets/fonts/Inter-Regular.ttf') format('truetype');
            font-weight: 400;
            font-style: normal;
            font-display: swap;
        }
        @font-face {
            font-family: 'Inter';
            src: url('assets/fonts/Inter-Bold.ttf') format('truetype');
            font-weight: 600;
            font-style: normal;
            font-display: swap;
        }
        @font-face {
            font-family: 'Inter';
            src: url('assets/fonts/Inter-Bold.ttf') format('truetype');
            font-weight: 800;
            font-style: normal;
            font-display: swap;
        }
        
:root {
    --background: #0f172a;
    --panel: #1e293b;
    --primary-text: #f1f5f9;
    --muted-text: #94a3b8;
    --inverse-text: #0f172a;
    --border: #334155;
    --shadow-color: #000000;
    --icon-pad-bg: #1e293b;
    --art-glow: #7dd3fc;
    --art-glow-opacity: 0.18;
    --art-sheen: #ffffff;
    --art-sheen-opacity: 0.18;
    --art-shadow: #000000;
    --art-shadow-opacity: 0.28;
    --art-muted-line: #64748b;
    --art-panel-tint: #1e293b;
    --semantic-risk: #f87171;
    --semantic-warning: #fb923c;
    --semantic-uncertain: #fbbf24;
    --semantic-evidence: #60a5fa;
    --semantic-claim: #c084fc;
    --semantic-positive: #4ade80;
    --semantic-outcome: #22d3ee;
    --font-family: 'Inter', 'Segoe UI', 'Kalam', Roboto, Helvetica, Arial, sans-serif;
    --radius-xl: 16px;
    --font-family-headline: 'Segoe UI Variable Display', 'Aptos Display', 'Inter', 'Segoe UI', Helvetica, Arial, sans-serif;
    --font-family-body: 'Segoe UI Variable Text', 'Aptos', 'Inter', 'Segoe UI', Helvetica, Arial, sans-serif;
    --font-heading: var(--font-family-headline);
    --font-body: var(--font-family-body);
    --font-size-h1: 64px;
    --font-size-h2: 42px;
    --font-size-h3: 29px;
    --font-size-body: 21px;
    --font-size-caption: 17px;
    --secondary-text: var(--muted-text);
    --panel-border: var(--border);
    --font-weight-normal: 400;
    --font-weight-medium: 500;
    --font-weight-semibold: 600;
    --font-weight-bold: 700;
    --spacing-gutter-pct: 0.07;
    --spacing-top-pct: 0.15;
    --spacing-bottom-pct: 0.07;
    --spacing-title-y-pct: 0.055;
    --accent-1: #93c5fd;
    --accent-2: #60a5fa;
    --accent-3: #818cf8;
    --accent-4: #a78bfa;
    --accent-5: #38bdf8;
    --accent-6: #fb923c;
}
:root[data-theme="dark"] {
    --background: #0f172a;
    --panel: #1e293b;
    --primary-text: #f1f5f9;
    --muted-text: #94a3b8;
    --inverse-text: #0f172a;
    --border: #334155;
    --shadow-color: #000000;
    --icon-pad-bg: #1e293b;
    --art-glow: #7dd3fc;
    --art-glow-opacity: 0.18;
    --art-sheen: #ffffff;
    --art-sheen-opacity: 0.18;
    --art-shadow: #000000;
    --art-shadow-opacity: 0.28;
    --art-muted-line: #64748b;
    --art-panel-tint: #1e293b;
    --semantic-risk: #f87171;
    --semantic-warning: #fb923c;
    --semantic-uncertain: #fbbf24;
    --semantic-evidence: #60a5fa;
    --semantic-claim: #c084fc;
    --semantic-positive: #4ade80;
    --semantic-outcome: #22d3ee;
    --accent-1: #93c5fd;
    --accent-2: #60a5fa;
    --accent-3: #818cf8;
    --accent-4: #a78bfa;
    --accent-5: #38bdf8;
    --accent-6: #fb923c;
}
:root[data-theme="light"] {
    --background: #f8fafc;
    --panel: #ffffff;
    --primary-text: #0f172a;
    --muted-text: #64748b;
    --inverse-text: #ffffff;
    --border: #e2e8f0;
    --shadow-color: #000000;
    --icon-pad-bg: #1e293b;
    --art-glow: #0891b2;
    --art-glow-opacity: 0.10;
    --art-sheen: #ffffff;
    --art-sheen-opacity: 0.34;
    --art-shadow: #0f172a;
    --art-shadow-opacity: 0.14;
    --art-muted-line: #94a3b8;
    --art-panel-tint: #f1f5f9;
    --semantic-risk: #b91c1c;
    --semantic-warning: #c2410c;
    --semantic-uncertain: #a16207;
    --semantic-evidence: #1d4ed8;
    --semantic-claim: #6d28d9;
    --semantic-positive: #15803d;
    --semantic-outcome: #0e7490;
    --accent-1: #1d4ed8;
    --accent-2: #2563eb;
    --accent-3: #4f46e5;
    --accent-4: #6d28d9;
    --accent-5: #0369a1;
    --accent-6: #c2410c;
}</style>
  <rect x="0" y="0" width="1.92E+3" height="1.08E+3" fill="#252a34" stroke="none" id="programmatic_background"/>
  <line id="HEADER_DECOR" x1="960.0" x2="1080.0" y1="135.0" y2="135.0" stroke="var(--accent-1)" stroke-width="6" stroke-linecap="round"/>
  <defs>
    <pattern id="svg00c1ccc2-napkin-hatch" patternUnits="userSpaceOnUse" width="12" height="12">
      <path d="M -3 12 L 12 -3 M 0 15 L 15 0" fill="none" stroke="var(--primary-text)" stroke-width="1" stroke-opacity="0.05"/>
    </pattern>
    <filter id="svg00c1ccc2-shadow" x="-30%" y="-30%" width="160%" height="160%">
      <feDropShadow dx="0" dy="2" stdDeviation="3" flood-color="#000000" flood-opacity="0.08"/>
      <feDropShadow dx="0" dy="6" stdDeviation="10" flood-color="#000000" flood-opacity="0.12"/>
    </filter>
    <radialGradient id="svg00c1ccc2-universal-edge-vignette" cx="50%" cy="50%" r="72%">
      <stop offset="0%" stop-color="var(--background)" stop-opacity="0"/>
      <stop offset="72%" stop-color="var(--background)" stop-opacity="0.12"/>
      <stop offset="100%" stop-color="var(--primary-text)" stop-opacity="0.08"/>
    </radialGradient>
    <linearGradient id="svg00c1ccc2-universal-surface-sheen" x1="0%" y1="0%" x2="100%" y2="100%">
      <stop offset="0%" stop-color="var(--art-sheen)" stop-opacity="var(--art-sheen-opacity)"/>
      <stop offset="46%" stop-color="var(--art-sheen)" stop-opacity="0.035"/>
      <stop offset="100%" stop-color="var(--art-panel-tint)" stop-opacity="0.14"/>
    </linearGradient>
    <radialGradient id="svg00c1ccc2-universal-icon-aura" cx="50%" cy="42%" r="64%">
      <stop offset="0%" stop-color="var(--art-glow)" stop-opacity="var(--art-glow-opacity)"/>
      <stop offset="100%" stop-color="var(--background)" stop-opacity="0"/>
    </radialGradient>
    <linearGradient id="svg00c1ccc2-fact-card-sheen" x1="0%" y1="0%" x2="100%" y2="100%">
      <stop offset="0%" stop-color="var(--inverse-text)" stop-opacity="0.18"/>
      <stop offset="54%" stop-color="var(--inverse-text)" stop-opacity="0.04"/>
      <stop offset="100%" stop-color="var(--background)" stop-opacity="0.14"/>
    </linearGradient>
    <radialGradient id="svg00c1ccc2-fact-icon-glow" cx="50%" cy="42%" r="62%">
      <stop offset="0%" stop-color="var(--inverse-text)" stop-opacity="0.22"/>
      <stop offset="100%" stop-color="var(--background)" stop-opacity="0"/>
    </radialGradient>
    <filter id="svg00c1ccc2-text-glow" x="-20%" y="-20%" width="140%" height="140%">
      <feDropShadow dx="0" dy="0" stdDeviation="2" flood-color="#000000" flood-opacity="0.4"/>
    </filter>
    <marker id="svg00c1ccc2-arrowhead" markerWidth="10" markerHeight="7" refX="9" refY="3.5" orient="auto" markerUnits="strokeWidth">
      <polygon points="0 0, 10 3.5, 0 7" fill="var(--muted-text)" opacity="0.6"/>
    </marker>
  </defs>
  <rect width="100%" height="100%" fill="var(--background)" id="CANVAS_BG"/>
  <rect width="100%" height="100%" fill="url(#svg00c1ccc2-napkin-hatch)"/>
  <rect id="UNIVERSAL_EDGE_VIGNETTE" width="100%" height="100%" fill="url(#svg00c1ccc2-universal-edge-vignette)" opacity="0.62"/>
  <line x1="960" y1="178" x2="960" y2="986" stroke="var(--muted-text)" stroke-width="5" stroke-opacity="0.10" stroke-linecap="round"/>
  <path d="M 360 178 C 620 152 1300 152 1560 178" fill="none" stroke="var(--primary-text)" stroke-width="2" stroke-opacity="0.12" stroke-linecap="round"/>
  <text id="TITLE" x="960.0" y="59" text-anchor="middle" font-weight="800" font-size="72" fill="#f1f5f9" style="font-size: 69px; font-family: 'Segoe UI Variable Display', 'Aptos Display', 'Inter', 'Segoe UI', Helvetica, Arial, sans-serif; font-weight: 800; font-kerning: normal; font-feature-settings: &quot;kern&quot; 1, &quot;liga&quot; 1; letter-spacing:-1.2px;" data-final-font-size="69">
    <tspan x="960.0" dy="70.47px">Interpretations of the Horseshoe Lagoon Site</tspan>
  </text>
  <rect id="TITLE_FRAME" x="134" y="59" width="1652" height="103" fill="none"/>
  <g transform="translate(960.0, 250.0)">
    <rect id="ITEM_1_BG" x="-600" y="-72" width="1200" height="176" rx="24" fill="var(--semantic-uncertain)" stroke="var(--accent-1)" filter="url(#svg00c1ccc2-shadow)" stroke-width="3" fill-opacity="0.4"/>
    <g transform="translate(-480.0, 0.0)">
      <circle r="60" fill="var(--background)" opacity="0.3"/>
      <circle id="ITEM_1_PAD" cx="0" cy="0" r="50" fill="var(--icon-pad-bg)" stroke="var(--semantic-uncertain)" opacity="1" fill-opacity="0.9" stroke-width="2" stroke-opacity="0.72" data-badge-layer="pad"/>
      <circle id="ITEM_1_PAD_INNER" cx="0" cy="0" r="39.00" fill="var(--semantic-uncertain)" fill-opacity="0.12" stroke="none" data-badge-layer="tint"/>
      <circle cx="0" cy="0" r="40" fill="none" stroke="var(--accent-1)" stroke-width="3" stroke-dasharray="6 4" display="none" data-suppressed-decoration="redundant-badge-ring"/>
      <g id="ITEM_1_ICON" transform="translate(-39, -39)" data-icon-size="78" stroke-linecap="round" stroke-linejoin="round" data-badge-treatment="clean">
        <g transform="translate(-4.7894736842105265,-4.789473684210526) scale(0.17105263157894737)" vector-effect="non-scaling-stroke" fill="#f1f5f9" fill-opacity="1.0" stroke="none">
          <path fill="#f1f5f9" d="m318 123.645l-61.5 35.7l-61.76-35.7l61.76-35.7zm93.68 54.19l-61.76 35.7l61.76 35.7l61.5-35.7zm-294.39 80.64l61.76 35.7l61.5-35.7l-61.5-35.7zm139.52-80.57l-61.76 35.7l61.76 35.7l61.5-35.7zM31 298.365l62 35.69v-71l-62-35.65v71zm373-26l-62 35.69v70.94l62-35.66zm-225.11-139.4l-61.76 35.7l61.76 35.7l61.5-35.7zM109 343.305l62 35.69v-70.94l-62-35.69v71zm225.41-120.45l-61.76 35.7l61.76 35.7l61.5-35.7zM249 353.055l-62-35.7v71l62 35.7zm77-35.67l-61 35.67v70.94l61-35.66zm8.07-184.5l-61.76 35.7l61.76 35.7l61.5-35.7zm-232.6 44.95l-61.77 35.7l61.76 35.7l61.5-35.7zM481 227.565l-61 35.66v70.94l61-35.66zm-286.11 75.93l61.76 35.7l61.5-35.7l-61.5-35.7z" vector-effect="non-scaling-stroke" stroke="none"/>
        </g>
      </g>
    </g>
    <g transform="translate(-330, -36)">
      <text id="ITEM_1_HEAD" text-anchor="start" font-weight="bold" font-size="34" fill="var(--primary-text)" x="0.0" y="-10.0" data-bg-id="ITEM_1_BG" fill-opacity="1.0" stroke="none" style="font-size: 31px; font-family: 'Segoe UI Variable Display', 'Aptos Display', 'Inter', 'Segoe UI', Helvetica, Arial, sans-serif; font-weight: 700; font-kerning: normal; font-feature-settings: &quot;kern&quot; 1, &quot;liga&quot; 1; letter-spacing:-0.4px;" data-final-font-size="31">
        <tspan x="0.0" dy="30.52px">UFO Landing Trace</tspan>
      </text>
      <rect id="ITEM_1_HEAD_FRAME" x="0" y="-10" width="846" height="44" fill="none"/>
      <text id="ITEM_1_BODY" text-anchor="start" font-size="24" fill="var(--primary-text)" x="0.0" y="24.0" data-bg-id="ITEM_1_BG" style="font-size: 23px; font-family: 'Segoe UI Variable Text', 'Aptos', 'Inter', 'Segoe UI', Helvetica, Arial, sans-serif; font-weight: 400; font-kerning: normal; font-feature-settings: &quot;kern&quot; 1, &quot;liga&quot; 1;" data-final-font-size="23">
        <tspan x="0.0" dy="29.91px">Claimed physical imprint left by a landed craft</tspan>
      </text>
      <rect id="ITEM_1_BODY_FRAME" x="0" y="24" width="846" height="84" fill="none"/>
    </g>
  </g>
  <g transform="translate(960.0, 465.0)">
    <rect id="ITEM_2_BG" x="-600" y="-72" width="1200" height="176" rx="24" fill="var(--semantic-uncertain)" stroke="var(--accent-2)" filter="url(#svg00c1ccc2-shadow)" stroke-width="3" fill-opacity="0.4"/>
    <g transform="translate(-480.0, 0.0)">
      <circle r="60" fill="var(--background)" opacity="0.3"/>
      <circle id="ITEM_2_PAD" cx="0" cy="0" r="50" fill="var(--icon-pad-bg)" stroke="var(--semantic-uncertain)" opacity="1" fill-opacity="0.9" stroke-width="2" stroke-opacity="0.72" data-badge-layer="pad"/>
      <circle id="ITEM_2_PAD_INNER" cx="0" cy="0" r="39.00" fill="var(--semantic-uncertain)" fill-opacity="0.12" stroke="none" data-badge-layer="tint"/>
      <circle cx="0" cy="0" r="40" fill="none" stroke="var(--accent-1)" stroke-width="3" stroke-dasharray="6 4" display="none" data-suppressed-decoration="redundant-badge-ring"/>
      <g id="ITEM_2_ICON" transform="translate(-39, -39)" data-icon-size="78" stroke-linecap="round" stroke-linejoin="round" data-badge-treatment="clean">
        <g transform="translate(-5.571428571428569,-5.571428571428571) scale(2.7857142857142856)">
          <path d="M18.2692 3.3875C17.2787 1.5375 14.6074 1.5375 13.6269 3.3875L7.35391 15.1875C3.51205 21.7675 8.30437 29.9975 15.9681 29.9975H16.1782C23.7318 29.9975 28.4441 21.8975 24.6723 15.4175L18.2692 3.3875Z" fill="#26C9FC"/>
        </g>
      </g>
    </g>
    <g transform="translate(-330, -36)">
      <text id="ITEM_2_HEAD" text-anchor="start" font-weight="bold" font-size="34" fill="var(--primary-text)" x="0.0" y="-10.0" data-bg-id="ITEM_2_BG" fill-opacity="1.0" stroke="none" style="font-size: 31px; font-family: 'Segoe UI Variable Display', 'Aptos Display', 'Inter', 'Segoe UI', Helvetica, Arial, sans-serif; font-weight: 700; font-kerning: normal; font-feature-settings: &quot;kern&quot; 1, &quot;liga&quot; 1; letter-spacing:-0.4px;" data-final-font-size="31">
        <tspan x="0.0" dy="30.52px">Natural Submersion</tspan>
      </text>
      <rect id="ITEM_2_HEAD_FRAME" x="0" y="-10" width="846" height="44" fill="none"/>
      <text id="ITEM_2_BODY" text-anchor="start" font-size="24" fill="var(--primary-text)" x="0.0" y="24.0" data-bg-id="ITEM_2_BG" style="font-size: 23px; font-family: 'Segoe UI Variable Text', 'Aptos', 'Inter', 'Segoe UI', Helvetica, Arial, sans-serif; font-weight: 400; font-kerning: normal; font-feature-settings: &quot;kern&quot; 1, &quot;liga&quot; 1;" data-final-font-size="23">
        <tspan x="0.0" dy="29.91px">RFA testing suggests reeds died from water exposure</tspan>
      </text>
      <rect id="ITEM_2_BODY_FRAME" x="0" y="24" width="846" height="84" fill="none"/>
    </g>
  </g>
  <g transform="translate(960.0, 660.0)">
    <rect id="ITEM_3_BG" x="-600" y="-72" width="1200" height="176" rx="24" fill="var(--semantic-uncertain)" stroke="var(--accent-3)" filter="url(#svg00c1ccc2-shadow)" stroke-width="3" fill-opacity="0.4"/>
    <g transform="translate(-480.0, 0.0)">
      <circle r="60" fill="var(--background)" opacity="0.3"/>
      <circle id="ITEM_3_PAD" cx="0" cy="0" r="50" fill="var(--icon-pad-bg)" stroke="var(--semantic-uncertain)" opacity="1" fill-opacity="0.9" stroke-width="2" stroke-opacity="0.72" data-badge-layer="pad"/>
      <circle id="ITEM_3_PAD_INNER" cx="0" cy="0" r="39.00" fill="var(--semantic-uncertain)" fill-opacity="0.12" stroke="none" data-badge-layer="tint"/>
      <circle cx="0" cy="0" r="40" fill="none" stroke="var(--accent-2)" stroke-width="3" stroke-dasharray="6 4" display="none" data-suppressed-decoration="redundant-badge-ring"/>
      <g id="ITEM_3_ICON" transform="translate(-39, -39)" data-icon-size="78" stroke-linecap="round" stroke-linejoin="round" data-badge-treatment="clean">
        <g transform="translate(-5.571428571428571,-8.357142857142858) scale(2.7857142857142856)" vector-effect="non-scaling-stroke" fill="#f1f5f9" fill-opacity="1.0" stroke="none">
          <path fill="#f1f5f9" d="M17 28V17h1a2 2 0 0 0 2-2v-4a2 2 0 0 0-2-2h-4a2 2 0 0 0-2 2v4a2 2 0 0 0 2 2h1v11H2v2h28v-2Zm-3-17h4l.002 4H14Z" vector-effect="non-scaling-stroke" stroke="none"/>
          <path fill="#f1f5f9" d="M9.333 18.217a7 7 0 0 1 0-10.434l1.333 1.49a5 5 0 0 0 0 7.453zm13.334 0l-1.334-1.49a5 5 0 0 0 0-7.454l1.334-1.49a7 7 0 0 1 0 10.434" vector-effect="non-scaling-stroke" stroke="none"/>
          <path fill="#f1f5f9" d="M6.4 21.8a11.002 11.002 0 0 1 0-17.6l1.2 1.6a9 9 0 0 0 0 14.401zm19.2 0l-1.2-1.6a9 9 0 0 0 0-14.401l1.2-1.6a11.002 11.002 0 0 1 0 17.601" vector-effect="non-scaling-stroke" stroke="none"/>
        </g>
      </g>
    </g>
    <g transform="translate(-330, -36)">
      <text id="ITEM_3_HEAD" text-anchor="start" font-weight="bold" font-size="34" fill="var(--primary-text)" x="0.0" y="-10.0" data-bg-id="ITEM_3_BG" fill-opacity="1.0" stroke="none" style="font-size: 31px; font-family: 'Segoe UI Variable Display', 'Aptos Display', 'Inter', 'Segoe UI', Helvetica, Arial, sans-serif; font-weight: 700; font-kerning: normal; font-feature-settings: &quot;kern&quot; 1, &quot;liga&quot; 1; letter-spacing:-0.4px;" data-final-font-size="31">
        <tspan x="0.0" dy="30.52px">Meteorological Event</tspan>
      </text>
      <rect id="ITEM_3_HEAD_FRAME" x="0" y="-10" width="846" height="44" fill="none"/>
      <text id="ITEM_3_BODY" text-anchor="start" font-size="24" fill="var(--primary-text)" x="0.0" y="24.0" data-bg-id="ITEM_3_BG" style="font-size: 23px; font-family: 'Segoe UI Variable Text', 'Aptos', 'Inter', 'Segoe UI', Helvetica, Arial, sans-serif; font-weight: 400; font-kerning: normal; font-feature-settings: &quot;kern&quot; 1, &quot;liga&quot; 1;" data-final-font-size="23">
        <tspan x="0.0" dy="29.91px">Possible causes include whirlwinds or waterspouts</tspan>
      </text>
      <rect id="ITEM_3_BODY_FRAME" x="0" y="24" width="846" height="84" fill="none"/>
    </g>
  </g>
  <g transform="translate(960.0, 855.0)">
    <rect id="ITEM_4_BG" x="-600" y="-72" width="1200" height="176" rx="24" fill="var(--semantic-uncertain)" stroke="var(--accent-4)" filter="url(#svg00c1ccc2-shadow)" stroke-width="3" fill-opacity="0.4"/>
    <g transform="translate(-480.0, 0.0)">
      <circle r="60" fill="var(--background)" opacity="0.3"/>
      <circle id="ITEM_4_PAD" cx="0" cy="0" r="50" fill="var(--icon-pad-bg)" stroke="var(--semantic-uncertain)" opacity="1" fill-opacity="0.9" stroke-width="2" stroke-opacity="0.72" data-badge-layer="pad"/>
      <circle id="ITEM_4_PAD_INNER" cx="0" cy="0" r="39.00" fill="var(--semantic-uncertain)" fill-opacity="0.12" stroke="none" data-badge-layer="tint"/>
      <circle cx="0" cy="0" r="40" fill="none" stroke="var(--accent-3)" stroke-width="3" stroke-dasharray="6 4" display="none" data-suppressed-decoration="redundant-badge-ring"/>
      <g id="ITEM_4_ICON" transform="translate(-39, -39)" data-icon-size="78" stroke-linecap="round" stroke-linejoin="round" data-badge-treatment="clean">
        <g transform="translate(-4.7894736842105265,-4.789473684210526) scale(0.17105263157894737)" vector-effect="non-scaling-stroke" fill="#f1f5f9" fill-opacity="1.0" stroke="none">
          <path fill="#f1f5f9" d="M248.9 57.48c0 3.7.2 7.9 1.1 12.6c20.6-.3 43 .3 61.4 2.1c-.4-4.3-.4-8.3.2-12.1c-22.7-2.4-41.8-3.3-62.7-2.6m-18 1c-30.5 2.3-57.8 7.8-78.9 15.2c1.5 2.6 3.5 5.7 5.6 9.2c18.1-5.9 44.5-10.2 74.3-12c-.7-4.6-1-8.8-1-12.4m98.5 4.2c-.5 3.2-.4 7.1.6 11.9c17.3 2.8 31 6.6 39.8 11.1c6.2-2.2 12.7-3.5 19-4.1c-18.7-10.1-40.6-15.6-59.4-18.9m-194.2 18c-7.4 3.7-13.5 7.6-17.9 11.4c-6.8 6-9.2 11.22-9.2 15.82c2.9 14.4 16.6 21.4 28 26.7c3.6-7.3 7.9-14.2 13.3-20.3c-10.4-4.1-15.9-8.9-16-13.8c0-3.42 2.6-6.82 7.6-10.12c-2.1-3.4-4.1-6.6-5.8-9.7m243.9 20.92c-3.4 5.5-13.3 10.6-28.4 14.9c2.5 8.6 3.3 17 3.6 25.4c15.8-5 33.1-11.3 45.4-21.9c5.4-5.5 10.7-12.1 8.6-19.4c-9.6-2.12-19.9-1.52-29.2 1m-203.6 13.8c-13.2 8.3-21.9 21.6-27.6 37.8c.9 14.7 1.6 34.9 13 45.5c4.4-31.8 21.3-64.2 39.6-81.5c-8.2-7.8-16.5-7.1-25-1.8m157.5 5.3c-17.9 3.5-39.2 5.8-61.7 6.7c-6.6 12.4-6.9 17.5-8.3 27.4c26.7-.5 51.7-3.5 73.2-8.3c-.2-9-.3-17.6-3.2-25.8m-116.2 6c-9.2 7.6-16.3 15.7-21.7 24c15.4 2.3 32.1 3.8 49.7 4.2c1.5-9.6 2.2-16.8 6.4-27.1c-11.7 0-23.3-.4-34.4-1.1m-120.36.1c-10.37 22.3 13.36 36.6 28.26 44c1.2-6.5 2.8-13.1 4.8-19.4c-13-6.4-25.3-13.4-33.06-24.6m318.16 3.9c-9.5 8.9-22 15.9-32 20.2c2.9 10 3.6 20.3 1 29.7c11.6-4.6 21-9.8 27.4-15.2c7.8-6.4 11-12.5 11.2-18.2c.2-5.1-2.1-10.5-7.6-16.5m-48.9 26.5c-19.5 6.4-42.7 11.1-68.1 13.6c-8.2 7.1-8.3 18.1-7.2 27.2c24.3-1.2 46.8-4.3 66-9c10.2-11.2 13-18.5 9.3-31.8m-279.88 7.4c-16.43 29.7 13.58 45.8 34.28 54.7c.2-9.6.7-19.7 1.8-29.8c-13.9-7.3-26.6-14.2-36.08-24.9m348.98.6c-6.3 9.9-14.8 16.8-24 22.2c2.1 7.4 2.3 14.4.5 21.1c11.6-6.9 26.5-19.5 26.6-32.6c0-3.5-1-7-3.1-10.7m-248.4 2.4c-2.8 7.2-4.7 14.4-6 21.8c5.1 1.1 10.4 2.1 15.9 3.1c.4-8.7 2.7-16 7.3-22.4c-5.9-.7-11.6-1.5-17.2-2.5m39.8 4.5c-7.2 6.4-13 14.6-11.9 23c20.9 2.4 38.8 3.5 58 3.4c-.6-9.6-.5-17.9 2.6-26c-16.3.7-33.6.5-48.7-.4M63.79 194.2c-5.2 10.1-1.05 22.2 4.29 29.4c1.34-4 2.89-8.8 4.97-14.3c-4.05-4.7-7.22-9.7-9.26-15.1m330.81 1.4c-21.7 8.8-47.2 14.4-67.5 17.2c-6.3 6.7-3.7 16-2.4 23.4c24.5-3.9 46.3-9.7 64.1-16.8c2.8-7.6 7.3-16.4 5.8-23.8m-255.5 3c-1.7 20.8-1.1 41.8-.9 58.8c4.9 20.2 23.5 7.1 23.5 4.4c-.3-12.2-1.8-27.1-1.7-43.3c-10.2-5.3-16.7-11.2-20.9-19.9m303.2 8.4c-.9 1-1.8 1.9-2.8 2.8c1.4 10.5 1.7 22.4 1.4 32c4.7-5.6 7-11.1 7.3-16.7c.3-5.8-1.5-11.8-5.9-18.1m-264 .4c-.5 9.6-.3 19.1.2 28.3c10.6 1.8 21.9 3.3 33.6 4.3c-2.1-9.6-2.2-18.6 2-26.8c-12.5-1.4-24.4-3.4-35.8-5.8m127.8 7.6c-25.5 1.7-47.4 1.9-70.7.3c-9.1 6.9-6.9 18.2-3.9 26c25.4 1.1 51.8 0 75.3-2.7c-1.3-8.4-2.6-15.9-.7-23.6m-218.49 7.1c-1.93 5.7-3.42 10.6-5.27 15.4c13.3 9.2 24.56 15.3 37.86 20.8c-.1-6-.2-12.6-.3-19.6c-12.4-4.8-23.26-10.3-32.29-16.6m335.09.6c-16.5 9.8-33.3 16.3-50.3 21.3c-1.4 11.2-4.9 22-1.1 31.8c16.4-4 32.7-9.4 46.9-16.9c4.9-11.3 5.1-26.1 4.5-36.2m38.3 23.7c1.3 4.8 1.8 9.9 1.7 15c6.7-3.2 13.7-3.8 20.1-1.2c0-6.3-.8-12.6-2.4-18.8c-5.2-14.1-21.7-5.2-19.4 5M53.99 234.8c-3.31 5.4-4.88 10.7-4.88 16c2.71 17.2 12 26.6 24.31 35.3c-.92-10.1 1.9-20.1 7.91-27.4c-10.73-7.3-20.11-14.4-27.34-23.9m298.81 14.3c-18 4.1-37.6 7.2-58.5 8.9c-7.4 7.5-7.7 18.4-4.3 27.6c22.7-.5 44-2.7 63.2-6.1c-1.8-10-1.6-21.5-.4-30.4m-173.4 5c.5 7.1-.1 15.4-4 20.9c5.1 1.1 10.4 2.2 15.8 3.2c-1.1-7.9-1.2-15.3 1.5-22.1c-4.5-.6-9-1.3-13.3-2m32.7 4c-5.8 6.5-3.4 16.3-1.8 23.1c21.7 2.7 40.8 4.2 60.9 4.5c-1.8-9.2-1.6-18.1 1.2-26.4c-20.1.8-42.1.3-60.3-1.2m235.3 2.6c-11.1 9.2-24.8 16.7-36 21.3c-2.2 7-.4 13.4 1.2 19.6c14.3-6.1 26-13 34.7-20.2c-.5-7 1.4-14.4.1-20.7m-349.96 7c-9.27 8.4-5.52 22.6-2.7 30.7c13.96 6.6 29.76 11.9 43.16 15.6c-2.4-10.8-2.3-20.6 2.9-29.3c-15.8-5.2-29.9-10.3-43.36-17m375.86 8.8c-20.1 14.4-27.9 35-44.1 52.7c2.7 7 6.2 13.1 9.2 19.4c20.3-20.6 36.1-43.9 42-68c-1.9-2.2-4.5-4.7-7.1-4.1m-80.9 12.2c-20.7 6.3-44.7 10.8-70.9 13.2c-3.9 7.1-.5 16.1 1.7 22.5c27.1-3.5 51.7-9.2 72.5-16.3c-1.8-6.8-3.4-12.9-3.3-19.4m-232.9 1.2c-9 9-3.9 22-.3 29.1c17.7 3.7 37 6.4 57.4 8c-2.8-9.1-3-18.6.4-26.8c-20.3-2.4-39.6-5.9-57.5-10.3m77.9 12.3c-7.9 6.9-4.9 18.4-.6 26c22.7.8 47.2.1 68.1-1.8c-2.4-7.7-4-15.8-2.9-23.2c-23.6.8-43.5.6-64.6-1M51.5 359c.46 7.7 3.53 15.5 6.97 21.5c19.87-17.9 41.63-25.4 65.13-20.2c.9-6.9 4.6-13.9 8.8-18.6c-28.2-7.4-60.89.3-80.9 17.3m362.8-15.1c-10.8 9.8-22.9 19-35.6 27.2c3.4 5.9 7.6 11.7 10.4 17.2c12.5-8.1 24.4-17 35.4-26.7c-2.2-4.4-8.1-19.4-10.2-17.7m-262.2 4.6c-6.4 4.7-11.1 10.2-10.8 17.5c18.5 7.5 37.1 19.4 56.3 31.2c1.3-6 3.5-14.1 6.3-19.6c-16.5-10.3-33.6-21.3-51.8-29.1M36.81 376.4c-6.69 11.2-9.67 24.8-6.04 38.5c1.92 7.2 5.61 14.2 11.05 20.8c3.15-7.2 6.85-12.5 13.04-15.9c-4.23-6.3-6.36-13.8-5.46-20.8c-5.67-6.8-9.89-14.7-12.59-22.6m326.49 4.1c-19.4 11-39.4 19.7-57.8 24.9c-1.8 5.3-2.4 12.2-.5 20.9c22.2-5.6 45.9-15.5 68.7-28.6c-3.3-6.4-7-11.5-10.4-17.2m-144.2 6.4c-3.1 5.6-5.1 11.7-3.4 21.2c22.4 12.8 46.1 23 71.6 21.2c-1.4-7.1-1.7-13.8-1-20c-22 1.6-43.9-8.6-67.2-22.4M61.46 453c4.6 3.2 10.89 1.9 13.98-2.7c3.09-4.7 1.78-10.9-2.91-14c-11.83-7.4-18.76 11.4-11.07 16.7" vector-effect="non-scaling-stroke" stroke="none"/>
        </g>
      </g>
    </g>
    <g transform="translate(-330, -36)">
      <text id="ITEM_4_HEAD" text-anchor="start" font-weight="bold" font-size="34" fill="var(--primary-text)" x="0.0" y="-10.0" data-bg-id="ITEM_4_BG" fill-opacity="1.0" stroke="none" style="font-size: 31px; font-family: 'Segoe UI Variable Display', 'Aptos Display', 'Inter', 'Segoe UI', Helvetica, Arial, sans-serif; font-weight: 700; font-kerning: normal; font-feature-settings: &quot;kern&quot; 1, &quot;liga&quot; 1; letter-spacing:-0.4px;" data-final-font-size="31">
        <tspan x="0.0" dy="30.52px">Human Fabrication</tspan>
      </text>
      <rect id="ITEM_4_HEAD_FRAME" x="0" y="-10" width="846" height="44" fill="none"/>
      <text id="ITEM_4_BODY" text-anchor="start" font-size="24" fill="var(--primary-text)" x="0.0" y="24.0" data-bg-id="ITEM_4_BG" style="font-size: 23px; font-family: 'Segoe UI Variable Text', 'Aptos', 'Inter', 'Segoe UI', Helvetica, Arial, sans-serif; font-weight: 400; font-kerning: normal; font-feature-settings: &quot;kern&quot; 1, &quot;liga&quot; 1;" data-final-font-size="23">
        <tspan x="0.0" dy="29.91px">Deliberate flattening using boards and rope tools</tspan>
      </text>
      <rect id="ITEM_4_BODY_FRAME" x="0" y="24" width="846" height="84" fill="none"/>
    </g>
  </g>
  <text id="SOURCE_NOTE" x="134.0" y="1058.0" fill="var(--muted-text)" opacity="0.88" style="font-family: var(--font-family); font-size: 20px;">Source: Introduction</text>
  <text id="EDITORIAL_NOTE" x="1786.0" y="1058.0" fill="var(--semantic-uncertain)" opacity="0.92" style="font-family: var(--font-family); font-size: 20px;" text-anchor="end">Interpretations remain disputed; wording reflects source uncertainty.</text>
</svg>
