<?xml version='1.0' encoding='utf-8'?>
<svg xmlns="http://www.w3.org/2000/svg" width="1920" height="1080" viewBox="0 0 1920 1080" data-theme="light" data-semantic-intent="sequence" data-relation-type="sequence" data-site-visual-identity="signal-cobalt">
  <style>
        @font-face {
            font-family: 'Inter';
            src: url('assets/fonts/Inter-Regular.ttf') format('truetype');
            font-weight: 400;
            font-style: normal;
            font-display: swap;
        }
        @font-face {
            font-family: 'Inter';
            src: url('assets/fonts/Inter-Bold.ttf') format('truetype');
            font-weight: 600;
            font-style: normal;
            font-display: swap;
        }
        @font-face {
            font-family: 'Inter';
            src: url('assets/fonts/Inter-Bold.ttf') format('truetype');
            font-weight: 800;
            font-style: normal;
            font-display: swap;
        }
        
:root {
    --background: #f8fafc;
    --panel: #ffffff;
    --primary-text: #0f172a;
    --muted-text: #64748b;
    --inverse-text: #ffffff;
    --border: #e2e8f0;
    --shadow-color: #000000;
    --icon-pad-bg: #1e293b;
    --art-glow: #0891b2;
    --art-glow-opacity: 0.10;
    --art-sheen: #ffffff;
    --art-sheen-opacity: 0.34;
    --art-shadow: #0f172a;
    --art-shadow-opacity: 0.14;
    --art-muted-line: #94a3b8;
    --art-panel-tint: #f1f5f9;
    --semantic-risk: #b91c1c;
    --semantic-warning: #c2410c;
    --semantic-uncertain: #a16207;
    --semantic-evidence: #1d4ed8;
    --semantic-claim: #6d28d9;
    --semantic-positive: #15803d;
    --semantic-outcome: #0e7490;
    --font-family: 'Inter', 'Segoe UI', 'Kalam', Roboto, Helvetica, Arial, sans-serif;
    --radius-xl: 16px;
    --font-family-headline: 'Segoe UI Variable Display', 'Aptos Display', 'Inter', 'Segoe UI', Helvetica, Arial, sans-serif;
    --font-family-body: 'Segoe UI Variable Text', 'Aptos', 'Inter', 'Segoe UI', Helvetica, Arial, sans-serif;
    --font-heading: var(--font-family-headline);
    --font-body: var(--font-family-body);
    --font-size-h1: 64px;
    --font-size-h2: 42px;
    --font-size-h3: 29px;
    --font-size-body: 21px;
    --font-size-caption: 17px;
    --secondary-text: var(--muted-text);
    --panel-border: var(--border);
    --font-weight-normal: 400;
    --font-weight-medium: 500;
    --font-weight-semibold: 600;
    --font-weight-bold: 700;
    --spacing-gutter-pct: 0.07;
    --spacing-top-pct: 0.15;
    --spacing-bottom-pct: 0.07;
    --spacing-title-y-pct: 0.055;
    --accent-1: #1d4ed8;
    --accent-2: #2563eb;
    --accent-3: #4f46e5;
    --accent-4: #6d28d9;
    --accent-5: #0369a1;
    --accent-6: #c2410c;
}
:root[data-theme="dark"] {
    --background: #0f172a;
    --panel: #1e293b;
    --primary-text: #f1f5f9;
    --muted-text: #94a3b8;
    --inverse-text: #0f172a;
    --border: #334155;
    --shadow-color: #000000;
    --icon-pad-bg: #1e293b;
    --art-glow: #7dd3fc;
    --art-glow-opacity: 0.18;
    --art-sheen: #ffffff;
    --art-sheen-opacity: 0.18;
    --art-shadow: #000000;
    --art-shadow-opacity: 0.28;
    --art-muted-line: #64748b;
    --art-panel-tint: #1e293b;
    --semantic-risk: #f87171;
    --semantic-warning: #fb923c;
    --semantic-uncertain: #fbbf24;
    --semantic-evidence: #60a5fa;
    --semantic-claim: #c084fc;
    --semantic-positive: #4ade80;
    --semantic-outcome: #22d3ee;
    --accent-1: #93c5fd;
    --accent-2: #60a5fa;
    --accent-3: #818cf8;
    --accent-4: #a78bfa;
    --accent-5: #38bdf8;
    --accent-6: #fb923c;
}
:root[data-theme="light"] {
    --background: #f8fafc;
    --panel: #ffffff;
    --primary-text: #0f172a;
    --muted-text: #64748b;
    --inverse-text: #ffffff;
    --border: #e2e8f0;
    --shadow-color: #000000;
    --icon-pad-bg: #1e293b;
    --art-glow: #0891b2;
    --art-glow-opacity: 0.10;
    --art-sheen: #ffffff;
    --art-sheen-opacity: 0.34;
    --art-shadow: #0f172a;
    --art-shadow-opacity: 0.14;
    --art-muted-line: #94a3b8;
    --art-panel-tint: #f1f5f9;
    --semantic-risk: #b91c1c;
    --semantic-warning: #c2410c;
    --semantic-uncertain: #a16207;
    --semantic-evidence: #1d4ed8;
    --semantic-claim: #6d28d9;
    --semantic-positive: #15803d;
    --semantic-outcome: #0e7490;
    --accent-1: #1d4ed8;
    --accent-2: #2563eb;
    --accent-3: #4f46e5;
    --accent-4: #6d28d9;
    --accent-5: #0369a1;
    --accent-6: #c2410c;
}</style>
  <rect x="0" y="0" width="1.92E+3" height="1.08E+3" fill="#252a34" stroke="none" id="programmatic_background"/>
  <line id="HEADER_DECOR" x1="960.0" x2="1080.0" y1="135.0" y2="135.0" stroke="var(--accent-1)" stroke-width="6" stroke-linecap="round"/>
  <defs>
    <pattern id="svgf89d9dc3-napkin-hatch" patternUnits="userSpaceOnUse" width="12" height="12">
      <path d="M -3 12 L 12 -3 M 0 15 L 15 0" fill="none" stroke="var(--primary-text)" stroke-width="1" stroke-opacity="0.05"/>
    </pattern>
    <radialGradient id="svgf89d9dc3-universal-edge-vignette" cx="50%" cy="50%" r="72%">
      <stop offset="0%" stop-color="var(--background)" stop-opacity="0"/>
      <stop offset="72%" stop-color="var(--background)" stop-opacity="0.12"/>
      <stop offset="100%" stop-color="var(--primary-text)" stop-opacity="0.08"/>
    </radialGradient>
    <linearGradient id="svgf89d9dc3-universal-surface-sheen" x1="0%" y1="0%" x2="100%" y2="100%">
      <stop offset="0%" stop-color="var(--art-sheen)" stop-opacity="var(--art-sheen-opacity)"/>
      <stop offset="46%" stop-color="var(--art-sheen)" stop-opacity="0.035"/>
      <stop offset="100%" stop-color="var(--art-panel-tint)" stop-opacity="0.14"/>
    </linearGradient>
    <radialGradient id="svgf89d9dc3-universal-icon-aura" cx="50%" cy="42%" r="64%">
      <stop offset="0%" stop-color="var(--art-glow)" stop-opacity="var(--art-glow-opacity)"/>
      <stop offset="100%" stop-color="var(--background)" stop-opacity="0"/>
    </radialGradient>
    <filter id="svgf89d9dc3-text-glow" x="-20%" y="-20%" width="140%" height="140%">
      <feDropShadow dx="0" dy="0" stdDeviation="2" flood-color="#000000" flood-opacity="0.4"/>
    </filter>
    <filter id="svgf89d9dc3-shadow" x="-30%" y="-30%" width="160%" height="160%">
      <feDropShadow dx="0" dy="2" stdDeviation="3" flood-color="#000000" flood-opacity="0.08"/>
      <feDropShadow dx="0" dy="6" stdDeviation="10" flood-color="#000000" flood-opacity="0.12"/>
    </filter>
    <marker id="svgf89d9dc3-arrowhead" markerWidth="10" markerHeight="7" refX="9" refY="3.5" orient="auto" markerUnits="strokeWidth">
      <polygon points="0 0, 10 3.5, 0 7" fill="var(--muted-text)" opacity="0.6"/>
    </marker>
    <marker id="svgf89d9dc3-PHX_SEQUENCE_DIRECTION_ARROW" markerWidth="18" markerHeight="18" refX="16" refY="9" orient="auto" markerUnits="userSpaceOnUse">
      <path d="M 0 0 L 18 9 L 0 18 Z" fill="var(--muted-text)" opacity="0.9"/>
    </marker>
  </defs>
  <rect width="100%" height="100%" fill="var(--background)" id="CANVAS_BG"/>
  <rect width="100%" height="100%" fill="url(#svgf89d9dc3-napkin-hatch)"/>
  <rect id="UNIVERSAL_EDGE_VIGNETTE" width="100%" height="100%" fill="url(#svgf89d9dc3-universal-edge-vignette)" opacity="0.62"/>
  <text id="TITLE" x="960.0" y="59" text-anchor="middle" font-size="63" font-weight="700" fill="#0f172a" style="font-size: 69px; font-family: 'Segoe UI Variable Display', 'Aptos Display', 'Inter', 'Segoe UI', Helvetica, Arial, sans-serif; font-weight: 800; font-kerning: normal; font-feature-settings: &quot;kern&quot; 1, &quot;liga&quot; 1; letter-spacing:-1.2px;" data-final-font-size="69">
    <tspan x="960.0" dy="70.47px">The 1974 St Helens Car-Stop Key Stages</tspan>
  </text>
  <rect id="TITLE_FRAME" x="134" y="59" width="1652" height="103" fill="none"/>
  <g id="DIAGRAM_SCALER" transform="translate(50.3, 32.2) scale(0.95)">
    <line x1="75" y1="675" x2="1845" y2="675" stroke="var(--panel)" stroke-width="3" stroke-linecap="round" marker-end="url(#svgf89d9dc3-PHX_SEQUENCE_DIRECTION_ARROW)" data-direction-cue="forward"/>
    <g transform="translate(270.0, 675.0)">
      <line x1="0" y1="0" x2="0" y2="-150" stroke="var(--accent-1)" stroke-width="2"/>
      <circle id="ITEM_1_NODE" cx="0" cy="-150" r="50" fill="var(--background)" stroke="var(--accent-1)" stroke-width="2" stroke-opacity="0.58" data-badge-layer="outline"/>
      <g transform="translate(0.0, 45.0)">
        <rect x="-135" y="-15" width="270" height="180" rx="12" fill="var(--panel)" id="ITEM_1_BG" stroke="var(--accent-1)" stroke-width="2"/>
        <text id="ITEM_1_HEAD" text-anchor="middle" font-weight="bold" font-size="27" fill="var(--accent-1)" x="0.0" y="0.0" data-bg-id="ITEM_1_BG" fill-opacity="1.0" style="font-size: 31px; font-family: 'Segoe UI Variable Display', 'Aptos Display', 'Inter', 'Segoe UI', Helvetica, Arial, sans-serif; font-weight: 700; font-kerning: normal; font-feature-settings: &quot;kern&quot; 1, &quot;liga&quot; 1; letter-spacing:-0.4px;" data-final-font-size="31">
          <tspan x="0.0" dy="34.02px">Radio Static</tspan>
        </text>
        <rect id="ITEM_1_HEAD_FRAME" x="-120" y="0" width="240" height="51" fill="none"/>
        <text id="ITEM_1_BODY" text-anchor="middle" font-size="19.5" fill="var(--primary-text)" x="0.0" y="60.0" data-bg-id="ITEM_1_BG" style="font-size: 23px; font-family: 'Segoe UI Variable Text', 'Aptos', 'Inter', 'Segoe UI', Helvetica, Arial, sans-serif; font-weight: 400; font-kerning: normal; font-feature-settings: &quot;kern&quot; 1, &quot;liga&quot; 1;" data-final-font-size="23">
          <tspan x="0.0" dy="21.53px">Initial anomaly</tspan>
          <tspan x="0.0" dy="26.45px">occurs as the Toyota</tspan>
          <tspan x="0.0" dy="26.45px">Crown travels north</tspan>
        </text>
        <rect id="ITEM_1_BODY_FRAME" x="-120" y="60" width="240" height="95" fill="none"/>
      </g>
      <circle id="ITEM_1_PAD" cx="0" cy="-150" r="50" fill="var(--icon-pad-bg)" stroke="var(--accent-1)" opacity="1" fill-opacity="0.9" stroke-width="2" stroke-opacity="0.72" data-badge-layer="pad"/>
      <circle id="ITEM_1_PAD_INNER" cx="0" cy="-150" r="39.00" fill="var(--accent-1)" fill-opacity="0.12" stroke="none" data-badge-layer="tint"/>
      <circle cx="0" cy="-150" r="40" fill="none" stroke="var(--accent-1)" stroke-width="3" stroke-dasharray="6 4" display="none" data-suppressed-decoration="redundant-badge-ring"/>
      <g id="ITEM_1_ICON" transform="translate(-30.0, -180.0)" data-icon-size="60" stroke-linecap="round" stroke-linejoin="round" data-badge-treatment="clean">
        <g transform="translate(-14.52212389380531,-16.247787610619465) scale(2.7610619469026547)">
          <path d="M5 27.99C5 28.75 5.61 29.36 6.37 29.36C7.13 29.36 7.74 28.75 7.74 27.99V26.62H5V27.99ZM24.15 27.99C24.15 28.75 24.76 29.36 25.52 29.36C26.27 29.36 26.89 28.75 26.89 27.99V26.62H24.15V27.99Z" fill="#212121"/>
          <path d="M27 5C27 5.55228 26.5523 6 26 6C25.7251 6 25.4761 5.88908 25.2954 5.70956L7.9667 9.12058L7.77356 8.1394L25.0336 4.74189C25.1474 4.3147 25.537 4 26 4C26.5523 4 27 4.44772 27 5Z" fill="#9B9B9B"/>
          <path d="M6.84005 11.85C7.96671 11.85 8.88005 10.9367 8.88005 9.81002C8.88005 8.68336 7.96671 7.77002 6.84005 7.77002C5.71338 7.77002 4.80005 8.68336 4.80005 9.81002C4.80005 10.9367 5.71338 11.85 6.84005 11.85Z" fill="#D3D3D3"/>
          <path d="M27.38 9.81006H4.63C3.18 9.81006 2 10.9901 2 12.4401V24.6901C2 26.1401 3.18 27.3201 4.63 27.3201H27.38C28.83 27.3201 30.01 26.1401 30.01 24.6901V12.4301C30 10.9801 28.83 9.81006 27.38 9.81006Z" fill="#9B9B9B"/>
          <path d="M26.32 12.76H18.45C17.79 12.76 17.25 13.3 17.25 13.96V18.79C17.25 19.45 17.79 19.99 18.45 19.99H26.32C26.98 19.99 27.52 19.45 27.52 18.79V13.96C27.52 13.3 26.98 12.76 26.32 12.76Z" fill="#83CBFF"/>
          <path d="M19.88 15.83C19.44 15.83 19.09 16.19 19.09 16.62V19.98H20.68V16.62C20.67 16.19 20.32 15.83 19.88 15.83Z" fill="#F8312F"/>
          <path d="M14.83 14.12C15.2 14.12 15.51 13.82 15.51 13.44C15.51 13.07 15.21 12.76 14.83 12.76H5.18C4.81 12.76 4.5 13.06 4.5 13.44C4.5 13.81 4.8 14.12 5.18 14.12H14.83ZM15.51 15.96C15.51 16.34 15.2 16.64 14.83 16.64H5.18C4.8 16.64 4.5 16.33 4.5 15.96C4.5 15.58 4.81 15.28 5.18 15.28H14.83C15.21 15.27 15.51 15.58 15.51 15.96ZM14.83 19.15C15.2 19.15 15.51 18.85 15.51 18.47C15.51 18.1 15.21 17.79 14.83 17.79H5.18C4.81 17.79 4.5 18.09 4.5 18.47C4.5 18.84 4.8 19.15 5.18 19.15H14.83ZM15.51 20.9901C15.51 21.3701 15.2 21.6701 14.83 21.6701H5.18C4.8 21.6701 4.5 21.3601 4.5 20.9901C4.5 20.6101 4.81 20.3101 5.18 20.3101H14.83C15.21 20.3 15.51 20.6101 15.51 20.9901ZM15.51 23.5001C15.51 23.8801 15.2 24.1801 14.83 24.1801H5.18C4.8 24.1801 4.5 23.8701 4.5 23.5001C4.5 23.1201 4.81 22.8201 5.18 22.8201H14.83C15.21 22.8201 15.51 23.1301 15.51 23.5001Z" fill="#212121"/>
          <path d="M21.04 22.9199C21.04 23.6103 20.4804 24.1699 19.79 24.1699C19.0997 24.1699 18.54 23.6103 18.54 22.9199C18.54 22.2296 19.0997 21.6699 19.79 21.6699C20.4804 21.6699 21.04 22.2296 21.04 22.9199ZM26.6201 22.9199C26.6201 23.6103 26.0605 24.1699 25.3701 24.1699C24.6798 24.1699 24.1201 23.6103 24.1201 22.9199C24.1201 22.2296 24.6798 21.6699 25.3701 21.6699C26.0605 21.6699 26.6201 22.2296 26.6201 22.9199Z" fill="#F4F4F4"/>
        </g>
      </g>
    </g>
    <g transform="translate(615.0, 675.0)">
      <line x1="0" y1="0" x2="0" y2="-270" stroke="var(--accent-2)" stroke-width="2"/>
      <circle id="ITEM_2_NODE" cx="0" cy="-270" r="50" fill="var(--background)" stroke="var(--accent-2)" stroke-width="2" stroke-opacity="0.58" data-badge-layer="outline"/>
      <g transform="translate(0.0, 45.0)">
        <rect x="-135" y="-15" width="270" height="180" rx="12" fill="var(--panel)" id="ITEM_2_BG" stroke="var(--accent-2)" stroke-width="2"/>
        <text id="ITEM_2_HEAD" text-anchor="middle" font-weight="bold" font-size="27" fill="var(--accent-2)" x="0.0" y="0.0" data-bg-id="ITEM_2_BG" fill-opacity="1.0" style="font-size: 30px; font-family: 'Segoe UI Variable Display', 'Aptos Display', 'Inter', 'Segoe UI', Helvetica, Arial, sans-serif; font-weight: 700; font-kerning: normal; font-feature-settings: &quot;kern&quot; 1, &quot;liga&quot; 1; letter-spacing:-0.4px;" data-final-font-size="30">
          <tspan x="0.0" dy="33.75px">Sky Illumination</tspan>
        </text>
        <rect id="ITEM_2_HEAD_FRAME" x="-120" y="0" width="240" height="51" fill="none"/>
        <text id="ITEM_2_BODY" text-anchor="middle" font-size="19.5" fill="var(--primary-text)" x="0.0" y="60.0" data-bg-id="ITEM_2_BG" style="font-size: 23px; font-family: 'Segoe UI Variable Text', 'Aptos', 'Inter', 'Segoe UI', Helvetica, Arial, sans-serif; font-weight: 400; font-kerning: normal; font-feature-settings: &quot;kern&quot; 1, &quot;liga&quot; 1;" data-final-font-size="23">
          <tspan x="0.0" dy="21.53px">The sky ahead appears</tspan>
          <tspan x="0.0" dy="26.45px">brightly lit during</tspan>
          <tspan x="0.0" dy="26.45px">the drive</tspan>
        </text>
        <rect id="ITEM_2_BODY_FRAME" x="-120" y="60" width="240" height="95" fill="none"/>
      </g>
      <circle id="ITEM_2_PAD" cx="0" cy="-270" r="50" fill="var(--icon-pad-bg)" stroke="var(--accent-2)" opacity="1" fill-opacity="0.9" stroke-width="2" stroke-opacity="0.72" data-badge-layer="pad"/>
      <circle id="ITEM_2_PAD_INNER" cx="0" cy="-270" r="39.00" fill="var(--accent-2)" fill-opacity="0.12" stroke="none" data-badge-layer="tint"/>
      <circle cx="0" cy="-270" r="40" fill="none" stroke="var(--accent-2)" stroke-width="3" stroke-dasharray="6 4" display="none" data-suppressed-decoration="redundant-badge-ring"/>
      <g id="ITEM_2_ICON" transform="translate(-30.0, -300.0)" data-icon-size="60" stroke-linecap="round" stroke-linejoin="round" data-badge-treatment="clean">
        <g transform="translate(-12.451327433628318,-12.106194690265486) scale(2.7610619469026547)">
          <path d="M14.14 2C14.14 1.58579 13.8042 1.25 13.39 1.25C12.9758 1.25 12.64 1.58579 12.64 2V6C12.64 6.41421 12.9758 6.75 13.39 6.75C13.8042 6.75 14.14 6.41421 14.14 6V2Z" fill="#F9C23C"/>
          <path d="M5.58032 4.12964C5.28742 3.83675 4.81255 3.83675 4.51966 4.12964C4.22676 4.42254 4.22676 4.89741 4.51966 5.1903L7.62966 8.3003C7.92255 8.5932 8.39742 8.5932 8.69032 8.3003C8.98321 8.00741 8.98321 7.53254 8.69032 7.23964L5.58032 4.12964Z" fill="#F9C23C"/>
          <path d="M1.25 13.14C1.25 12.7258 1.58579 12.39 2 12.39H5.89C6.30421 12.39 6.64 12.7258 6.64 13.14C6.64 13.5542 6.30421 13.89 5.89 13.89H2C1.58579 13.89 1.25 13.5542 1.25 13.14Z" fill="#F9C23C"/>
          <path d="M17.0866 7.05107C17.9184 7.88288 16.4179 10.7321 13.735 13.415C11.0521 16.0979 8.20289 17.5984 7.37108 16.7666C6.53927 15.9348 8.03986 13.0856 10.7227 10.4027C13.4056 7.71985 16.2548 6.21927 17.0866 7.05107Z" fill="#F9C23C"/>
          <path d="M20.6699 14.69L28.0899 22.11C29.6799 23.7 29.6699 26.3 28.0599 27.91C26.4499 29.52 23.8499 29.53 22.2599 27.94L14.7099 20.39C12.7199 20.61 10.6499 19.97 9.12988 18.44L12.8199 12.5L18.7599 8.81C20.3699 10.42 20.9999 12.62 20.6699 14.69Z" fill="#B4ACBC"/>
          <path d="M7.05986 17.72L7.91986 18.58C8.26986 18.93 8.84986 18.93 9.19986 18.58L18.8999 8.87999C19.2499 8.52999 19.2499 7.94999 18.8999 7.59999L18.0399 6.74999C17.6899 6.39999 17.1099 6.39999 16.7599 6.74999L7.05986 16.45C6.70986 16.8 6.70986 17.37 7.05986 17.72Z" fill="#321B41"/>
          <path d="M18.2302 19.09L19.4402 20.3C19.7502 20.61 20.2702 20.61 20.5802 20.3L20.6102 20.27C20.9202 19.96 20.9202 19.44 20.6102 19.13L19.4002 17.92C19.0902 17.61 18.5702 17.61 18.2602 17.92L18.2302 17.95C17.9102 18.26 17.9102 18.77 18.2302 19.09Z" fill="#F4F4F4"/>
        </g>
      </g>
    </g>
    <g transform="translate(960.0, 675.0)">
      <line x1="0" y1="0" x2="0" y2="-150" stroke="var(--accent-3)" stroke-width="2"/>
      <circle id="ITEM_3_NODE" cx="0" cy="-150" r="50" fill="var(--background)" stroke="var(--accent-3)" stroke-width="2" stroke-opacity="0.58" data-badge-layer="outline"/>
      <g transform="translate(0.0, 45.0)">
        <rect x="-135" y="-15" width="270" height="180" rx="12" fill="var(--panel)" id="ITEM_3_BG" stroke="var(--accent-3)" stroke-width="2"/>
        <text id="ITEM_3_HEAD" text-anchor="middle" font-weight="bold" font-size="27" fill="var(--accent-3)" x="0.0" y="0.0" data-bg-id="ITEM_3_BG" fill-opacity="1.0" style="font-size: 31px; font-family: 'Segoe UI Variable Display', 'Aptos Display', 'Inter', 'Segoe UI', Helvetica, Arial, sans-serif; font-weight: 700; font-kerning: normal; font-feature-settings: &quot;kern&quot; 1, &quot;liga&quot; 1; letter-spacing:-0.4px;" data-final-font-size="31">
          <tspan x="0.0" dy="34.02px">Power Failure</tspan>
        </text>
        <rect id="ITEM_3_HEAD_FRAME" x="-120" y="0" width="240" height="51" fill="none"/>
        <text id="ITEM_3_BODY" text-anchor="middle" font-size="19.5" fill="var(--primary-text)" x="0.0" y="60.0" data-bg-id="ITEM_3_BG" style="font-size: 23px; font-family: 'Segoe UI Variable Text', 'Aptos', 'Inter', 'Segoe UI', Helvetica, Arial, sans-serif; font-weight: 400; font-kerning: normal; font-feature-settings: &quot;kern&quot; 1, &quot;liga&quot; 1;" data-final-font-size="23">
          <tspan x="0.0" dy="21.53px">Vehicle loses all</tspan>
          <tspan x="0.0" dy="26.45px">electrical power and</tspan>
          <tspan x="0.0" dy="26.45px">stops moving</tspan>
        </text>
        <rect id="ITEM_3_BODY_FRAME" x="-120" y="60" width="240" height="95" fill="none"/>
      </g>
      <circle id="ITEM_3_PAD" cx="0" cy="-150" r="50" fill="var(--icon-pad-bg)" stroke="var(--accent-3)" opacity="1" fill-opacity="0.9" stroke-width="2" stroke-opacity="0.72" data-badge-layer="pad"/>
      <circle id="ITEM_3_PAD_INNER" cx="0" cy="-150" r="39.00" fill="var(--accent-3)" fill-opacity="0.12" stroke="none" data-badge-layer="tint"/>
      <circle cx="0" cy="-150" r="40" fill="none" stroke="var(--accent-3)" stroke-width="3" stroke-dasharray="6 4" display="none" data-suppressed-decoration="redundant-badge-ring"/>
      <g id="ITEM_3_ICON" transform="translate(-30.0, -180.0)" data-icon-size="60" stroke-linecap="round" stroke-linejoin="round" data-badge-treatment="clean">
        <g transform="translate(-14.57142857142857,-14.571428571428571) scale(2.7857142857142856)">
          <path d="M13 4V2.79004C13 2.35231 13.3143 2 13.7048 2H18.2952C18.6857 2 19 2.35231 19 2.79004V4H22.23C23.21 4 24 4.78939 24 5.76864V28.2314C24 29.2106 23.21 30 22.23 30H9.77C8.79 30 8 29.2106 8 28.2314V5.76864C8 4.78939 8.79 4 9.77 4H13Z" fill="#9B9B9B"/>
          <path d="M24 6H8V28H24V6Z" fill="#86D72F"/>
          <path d="M15 12.5V13.43C15 13.74 15.26 14 15.57 14H16.43C16.74 14 17 13.74 17 13.42V12.5H17.93C18.24 12.5 18.5 12.24 18.49 11.92V11.07C18.49 10.76 18.24 10.5 17.92 10.5H17V9.57C17 9.26 16.74 9 16.42 9H15.57C15.26 9 15 9.26 15 9.57V10.5H14.07C13.76 10.5 13.5 10.75 13.5 11.07V11.93C13.5 12.24 13.76 12.5 14.07 12.5H15ZM17.93 25H14.07C13.75 25 13.5 24.74 13.5 24.43V23.58C13.5 23.26 13.76 23 14.07 23H17.92C18.24 23 18.49 23.26 18.49 23.57V24.42C18.5 24.74 18.24 25 17.93 25Z" fill="white"/>
        </g>
      </g>
    </g>
    <g transform="translate(1305.0, 675.0)">
      <line x1="0" y1="0" x2="0" y2="-270" stroke="var(--accent-4)" stroke-width="2"/>
      <circle id="ITEM_4_NODE" cx="0" cy="-270" r="50" fill="var(--background)" stroke="var(--accent-1)" stroke-width="2" stroke-opacity="0.58" data-badge-layer="outline"/>
      <g transform="translate(0.0, 45.0)">
        <rect x="-135" y="-15" width="270" height="180" rx="12" fill="var(--panel)" id="ITEM_4_BG" stroke="var(--accent-4)" stroke-width="2"/>
        <text id="ITEM_4_HEAD" text-anchor="middle" font-weight="bold" font-size="27" fill="var(--accent-1)" x="0.0" y="0.0" data-bg-id="ITEM_4_BG" fill-opacity="1.0" style="font-size: 25px; font-family: 'Segoe UI Variable Display', 'Aptos Display', 'Inter', 'Segoe UI', Helvetica, Arial, sans-serif; font-weight: 700; font-kerning: normal; font-feature-settings: &quot;kern&quot; 1, &quot;liga&quot; 1; letter-spacing:-0.4px;" data-final-font-size="25">
          <tspan x="0.0" dy="31.12px">Physical Sensations</tspan>
        </text>
        <rect id="ITEM_4_HEAD_FRAME" x="-120" y="0" width="240" height="51" fill="none"/>
        <text id="ITEM_4_BODY" text-anchor="middle" font-size="19.5" fill="var(--primary-text)" x="0.0" y="60.0" data-bg-id="ITEM_4_BG" style="font-size: 19px; font-family: 'Segoe UI Variable Text', 'Aptos', 'Inter', 'Segoe UI', Helvetica, Arial, sans-serif; font-weight: 400; font-kerning: normal; font-feature-settings: &quot;kern&quot; 1, &quot;liga&quot; 1;" data-final-font-size="19">
          <tspan x="0.0" dy="15.20px">Passengers experience</tspan>
          <tspan x="0.0" dy="23.75px">vibrating noise and</tspan>
          <tspan x="0.0" dy="23.75px">shock-like bodily</tspan>
          <tspan x="0.0" dy="23.75px">sensations</tspan>
        </text>
        <rect id="ITEM_4_BODY_FRAME" x="-120" y="60" width="240" height="95" fill="none"/>
      </g>
      <circle id="ITEM_4_PAD" cx="0" cy="-270" r="50" fill="var(--icon-pad-bg)" stroke="var(--accent-1)" opacity="1" fill-opacity="0.9" stroke-width="2" stroke-opacity="0.72" data-badge-layer="pad"/>
      <circle id="ITEM_4_PAD_INNER" cx="0" cy="-270" r="39.00" fill="var(--accent-1)" fill-opacity="0.12" stroke="none" data-badge-layer="tint"/>
      <circle cx="0" cy="-270" r="40" fill="none" stroke="var(--accent-4)" stroke-width="3" stroke-dasharray="6 4" display="none" data-suppressed-decoration="redundant-badge-ring"/>
      <g id="ITEM_4_ICON" transform="translate(-30.0, -300.0)" data-icon-size="60" stroke-linecap="round" stroke-linejoin="round" data-badge-treatment="clean">
        <g transform="translate(-11.600000000000003,-11.6) scale(0.65)">
          <path fill="#543930" d="M109.4 102.62c-1.62-2.96.45-5.96 3.98-9.68c5.6-5.91 11.7-19.6 6.04-33.51c.03-.08-1.12-2.42-1.08-2.5l-2.34-.12c-.75-.11-26.36-.16-52-.16s-51.25.05-52 .16c0 0-3.45 2.54-3.42 2.61c-5.66 13.91.44 27.6 6.04 33.51c3.53 3.72 5.6 6.73 3.98 9.68c-1.57 2.87-6.26 3.29-6.26 3.29s1.08 2.94 3.69 4.52c2.41 1.46 5.37 1.81 7.42 1.86c0 0 8 11.07 28.92 11.07h23.28c20.92 0 28.92-11.07 28.92-11.07c2.05-.05 5.01-.39 7.42-1.86c2.61-1.58 3.69-4.52 3.69-4.52s-4.7-.41-6.28-3.28"/>
          <path fill="url(#SVGdY9H5bIF)" d="M63.99 123.36v-12.29l37.18-2.94l3.38 4.16s-8 11.07-28.92 11.07z"/>
          <path fill="url(#SVGRjr3JbiW)" d="M104.46 106.93c-5.57-8.46 6.78-11.61 6.78-11.61l.01.01c-2.15 2.67-3.12 5-1.86 7.29c1.57 2.87 6.26 3.29 6.26 3.29s-6.38 5.68-11.19 1.02"/>
          <path fill="url(#SVGOt4A1cYO)" d="M119.45 59.42c5.53 13.47-.29 27.34-5.74 33.19c-.75.8-3.92 3.92-4.64 6.4c0 0-12.42-17.31-16.12-27.49c-.75-2.05-1.43-4.17-1.52-6.35c-.07-1.64.19-3.59 1.13-4.98c1.16-1.71 26.23-2.21 26.23-2.21c0 .02.66 1.44.66 1.44"/>
          <path fill="url(#SVGadeejcri)" d="M8.58 59.42c-5.52 13.47.29 27.34 5.74 33.19c.75.8 3.92 3.92 4.64 6.4c0 0 12.42-17.31 16.12-27.49c.75-2.05 1.43-4.17 1.52-6.35c.07-1.64-.19-3.59-1.13-4.98c-1.16-1.71-2.51-1.25-4.47-1.25c-3.75 0-20.15-.96-21.42-.96c0 .02-1 1.44-1 1.44"/>
          <path fill="url(#SVG92L0meJe)" d="M64.04 123.36v-12.29l-37.18-2.94l-3.38 4.16s8 11.07 28.92 11.07z"/>
          <path fill="url(#SVGSvHQJe3Z)" d="M23.57 106.93c5.57-8.46-6.78-11.61-6.78-11.61l-.01.01c2.15 2.67 3.12 5 1.86 7.29c-1.57 2.87-6.26 3.29-6.26 3.29s6.38 5.68 11.19 1.02"/>
          <path fill="#E59600" d="M99.55 64.37h-71.1c-7.67 0-13.94 6.68-13.94 14.85s6.27 14.85 13.94 14.85h71.11c7.67 0 13.94-6.68 13.94-14.85s-6.28-14.85-13.95-14.85"/>
          <path fill="#FFCA28" d="M64 13.15c-22.64 0-43.61 24.21-43.61 59.06C20.39 106.87 42 124 64 124s43.61-17.13 43.61-51.79c0-34.84-20.97-59.06-43.61-59.06"/>
          <path fill="#E59600" d="M69.02 87.29a1.6 1.6 0 0 0-.42-.11h-9.2c-.14.02-.28.05-.42.11c-.83.34-1.29 1.2-.9 2.12c.4.92 2.23 3.5 5.92 3.5s5.52-2.58 5.92-3.5s-.06-1.78-.9-2.12"/>
          <path fill="#795548" d="M74.95 97.71c-4.14 2.46-17.73 2.46-21.87 0c-2.38-1.42-4.81.75-3.82 2.91c.97 2.12 8.38 7.06 14.79 7.06s13.72-4.93 14.7-7.06c.98-2.16-1.42-4.32-3.8-2.91"/>
          <ellipse cx="42.9" cy="75.23" rx="6.32" ry="6.55"/>
          <ellipse cx="85.1" cy="75.23" rx="6.32" ry="6.55"/>
          <path fill="#6D4C41" d="M52.29 63.47c-1.2-1.59-3.99-3.91-9.39-3.91s-8.19 2.32-9.39 3.91c-.53.71-.4 1.52-.03 2.01c.34.46 1.35.88 2.47.5s3.3-1.51 6.95-1.53c3.65.03 5.84 1.15 6.95 1.53s2.13-.04 2.47-.5c.37-.49.5-1.3-.03-2.01m42.21 0c-1.2-1.59-3.99-3.91-9.39-3.91s-8.19 2.32-9.39 3.91c-.53.71-.4 1.52-.03 2.01c.34.46 1.35.88 2.47.5s3.3-1.51 6.95-1.53c3.65.03 5.84 1.15 6.95 1.53c1.12.38 2.13-.04 2.47-.5c.36-.49.5-1.3-.03-2.01"/>
          <path fill="#543930" d="M116.14 31.41c-3.18-4.81-10.29-11.25-16.68-11.67C98.44 13.6 91.86 8.4 85.5 6.38c-17.21-5.45-28.42.66-34.43 3.94c-1.25.68-9.33 5.16-14.98 1.95c-3.54-2.01-3.47-7.46-3.47-7.46s-11.09 4.22-7.3 16c-3.81.16-8.81 1.76-11.45 7.11c-3.15 6.37-2.03 11.7-1.12 14.25c-3.28 2.78-7.4 8.71-4.57 16.4c2.13 5.79 10.63 8.45 10.63 8.45c-.6 10.42 1.34 16.84 2.37 19.43c.18.45.83.41.94-.06c1.28-5.16 5.68-23.15 5.24-26.29c0 0 14.76-2.93 28.84-13.29c2.87-2.11 5.97-3.91 9.27-5.22c17.68-7.04 21.38 4.97 21.38 4.97s12.25-2.35 15.95 14.67c1.39 6.38 2.33 16.59 3.12 23.73c.06.5.74.61.94.14c1.24-2.83 3.71-8.46 4.3-14.19c.21-2.02 5.65-4.69 7.98-13.35c3.14-11.57-.71-22.68-3-26.15"/>
          <path fill="url(#SVGUAEvgdOr)" d="M111.12 70.95c.21-2.02 5.65-4.69 7.98-13.35c.25-.92.46-1.86.65-2.8c1.9-10.53-1.51-20.19-3.63-23.39c-2.94-4.44-9.24-10.27-15.22-11.46c-.52-.07-1.03-.13-1.51-.16c0 0 .43 2.79-.7 5.02c-1.46 2.89-4.43 3.57-4.43 3.57c15.59 15.59 14.48 28.63 16.86 42.57"/>
          <path fill="url(#SVGHbEfrehY)" d="M54.83 8.35c-1.42.69-2.68 1.38-3.77 1.97c-1.25.68-9.33 5.16-14.98 1.95c-3.48-1.98-3.48-7.26-3.47-7.45c-1.6 2.04-6.44 16.63 7.71 17.6c6.1.42 9.87-4.9 12.09-9.41c.81-1.63 2.08-4.02 2.42-4.66"/>
          <path fill="url(#SVGiVALXc3N)" d="M83.72 5.85c9.52 2.58 14.17 7.42 15.72 13.9c.46 1.9 1 19.62-32.83-.52c-12.58-7.49-9.15-12.18-7.67-12.71c5.75-2.09 14.11-3.56 24.78-.67"/>
          <path fill="url(#SVGeHA2TZmO)" d="M32.57 4.82c-.02.01-.04.02-.08.03h-.01c-1.21.51-10.73 4.91-7.17 15.94l10.13 1.63C26.48 13.35 32.61 4.8 32.61 4.8z"/>
          <path fill="url(#SVGUakULe3y)" d="m31.57 21.81l-6.26-1.01c-.24 0-1.08.08-1.53.14c-3.52.49-7.68 2.31-9.92 6.98c-2.42 5.02-2.35 9.33-1.7 12.21c.19.97.58 2.05.58 2.05s3.1-2.94 10.47-3.13z"/>
          <path fill="url(#SVGxypvjeKx)" d="M12.44 42.42c-3.08 2.74-7.24 8.84-4.17 16.4c2.31 5.71 10.53 8.19 10.53 8.19c0 .03 1.64.51 2.49.51l1.92-28.49c-3.94 0-7.72 1.18-10.17 2.88c.02.06-.61.47-.6.51"/>
        </g>
      </g>
    </g>
    <g transform="translate(1650.0, 675.0)">
      <line x1="0" y1="0" x2="0" y2="-150" stroke="var(--primary-text)" stroke-width="2"/>
      <circle id="ITEM_5_NODE" cx="0" cy="-150" r="50" fill="var(--background)" stroke="var(--accent-2)" stroke-width="2" stroke-opacity="0.58" data-badge-layer="outline"/>
      <g transform="translate(0.0, 45.0)">
        <rect x="-135" y="-15" width="270" height="180" rx="12" fill="var(--panel)" id="ITEM_5_BG" stroke="var(--accent-5)" stroke-width="2"/>
        <text id="ITEM_5_HEAD" text-anchor="middle" font-weight="bold" font-size="27" fill="var(--accent-2)" x="0.0" y="0.0" data-bg-id="ITEM_5_BG" fill-opacity="1.0" style="font-size: 31px; font-family: 'Segoe UI Variable Display', 'Aptos Display', 'Inter', 'Segoe UI', Helvetica, Arial, sans-serif; font-weight: 700; font-kerning: normal; font-feature-settings: &quot;kern&quot; 1, &quot;liga&quot; 1; letter-spacing:-0.4px;" data-final-font-size="31">
          <tspan x="0.0" dy="34.02px">Vehicle Restart</tspan>
        </text>
        <rect id="ITEM_5_HEAD_FRAME" x="-120" y="0" width="240" height="51" fill="none"/>
        <text id="ITEM_5_BODY" text-anchor="middle" font-size="19.5" fill="var(--primary-text)" x="0.0" y="60.0" data-bg-id="ITEM_5_BG" style="font-size: 22px; font-family: 'Segoe UI Variable Text', 'Aptos', 'Inter', 'Segoe UI', Helvetica, Arial, sans-serif; font-weight: 400; font-kerning: normal; font-feature-settings: &quot;kern&quot; 1, &quot;liga&quot; 1;" data-final-font-size="22">
          <tspan x="0.0" dy="21.42px">The car starts</tspan>
          <tspan x="0.0" dy="25.30px">normally after</tspan>
          <tspan x="0.0" dy="25.30px">reaching a nearby home</tspan>
        </text>
        <rect id="ITEM_5_BODY_FRAME" x="-120" y="60" width="240" height="95" fill="none"/>
      </g>
      <circle id="ITEM_5_PAD" cx="0" cy="-150" r="50" fill="var(--icon-pad-bg)" stroke="var(--accent-2)" opacity="1" fill-opacity="0.9" stroke-width="2" stroke-opacity="0.72" data-badge-layer="pad"/>
      <circle id="ITEM_5_PAD_INNER" cx="0" cy="-150" r="39.00" fill="var(--accent-2)" fill-opacity="0.12" stroke="none" data-badge-layer="tint"/>
      <circle cx="0" cy="-150" r="40" fill="none" stroke="var(--accent-5)" stroke-width="3" stroke-dasharray="6 4" display="none" data-suppressed-decoration="redundant-badge-ring"/>
      <g id="ITEM_5_ICON" transform="translate(-30.0, -180.0)" data-icon-size="60" stroke-linecap="round" stroke-linejoin="round" data-badge-treatment="clean">
        <g transform="translate(-14.571428571428571,-14.571428571428571) scale(2.7857142857142856)">
          <path d="M3.2359 5.89697L6.00835 8.66735C6.26317 8.92198 6.66069 8.92198 6.91551 8.66735L8.66867 6.91549C8.92349 6.66086 8.92349 6.26364 8.66867 6.00901L5.89623 3.23862C5.53948 2.88214 5.71276 2.28121 6.19182 2.15899C7.96537 1.72102 9.92239 2.18954 11.329 3.54418C12.8928 5.05575 13.3617 7.28456 12.7243 9.22843L22.7212 19.2909C24.6418 18.6406 26.8528 19.0802 28.387 20.6132C29.7936 22.0188 30.2828 24.0049 29.8445 25.8178C29.7222 26.2864 29.1208 26.4595 28.7641 26.103L25.9917 23.3326C25.7368 23.078 25.3393 23.078 25.0845 23.3326L23.3313 25.0845C23.0765 25.3391 23.0765 25.7364 23.3313 25.991L26.1038 28.7614C26.4605 29.1179 26.2872 29.7188 25.8082 29.841C24.0346 30.279 22.0776 29.8105 20.671 28.4558C19.1243 26.9608 18.6487 24.7642 19.2552 22.8355L9.2093 12.7321C7.30512 13.3486 5.12872 12.9014 3.61304 11.3868C2.20643 9.98124 1.71717 7.99512 2.15546 6.18215C2.27778 5.71363 2.87915 5.54048 3.2359 5.89697Z" fill="#B4ACBC"/>
        </g>
      </g>
    </g>
    <line id="PHX_SEQUENCE_MIDROUTE_ARROW_1" x1="932.0" y1="675.0" x2="988.0" y2="675.0" stroke="var(--muted-text)" opacity="0.92" stroke-width="5" stroke-linecap="round" marker-end="url(#svgf89d9dc3-PHX_SEQUENCE_DIRECTION_ARROW)" data-direction-cue="forward"/>
  </g>
  <text id="SOURCE_NOTE" x="134.0" y="1058.0" fill="var(--muted-text)" opacity="0.88" style="font-family: var(--font-family); font-size: 20px;">Source: Introduction</text>
  <text id="EDITORIAL_NOTE" x="1786.0" y="1058.0" fill="var(--semantic-uncertain)" opacity="0.92" style="font-family: var(--font-family); font-size: 20px;" text-anchor="end">Interpretations remain disputed; wording reflects source uncertainty.</text>
</svg>
