<?xml version='1.0' encoding='utf-8'?>
<svg xmlns="http://www.w3.org/2000/svg" width="1920" height="1080" viewBox="0 0 1920 1080" data-theme="light" data-semantic-intent="taxonomy_list" data-relation-type="taxonomy" data-site-visual-identity="signal-cobalt">
  <style>
        @font-face {
            font-family: 'Inter';
            src: url('assets/fonts/Inter-Regular.ttf') format('truetype');
            font-weight: 400;
            font-style: normal;
            font-display: swap;
        }
        @font-face {
            font-family: 'Inter';
            src: url('assets/fonts/Inter-Bold.ttf') format('truetype');
            font-weight: 600;
            font-style: normal;
            font-display: swap;
        }
        @font-face {
            font-family: 'Inter';
            src: url('assets/fonts/Inter-Bold.ttf') format('truetype');
            font-weight: 800;
            font-style: normal;
            font-display: swap;
        }
        
:root {
    --background: #f8fafc;
    --panel: #ffffff;
    --primary-text: #0f172a;
    --muted-text: #64748b;
    --inverse-text: #ffffff;
    --border: #e2e8f0;
    --shadow-color: #000000;
    --icon-pad-bg: #1e293b;
    --art-glow: #0891b2;
    --art-glow-opacity: 0.10;
    --art-sheen: #ffffff;
    --art-sheen-opacity: 0.34;
    --art-shadow: #0f172a;
    --art-shadow-opacity: 0.14;
    --art-muted-line: #94a3b8;
    --art-panel-tint: #f1f5f9;
    --semantic-risk: #b91c1c;
    --semantic-warning: #c2410c;
    --semantic-uncertain: #a16207;
    --semantic-evidence: #1d4ed8;
    --semantic-claim: #6d28d9;
    --semantic-positive: #15803d;
    --semantic-outcome: #0e7490;
    --font-family: 'Inter', 'Segoe UI', 'Kalam', Roboto, Helvetica, Arial, sans-serif;
    --radius-xl: 16px;
    --font-family-headline: 'Segoe UI Variable Display', 'Aptos Display', 'Inter', 'Segoe UI', Helvetica, Arial, sans-serif;
    --font-family-body: 'Segoe UI Variable Text', 'Aptos', 'Inter', 'Segoe UI', Helvetica, Arial, sans-serif;
    --font-heading: var(--font-family-headline);
    --font-body: var(--font-family-body);
    --font-size-h1: 64px;
    --font-size-h2: 42px;
    --font-size-h3: 29px;
    --font-size-body: 21px;
    --font-size-caption: 17px;
    --secondary-text: var(--muted-text);
    --panel-border: var(--border);
    --font-weight-normal: 400;
    --font-weight-medium: 500;
    --font-weight-semibold: 600;
    --font-weight-bold: 700;
    --spacing-gutter-pct: 0.07;
    --spacing-top-pct: 0.15;
    --spacing-bottom-pct: 0.07;
    --spacing-title-y-pct: 0.055;
    --accent-1: #1d4ed8;
    --accent-2: #2563eb;
    --accent-3: #4f46e5;
    --accent-4: #6d28d9;
    --accent-5: #0369a1;
    --accent-6: #c2410c;
}
:root[data-theme="dark"] {
    --background: #0f172a;
    --panel: #1e293b;
    --primary-text: #f1f5f9;
    --muted-text: #94a3b8;
    --inverse-text: #0f172a;
    --border: #334155;
    --shadow-color: #000000;
    --icon-pad-bg: #1e293b;
    --art-glow: #7dd3fc;
    --art-glow-opacity: 0.18;
    --art-sheen: #ffffff;
    --art-sheen-opacity: 0.18;
    --art-shadow: #000000;
    --art-shadow-opacity: 0.28;
    --art-muted-line: #64748b;
    --art-panel-tint: #1e293b;
    --semantic-risk: #f87171;
    --semantic-warning: #fb923c;
    --semantic-uncertain: #fbbf24;
    --semantic-evidence: #60a5fa;
    --semantic-claim: #c084fc;
    --semantic-positive: #4ade80;
    --semantic-outcome: #22d3ee;
    --accent-1: #93c5fd;
    --accent-2: #60a5fa;
    --accent-3: #818cf8;
    --accent-4: #a78bfa;
    --accent-5: #38bdf8;
    --accent-6: #fb923c;
}
:root[data-theme="light"] {
    --background: #f8fafc;
    --panel: #ffffff;
    --primary-text: #0f172a;
    --muted-text: #64748b;
    --inverse-text: #ffffff;
    --border: #e2e8f0;
    --shadow-color: #000000;
    --icon-pad-bg: #1e293b;
    --art-glow: #0891b2;
    --art-glow-opacity: 0.10;
    --art-sheen: #ffffff;
    --art-sheen-opacity: 0.34;
    --art-shadow: #0f172a;
    --art-shadow-opacity: 0.14;
    --art-muted-line: #94a3b8;
    --art-panel-tint: #f1f5f9;
    --semantic-risk: #b91c1c;
    --semantic-warning: #c2410c;
    --semantic-uncertain: #a16207;
    --semantic-evidence: #1d4ed8;
    --semantic-claim: #6d28d9;
    --semantic-positive: #15803d;
    --semantic-outcome: #0e7490;
    --accent-1: #1d4ed8;
    --accent-2: #2563eb;
    --accent-3: #4f46e5;
    --accent-4: #6d28d9;
    --accent-5: #0369a1;
    --accent-6: #c2410c;
}</style>
  <rect x="0" y="0" width="1.92E+3" height="1.08E+3" fill="#252a34" stroke="none" id="programmatic_background"/>
  <line id="HEADER_DECOR" x1="960.0" x2="1080.0" y1="90.0" y2="90.0" stroke="var(--accent-1)" stroke-width="6" stroke-linecap="round"/>
  <defs>
    <pattern id="svgd63f26a0-napkin-hatch" patternUnits="userSpaceOnUse" width="12" height="12">
      <path d="M -3 12 L 12 -3 M 0 15 L 15 0" fill="none" stroke="var(--primary-text)" stroke-width="1" stroke-opacity="0.05"/>
    </pattern>
    <filter id="svgd63f26a0-shadow" x="-30%" y="-30%" width="160%" height="160%">
      <feDropShadow dx="0" dy="2" stdDeviation="3" flood-color="#000000" flood-opacity="0.08"/>
      <feDropShadow dx="0" dy="6" stdDeviation="10" flood-color="#000000" flood-opacity="0.12"/>
    </filter>
    <radialGradient id="svgd63f26a0-universal-edge-vignette" cx="50%" cy="50%" r="72%">
      <stop offset="0%" stop-color="var(--background)" stop-opacity="0"/>
      <stop offset="72%" stop-color="var(--background)" stop-opacity="0.12"/>
      <stop offset="100%" stop-color="var(--primary-text)" stop-opacity="0.08"/>
    </radialGradient>
    <linearGradient id="svgd63f26a0-universal-surface-sheen" x1="0%" y1="0%" x2="100%" y2="100%">
      <stop offset="0%" stop-color="var(--art-sheen)" stop-opacity="var(--art-sheen-opacity)"/>
      <stop offset="46%" stop-color="var(--art-sheen)" stop-opacity="0.035"/>
      <stop offset="100%" stop-color="var(--art-panel-tint)" stop-opacity="0.14"/>
    </linearGradient>
    <radialGradient id="svgd63f26a0-universal-icon-aura" cx="50%" cy="42%" r="64%">
      <stop offset="0%" stop-color="var(--art-glow)" stop-opacity="var(--art-glow-opacity)"/>
      <stop offset="100%" stop-color="var(--background)" stop-opacity="0"/>
    </radialGradient>
    <radialGradient id="svgd63f26a0-venn-center-glow" cx="50%" cy="50%" r="60%">
      <stop offset="0%" stop-color="var(--art-glow)" stop-opacity="var(--art-glow-opacity)"/>
      <stop offset="100%" stop-color="var(--background)" stop-opacity="0"/>
    </radialGradient>
    <linearGradient id="svgd63f26a0-venn-label-sheen" x1="0%" y1="0%" x2="100%" y2="100%">
      <stop offset="0%" stop-color="var(--inverse-text)" stop-opacity="0.14"/>
      <stop offset="100%" stop-color="var(--background)" stop-opacity="0.12"/>
    </linearGradient>
    <filter id="svgd63f26a0-text-glow" x="-20%" y="-20%" width="140%" height="140%">
      <feDropShadow dx="0" dy="0" stdDeviation="2" flood-color="#000000" flood-opacity="0.4"/>
    </filter>
    <marker id="svgd63f26a0-arrowhead" markerWidth="10" markerHeight="7" refX="9" refY="3.5" orient="auto" markerUnits="strokeWidth">
      <polygon points="0 0, 10 3.5, 0 7" fill="var(--muted-text)" opacity="0.6"/>
    </marker>
  </defs>
  <rect width="100%" height="100%" fill="var(--background)" id="CANVAS_BG"/>
  <rect width="100%" height="100%" fill="url(#svgd63f26a0-napkin-hatch)"/>
  <rect id="UNIVERSAL_EDGE_VIGNETTE" width="100%" height="100%" fill="url(#svgd63f26a0-universal-edge-vignette)" opacity="0.62"/>
  <text id="TITLE" x="960.0" y="59" text-anchor="middle" font-weight="800" font-size="50" fill="#0f172a" style="font-size: 69px; font-family: 'Segoe UI Variable Display', 'Aptos Display', 'Inter', 'Segoe UI', Helvetica, Arial, sans-serif; font-weight: 800; font-kerning: normal; font-feature-settings: &quot;kern&quot; 1, &quot;liga&quot; 1; letter-spacing:-1.2px;" data-final-font-size="69">
    <tspan x="960.0" dy="70.47px">Factors Influencing Reporting Volume</tspan>
  </text>
  <rect id="TITLE_FRAME" x="134" y="30" width="1652" height="70" fill="none"/>
  <g id="DIAGRAM_MAIN" transform="translate(960, 580)">
    <circle id="VENN_ART_CENTER_GLOW" cx="0" cy="0" r="255" fill="url(#svgd63f26a0-venn-center-glow)" opacity="0.95"/>
    <circle cx="0" cy="0" r="255" fill="url(#svgd63f26a0-venn-center-glow)" opacity="0.95"/>
    <circle cx="0" cy="0" r="255" fill="url(#svgd63f26a0-venn-center-glow)" opacity="0.95"/>
    <circle cx="0" cy="0" r="255" fill="url(#svgd63f26a0-venn-center-glow)" opacity="0.95"/>
    <circle cx="0" cy="0" r="255" fill="url(#svgd63f26a0-venn-center-glow)" opacity="0.95"/>
    <circle cx="0" cy="0" r="255" fill="url(#svgd63f26a0-venn-center-glow)" opacity="0.95"/>
    <circle cx="0" cy="0" r="255" fill="url(#svgd63f26a0-venn-center-glow)" opacity="0.95"/>
    <circle cx="0" cy="0" r="255" fill="url(#svgd63f26a0-venn-center-glow)" opacity="0.95"/>
    <circle cx="0" cy="0" r="255" fill="url(#svgd63f26a0-venn-center-glow)" opacity="0.95"/>
    <circle cx="0" cy="0" r="255" fill="url(#svgd63f26a0-venn-center-glow)" opacity="0.95"/>
    <circle cx="0" cy="0" r="255" fill="url(#svgd63f26a0-venn-center-glow)" opacity="0.95"/>
    <circle cx="0" cy="0" r="255" fill="url(#svgd63f26a0-venn-center-glow)" opacity="0.95"/>
    <circle cx="0" cy="0" r="255" fill="url(#svgd63f26a0-venn-center-glow)" opacity="0.95"/>
    <circle cx="0" cy="0" r="255" fill="url(#svgd63f26a0-venn-center-glow)" opacity="0.95"/>
    <circle cx="0" cy="0" r="255" fill="url(#svgd63f26a0-venn-center-glow)" opacity="0.95"/>
    <circle cx="0" cy="0" r="255" fill="url(#svgd63f26a0-venn-center-glow)" opacity="0.95"/>
    <circle cx="0" cy="0" r="255" fill="url(#svgd63f26a0-venn-center-glow)" opacity="0.95"/>
    <circle cx="0" cy="0" r="255" fill="url(#svgd63f26a0-venn-center-glow)" opacity="0.95"/>
    <circle cx="0" cy="0" r="255" fill="url(#svgd63f26a0-venn-center-glow)" opacity="0.95"/>
    <circle cx="0" cy="0" r="255" fill="url(#svgd63f26a0-venn-center-glow)" opacity="0.95"/>
    <circle cx="0" cy="0" r="255" fill="url(#svgd63f26a0-venn-center-glow)" opacity="0.95"/>
    <circle cx="0" cy="0" r="255" fill="url(#svgd63f26a0-venn-center-glow)" opacity="0.95"/>
    <circle cx="0" cy="0" r="255" fill="url(#svgd63f26a0-venn-center-glow)" opacity="0.95"/>
    <circle cx="0" cy="0" r="255" fill="url(#svgd63f26a0-venn-center-glow)" opacity="0.95"/>
    <circle cx="0" cy="0" r="255" fill="url(#svgd63f26a0-venn-center-glow)" opacity="0.95"/>
    <circle cx="0" cy="0" r="255" fill="url(#svgd63f26a0-venn-center-glow)" opacity="0.95"/>
    <!-- Circle backgrounds (pentagon arrangement) -->
    <!-- r=120, center offset 140 from origin -->
    <circle id="ITEM_1_BG" cx="0" cy="-140" r="180" fill="var(--accent-1)" fill-opacity="1.0" stroke="var(--border)" stroke-width="2"/>
    <circle id="ITEM_2_BG" cx="133" cy="-43" r="180" fill="var(--accent-2)" fill-opacity="1.0" stroke="var(--border)" stroke-width="2"/>
    <circle id="ITEM_3_BG" cx="82" cy="113" r="180" fill="var(--accent-3)" fill-opacity="1.0" stroke="var(--border)" stroke-width="2"/>
    <circle id="ITEM_4_BG" cx="-82" cy="113" r="180" fill="var(--accent-1)" fill-opacity="1.0" stroke="var(--border)" stroke-width="2"/>
    <circle id="ITEM_5_BG" cx="-133" cy="-43" r="180" fill="var(--accent-2)" fill-opacity="1.0" stroke="var(--border)" stroke-width="2"/>
    <!-- ITEM 1 - Top -->
    <circle id="ITEM_1_PAD" cx="0" cy="-270" r="48" fill="var(--icon-pad-bg)" stroke="var(--accent-1)" opacity="1" fill-opacity="0.9" stroke-width="2" stroke-opacity="0.72" data-badge-layer="pad"/>
    <circle id="ITEM_1_PAD_INNER" cx="0" cy="-270" r="37.44" fill="var(--accent-1)" fill-opacity="0.12" stroke="none" data-badge-layer="tint"/>
    <circle cx="0" cy="-270" r="38" fill="none" stroke="var(--accent-1)" stroke-width="3" stroke-dasharray="6 4" display="none" data-suppressed-decoration="redundant-badge-ring"/>
    <g id="ITEM_1_ICON" transform="translate(-27, -297)" data-icon-size="54" stroke-linecap="round" stroke-linejoin="round" data-badge-treatment="clean">
      <g transform="translate(-15.409911504424775,-15.741238938053094) scale(2.6506194690265485)">
        <path d="M10.3535 3.06063C10.1582 2.86537 10.1582 2.54879 10.3535 2.35352C10.5487 2.15826 10.8653 2.15826 11.0606 2.35352L14.9497 6.24261L14.2426 6.94972L10.3535 3.06063Z" fill="#636363"/>
        <path d="M18.889 2.35348C19.0842 2.15822 19.4008 2.15822 19.5961 2.35348C19.7914 2.54874 19.7914 2.86532 19.5961 3.06058L15.707 6.94967L14.9999 6.24257L18.889 2.35348Z" fill="#636363"/>
        <path d="M11.0002 23.5L8.00024 23L6.46544 28.7279C6.31248 29.2987 6.65125 29.8855 7.22209 30.0385C7.73725 30.1765 8.2754 29.9141 8.48393 29.4232L11.0002 23.5Z" fill="#636363"/>
        <path d="M21.0002 23.5L24.0002 23L25.535 28.7279C25.688 29.2987 25.3492 29.8855 24.7784 30.0385C24.2632 30.1765 23.7251 29.9141 23.5165 29.4232L21.0002 23.5Z" fill="#636363"/>
        <path d="M3 9C3 7.34315 4.34315 6 6 6H26C27.6569 6 29 7.34315 29 9V22C29 23.6569 27.6569 25 26 25H6C4.34315 25 3 23.6569 3 22V9Z" fill="#9B9B9B"/>
        <circle cx="25.75" cy="13.25" r="1.25" fill="#CA0B4A"/>
        <circle cx="25.75" cy="9.25" r="1.25" fill="#636363"/>
        <path d="M6.5 11.5C6.5 10.3954 7.39543 9.5 8.5 9.5H20.5C21.6046 9.5 22.5 10.3954 22.5 11.5V19.5C22.5 20.6046 21.6046 21.5 20.5 21.5H8.5C7.39543 21.5 6.5 20.6046 6.5 19.5V11.5Z" fill="#83CBFF"/>
        <path d="M21 10C21.5523 10 22 10.4477 22 11V20C22 20.5523 21.5523 21 21 21H8C7.44772 21 7 20.5523 7 20V11C7 10.4477 7.44772 10 8 10H21ZM8 9C6.89543 9 6 9.89543 6 11V20C6 21.1046 6.89543 22 8 22H21C22.1046 22 23 21.1046 23 20V11C23 9.89543 22.1046 9 21 9H8Z" fill="#321B41"/>
      </g>
    </g>
    <rect id="ITEM_1_TEXT_BG" x="-208.0" y="-236.0" width="416.0" height="184.0" rx="16" fill="var(--panel)" fill-opacity="0.94" stroke="var(--primary-text)" stroke-opacity="0.12" stroke-width="1.5"/>
    <rect x="-208.0" y="-236.0" width="416.0" height="184.0" rx="16" fill="url(#svgd63f26a0-venn-label-sheen)" opacity="0.85"/>
    <text id="ITEM_1_HEAD" x="0.0" y="-220.0" text-anchor="middle" font-weight="bold" font-size="34" fill="var(--accent-1)" data-bg-id="ITEM_1_TEXT_BG" opacity="0.98" fill-opacity="1.0" style="font-size: 31px; font-family: 'Segoe UI Variable Display', 'Aptos Display', 'Inter', 'Segoe UI', Helvetica, Arial, sans-serif; font-weight: 700; font-kerning: normal; font-feature-settings: &quot;kern&quot; 1, &quot;liga&quot; 1; letter-spacing:-0.4px;" data-final-font-size="31">
      <tspan x="0.0" dy="31.52px">Media Attention</tspan>
    </text>
    <rect id="ITEM_1_HEAD_FRAME" x="-170" y="-220" width="340" height="46" fill="none"/>
    <text id="ITEM_1_BODY" x="0.0" y="-168.0" text-anchor="middle" font-size="20" fill="var(--primary-text)" data-bg-id="ITEM_1_TEXT_BG" style="font-size: 23px; font-family: 'Segoe UI Variable Text', 'Aptos', 'Inter', 'Segoe UI', Helvetica, Arial, sans-serif; font-weight: 400; font-kerning: normal; font-feature-settings: &quot;kern&quot; 1, &quot;liga&quot; 1;" data-final-font-size="23">
      <tspan x="0.0" dy="27.82px">Publicity encourages more people</tspan>
      <tspan x="0.0" dy="26.45px">to report sightings</tspan>
    </text>
    <rect id="ITEM_1_BODY_FRAME" x="-190" y="-168" width="380" height="100" fill="none"/>
    <!-- ITEM 2 - Top Right -->
    <circle id="ITEM_2_PAD" cx="256" cy="-83" r="48" fill="var(--icon-pad-bg)" stroke="var(--accent-2)" opacity="1" fill-opacity="0.9" stroke-width="2" stroke-opacity="0.72" data-badge-layer="pad"/>
    <circle id="ITEM_2_PAD_INNER" cx="256" cy="-83" r="37.44" fill="var(--accent-2)" fill-opacity="0.12" stroke="none" data-badge-layer="tint"/>
    <circle cx="256" cy="-83" r="38" fill="none" stroke="var(--accent-2)" stroke-width="3" stroke-dasharray="6 4" display="none" data-suppressed-decoration="redundant-badge-ring"/>
    <g id="ITEM_2_ICON" transform="translate(229, -110)" data-icon-size="54" stroke-linecap="round" stroke-linejoin="round" data-badge-treatment="clean">
      <g transform="translate(-17.37333333333333,-19.106666666666666) scale(3.6977777777777776)" vector-effect="non-scaling-stroke" stroke-width="2.36" stroke-linecap="round" stroke-linejoin="round" stroke-opacity="1.0">
        <path d="M3 6h18" vector-effect="non-scaling-stroke" fill="none" stroke="#f1f5f9"/>
        <path d="M4 6v13" vector-effect="non-scaling-stroke" fill="none" stroke="#f1f5f9"/>
        <path d="M20 19v-13" vector-effect="non-scaling-stroke" fill="none" stroke="#f1f5f9"/>
        <path d="M4 10h16" vector-effect="non-scaling-stroke" fill="none" stroke="#f1f5f9"/>
        <path d="M15 6v8a2 2 0 0 0 2 2h3" vector-effect="non-scaling-stroke" fill="none" stroke="#f1f5f9"/>
      </g>
    </g>
    <rect id="ITEM_2_TEXT_BG" x="322.0" y="-156.0" width="416.0" height="204.0" rx="16" fill="var(--panel)" fill-opacity="0.94" stroke="var(--primary-text)" stroke-opacity="0.12" stroke-width="1.5"/>
    <rect x="322.0" y="-156.0" width="416.0" height="204.0" rx="16" fill="url(#svgd63f26a0-venn-label-sheen)" opacity="0.85"/>
    <text id="ITEM_2_HEAD" x="340.0" y="-140.0" text-anchor="start" font-weight="bold" font-size="34" fill="var(--accent-2)" data-bg-id="ITEM_2_TEXT_BG" opacity="0.98" fill-opacity="1.0" style="font-size: 26px; font-family: 'Segoe UI Variable Display', 'Aptos Display', 'Inter', 'Segoe UI', Helvetica, Arial, sans-serif; font-weight: 700; font-kerning: normal; font-feature-settings: &quot;kern&quot; 1, &quot;liga&quot; 1; letter-spacing:-0.4px;" data-final-font-size="26">
      <tspan x="340.0" dy="29.85px">Active Investigation</tspan>
    </text>
    <rect id="ITEM_2_HEAD_FRAME" x="340" y="-140" width="260" height="48" fill="none"/>
    <text id="ITEM_2_BODY" x="340.0" y="-88.0" text-anchor="start" font-size="20" fill="var(--primary-text)" data-bg-id="ITEM_2_TEXT_BG" style="font-size: 23px; font-family: 'Segoe UI Variable Text', 'Aptos', 'Inter', 'Segoe UI', Helvetica, Arial, sans-serif; font-weight: 400; font-kerning: normal; font-feature-settings: &quot;kern&quot; 1, &quot;liga&quot; 1;" data-final-font-size="23">
      <tspan x="340.0" dy="31.82px">Local groups provide a clear</tspan>
      <tspan x="340.0" dy="26.45px">reporting destination</tspan>
    </text>
    <rect id="ITEM_2_BODY_FRAME" x="340" y="-88" width="380" height="120" fill="none"/>
    <!-- ITEM 3 - Bottom Right -->
    <circle id="ITEM_3_PAD" cx="158" cy="220" r="48" fill="var(--icon-pad-bg)" stroke="var(--accent-3)" opacity="1" fill-opacity="0.9" stroke-width="2" stroke-opacity="0.72" data-badge-layer="pad"/>
    <circle id="ITEM_3_PAD_INNER" cx="158" cy="220" r="37.44" fill="var(--accent-3)" fill-opacity="0.12" stroke="none" data-badge-layer="tint"/>
    <circle cx="158" cy="220" r="38" fill="none" stroke="var(--accent-3)" stroke-width="3" stroke-dasharray="6 4" display="none" data-suppressed-decoration="redundant-badge-ring"/>
    <g id="ITEM_3_ICON" transform="translate(131, 193)" data-icon-size="54" stroke-linecap="round" stroke-linejoin="round" data-badge-treatment="clean">
      <g transform="translate(-15.788571428571426,-15.788571428571426) scale(2.674285714285714)">
        <path d="M2 9.00001L15.2666 6.15716C15.7501 6.05357 16.2499 6.05357 16.7334 6.15716L30 9.00001V24.8C30 27.6719 27.6719 30 24.8 30H7.2C4.32812 30 2 27.6719 2 24.8V9.00001Z" fill="#B4ACBC"/>
        <path d="M3 8.00005L15.213 5.18167C15.7309 5.06216 16.2691 5.06216 16.787 5.18167L29 8.00005V24.5001C29 26.9853 26.9853 29.0001 24.5 29.0001H7.5C5.01472 29.0001 3 26.9853 3 24.5001V8.00005Z" fill="#F3EEF8"/>
        <path d="M7.9998 12C7.88935 12 7.7998 12.0895 7.7998 12.2V14.8C7.7998 14.9105 7.88935 15 7.9998 15H10.7998C10.9103 15 10.9998 14.9105 10.9998 14.8V12.2C10.9998 12.0895 10.9103 12 10.7998 12H7.9998Z" fill="#998EA4"/>
        <path d="M7.9998 17.5C7.88935 17.5 7.7998 17.5895 7.7998 17.7V20.3C7.7998 20.4105 7.88935 20.5 7.9998 20.5H10.7998C10.9103 20.5 10.9998 20.4105 10.9998 20.3V17.7C10.9998 17.5895 10.9103 17.5 10.7998 17.5H7.9998Z" fill="#998EA4"/>
        <path d="M7.7998 23.1C7.7998 22.9896 7.88935 22.9 7.9998 22.9H10.7998C10.9103 22.9 10.9998 22.9896 10.9998 23.1V25.7C10.9998 25.8105 10.9103 25.9 10.7998 25.9H7.9998C7.88935 25.9 7.7998 25.8105 7.7998 25.7V23.1Z" fill="#998EA4"/>
        <path d="M14.5998 12C14.4893 12 14.3998 12.0895 14.3998 12.2V14.8C14.3998 14.9105 14.4893 15 14.5998 15H17.3998C17.5102 15 17.5998 14.9105 17.5998 14.8V12.2C17.5998 12.0895 17.5102 12 17.3998 12H14.5998Z" fill="#998EA4"/>
        <path d="M14.3998 17.7C14.3998 17.5895 14.4893 17.5 14.5998 17.5H17.3998C17.5102 17.5 17.5998 17.5895 17.5998 17.7V20.3C17.5998 20.4105 17.5102 20.5 17.3998 20.5H14.5998C14.4893 20.5 14.3998 20.4105 14.3998 20.3V17.7Z" fill="#998EA4"/>
        <path d="M14.5998 22.9C14.4893 22.9 14.3998 22.9896 14.3998 23.1V25.7C14.3998 25.8105 14.4893 25.9 14.5998 25.9H17.3998C17.5102 25.9 17.5998 25.8105 17.5998 25.7V23.1C17.5998 22.9896 17.5102 22.9 17.3998 22.9H14.5998Z" fill="#998EA4"/>
        <path d="M20.9998 12.2C20.9998 12.0895 21.0894 12 21.1998 12H23.9998C24.1103 12 24.1998 12.0895 24.1998 12.2V14.8C24.1998 14.9105 24.1103 15 23.9998 15H21.1998C21.0894 15 20.9998 14.9105 20.9998 14.8V12.2Z" fill="#998EA4"/>
        <path d="M21.1998 22.9C21.0894 22.9 20.9998 22.9896 20.9998 23.1V25.7C20.9998 25.8105 21.0894 25.9 21.1998 25.9H23.9998C24.1103 25.9 24.1998 25.8105 24.1998 25.7V23.1C24.1998 22.9896 24.1103 22.9 23.9998 22.9H21.1998Z" fill="#998EA4"/>
        <path d="M7.2 2C4.32812 2 2 4.32812 2 7.2V9H30V7.2C30 4.32812 27.6719 2 24.8 2H7.2Z" fill="#0084CE"/>
        <path d="M21.2 17.5C21.0895 17.5 21 17.5895 21 17.7V20.3C21 20.4105 21.0895 20.5 21.2 20.5H24C24.1105 20.5 24.2 20.4105 24.2 20.3V17.7C24.2 17.5895 24.1105 17.5 24 17.5H21.2Z" fill="#0084CE"/>
      </g>
    </g>
    <rect id="ITEM_3_TEXT_BG" x="224.0" y="154.0" width="416.0" height="202.0" rx="16" fill="var(--panel)" fill-opacity="0.94" stroke="var(--primary-text)" stroke-opacity="0.12" stroke-width="1.5"/>
    <rect x="224.0" y="154.0" width="416.0" height="202.0" rx="16" fill="url(#svgd63f26a0-venn-label-sheen)" opacity="0.85"/>
    <text id="ITEM_3_HEAD" x="242.0" y="170.0" text-anchor="start" font-weight="bold" font-size="34" fill="var(--accent-3)" data-bg-id="ITEM_3_TEXT_BG" opacity="0.98" fill-opacity="1.0" style="font-size: 23px; font-family: 'Segoe UI Variable Display', 'Aptos Display', 'Inter', 'Segoe UI', Helvetica, Arial, sans-serif; font-weight: 700; font-kerning: normal; font-feature-settings: &quot;kern&quot; 1, &quot;liga&quot; 1; letter-spacing:-0.4px;" data-final-font-size="23">
      <tspan x="242.0" dy="29.18px">Retrospective Reporting</tspan>
    </text>
    <rect id="ITEM_3_HEAD_FRAME" x="242" y="170" width="260" height="48" fill="none"/>
    <text id="ITEM_3_BODY" x="242.0" y="220.0" text-anchor="start" font-size="20" fill="var(--primary-text)" data-bg-id="ITEM_3_TEXT_BG" style="font-size: 23px; font-family: 'Segoe UI Variable Text', 'Aptos', 'Inter', 'Segoe UI', Helvetica, Arial, sans-serif; font-weight: 400; font-kerning: normal; font-feature-settings: &quot;kern&quot; 1, &quot;liga&quot; 1;" data-final-font-size="23">
      <tspan x="242.0" dy="31.82px">Older incidents are submitted</tspan>
      <tspan x="242.0" dy="26.45px">into later data bases</tspan>
    </text>
    <rect id="ITEM_3_BODY_FRAME" x="242" y="220" width="380" height="120" fill="none"/>
    <!-- ITEM 4 - Bottom Left -->
    <circle id="ITEM_4_PAD" cx="-158" cy="220" r="48" fill="var(--icon-pad-bg)" stroke="var(--accent-1)" opacity="1" fill-opacity="0.9" stroke-width="2" stroke-opacity="0.72" data-badge-layer="pad"/>
    <circle id="ITEM_4_PAD_INNER" cx="-158" cy="220" r="37.44" fill="var(--accent-1)" fill-opacity="0.12" stroke="none" data-badge-layer="tint"/>
    <circle cx="-158" cy="220" r="38" fill="none" stroke="var(--accent-4)" stroke-width="3" stroke-dasharray="6 4" display="none" data-suppressed-decoration="redundant-badge-ring"/>
    <g id="ITEM_4_ICON" transform="translate(-185, 193)" data-icon-size="54" stroke-linecap="round" stroke-linejoin="round" data-badge-treatment="clean">
      <g transform="translate(-15.788571428571426,-15.119999999999994) scale(2.674285714285714)">
        <path d="M25.0642 23.4047L23.9155 20.598L22.2011 21.2996L23.3511 24.1097L23.3525 24.113C23.5183 24.5137 23.3281 24.9545 22.9426 25.1096L18.0368 27.1219L18.0342 27.123C17.6335 27.2888 17.1927 27.0987 17.0376 26.7132L15.8855 23.898L14.1711 24.5997L15.3202 27.4074C15.8659 28.7594 17.403 29.3881 18.741 28.8353L18.7425 28.8347L23.6372 26.8268C24.9889 26.281 25.6173 24.7444 25.065 23.4066L25.0642 23.4047ZM8 23.5L9.70824 26.7789C10.3282 27.4289 10.2982 28.4589 9.63824 29.0689C8.98824 29.6789 7.95824 29.6489 7.34824 28.9989L2.43824 23.7889C1.82824 23.1389 1.85824 22.1089 2.50824 21.4989C3.15824 20.8889 4.18824 20.9189 4.79824 21.5689L8 23.5Z" fill="#FFB02E"/>
        <path d="M29.2283 15.0788L17.6783 2.82884C16.4083 1.47884 14.1783 1.82887 13.3883 3.50887L4.79834 21.5689L9.76834 26.8389L28.3083 19.3288C30.0183 18.6388 30.4983 16.4288 29.2283 15.0788Z" fill="#F9C23C"/>
      </g>
    </g>
    <rect id="ITEM_4_TEXT_BG" x="-640.0" y="154.0" width="416.0" height="202.0" rx="16" fill="var(--panel)" fill-opacity="0.94" stroke="var(--primary-text)" stroke-opacity="0.12" stroke-width="1.5"/>
    <rect x="-640.0" y="154.0" width="416.0" height="202.0" rx="16" fill="url(#svgd63f26a0-venn-label-sheen)" opacity="0.85"/>
    <text id="ITEM_4_HEAD" x="-242.0" y="170.0" text-anchor="end" font-weight="bold" font-size="34" fill="var(--accent-1)" data-bg-id="ITEM_4_TEXT_BG" opacity="0.98" fill-opacity="1.0" style="font-size: 31px; font-family: 'Segoe UI Variable Display', 'Aptos Display', 'Inter', 'Segoe UI', Helvetica, Arial, sans-serif; font-weight: 700; font-kerning: normal; font-feature-settings: &quot;kern&quot; 1, &quot;liga&quot; 1; letter-spacing:-0.4px;" data-final-font-size="31">
      <tspan x="-242.0" dy="32.52px">Publicity Waves</tspan>
    </text>
    <rect id="ITEM_4_HEAD_FRAME" x="-502" y="170" width="260" height="48" fill="none"/>
    <text id="ITEM_4_BODY" x="-242.0" y="220.0" text-anchor="end" font-size="20" fill="var(--primary-text)" data-bg-id="ITEM_4_TEXT_BG" style="font-size: 23px; font-family: 'Segoe UI Variable Text', 'Aptos', 'Inter', 'Segoe UI', Helvetica, Arial, sans-serif; font-weight: 400; font-kerning: normal; font-feature-settings: &quot;kern&quot; 1, &quot;liga&quot; 1;" data-final-font-size="23">
      <tspan x="-242.0" dy="31.82px">Famous sightings increase general</tspan>
      <tspan x="-242.0" dy="26.45px">public awareness</tspan>
    </text>
    <rect id="ITEM_4_BODY_FRAME" x="-622" y="220" width="380" height="120" fill="none"/>
    <!-- ITEM 5 - Top Left -->
    <circle id="ITEM_5_PAD" cx="-256" cy="-83" r="48" fill="var(--icon-pad-bg)" stroke="var(--accent-2)" opacity="1" fill-opacity="0.9" stroke-width="2" stroke-opacity="0.72" data-badge-layer="pad"/>
    <circle id="ITEM_5_PAD_INNER" cx="-256" cy="-83" r="37.44" fill="var(--accent-2)" fill-opacity="0.12" stroke="none" data-badge-layer="tint"/>
    <circle cx="-256" cy="-83" r="38" fill="none" stroke="var(--accent-5)" stroke-width="3" stroke-dasharray="6 4" display="none" data-suppressed-decoration="redundant-badge-ring"/>
    <g id="ITEM_5_ICON" transform="translate(-283, -110)" data-icon-size="54" stroke-linecap="round" stroke-linejoin="round" data-badge-treatment="clean">
      <g transform="translate(-15.788571428571423,-15.788571428571426) scale(2.674285714285714)">
        <path d="M5 4.5C5 3.67157 5.67157 3 6.5 3H25.5C26.3284 3 27 3.67157 27 4.5V28.5C27 29.3284 26.3284 30 25.5 30H6.5C5.67157 30 5 29.3284 5 28.5V4.5Z" fill="#E19747"/>
        <path d="M25 6C25 5.44772 24.5523 5 24 5H8C7.44772 5 7 5.44772 7 6V27C7 27.5523 7.44772 28 8 28H18.5858C18.7327 28 18.8764 27.9677 19.0071 27.9069L19.3282 27.1239L19.96 23.0379L24.4166 22.255L24.9064 22.0082C24.9675 21.8772 25 21.7332 25 21.5858V6Z" fill="#F3EEF8"/>
        <path d="M24.9102 22H20C19.4477 22 19 22.4477 19 23V27.9102C19.108 27.861 19.2074 27.7926 19.2929 27.7071L24.7071 22.2929C24.7926 22.2074 24.861 22.108 24.9102 22Z" fill="#CDC4D6"/>
        <path d="M18 4C18 2.89543 17.1046 2 16 2C14.8954 2 14 2.89543 14 4H13C11.8954 4 11 4.89543 11 6V7.5C11 7.77614 11.2239 8 11.5 8H20.5C20.7761 8 21 7.77614 21 7.5V6C21 4.89543 20.1046 4 19 4H18ZM17 4C17 4.55228 16.5523 5 16 5C15.4477 5 15 4.55228 15 4C15 3.44772 15.4477 3 16 3C16.5523 3 17 3.44772 17 4Z" fill="#9B9B9B"/>
        <path d="M9 12.5C9 12.2239 9.22386 12 9.5 12H22.5C22.7761 12 23 12.2239 23 12.5C23 12.7761 22.7761 13 22.5 13H9.5C9.22386 13 9 12.7761 9 12.5Z" fill="#9B9B9B"/>
        <path d="M9 15.5C9 15.2239 9.22386 15 9.5 15H22.5C22.7761 15 23 15.2239 23 15.5C23 15.7761 22.7761 16 22.5 16H9.5C9.22386 16 9 15.7761 9 15.5Z" fill="#9B9B9B"/>
        <path d="M9.5 18C9.22386 18 9 18.2239 9 18.5C9 18.7761 9.22386 19 9.5 19H22.5C22.7761 19 23 18.7761 23 18.5C23 18.2239 22.7761 18 22.5 18H9.5Z" fill="#9B9B9B"/>
        <path d="M9 21.5C9 21.2239 9.22386 21 9.5 21H17.5C17.7761 21 18 21.2239 18 21.5C18 21.7761 17.7761 22 17.5 22H9.5C9.22386 22 9 21.7761 9 21.5Z" fill="#9B9B9B"/>
      </g>
    </g>
    <rect id="ITEM_5_TEXT_BG" x="-738.0" y="-156.0" width="416.0" height="204.0" rx="16" fill="var(--panel)" fill-opacity="0.94" stroke="var(--primary-text)" stroke-opacity="0.12" stroke-width="1.5"/>
    <rect x="-738.0" y="-156.0" width="416.0" height="204.0" rx="16" fill="url(#svgd63f26a0-venn-label-sheen)" opacity="0.85"/>
    <text id="ITEM_5_HEAD" x="-340.0" y="-140.0" text-anchor="end" font-weight="bold" font-size="34" fill="var(--accent-2)" data-bg-id="ITEM_5_TEXT_BG" opacity="0.98" fill-opacity="1.0" style="font-size: 29px; font-family: 'Segoe UI Variable Display', 'Aptos Display', 'Inter', 'Segoe UI', Helvetica, Arial, sans-serif; font-weight: 700; font-kerning: normal; font-feature-settings: &quot;kern&quot; 1, &quot;liga&quot; 1; letter-spacing:-0.4px;" data-final-font-size="29">
      <tspan x="-340.0" dy="31.98px">Collection Methods</tspan>
    </text>
    <rect id="ITEM_5_HEAD_FRAME" x="-600" y="-140" width="260" height="48" fill="none"/>
    <text id="ITEM_5_BODY" x="-340.0" y="-88.0" text-anchor="end" font-size="20" fill="var(--primary-text)" data-bg-id="ITEM_5_TEXT_BG" style="font-size: 23px; font-family: 'Segoe UI Variable Text', 'Aptos', 'Inter', 'Segoe UI', Helvetica, Arial, sans-serif; font-weight: 400; font-kerning: normal; font-feature-settings: &quot;kern&quot; 1, &quot;liga&quot; 1;" data-final-font-size="23">
      <tspan x="-340.0" dy="31.82px">Different agencies use unique data</tspan>
      <tspan x="-340.0" dy="26.45px">gathering styles</tspan>
    </text>
    <rect id="ITEM_5_BODY_FRAME" x="-720" y="-88" width="380" height="120" fill="none"/>
  </g>
  <text id="SOURCE_NOTE" x="134.0" y="1058.0" fill="var(--muted-text)" opacity="0.88" style="font-family: var(--font-family); font-size: 20px;">Source: Introduction</text>
</svg>
