<?xml version='1.0' encoding='utf-8'?>
<svg xmlns="http://www.w3.org/2000/svg" width="1920" height="1080" viewBox="0 0 1920 1080" data-theme="dark" data-semantic-intent="compare" data-relation-type="taxonomy" data-site-visual-identity="signal-cobalt">
  <style>
        @font-face {
            font-family: 'Inter';
            src: url('assets/fonts/Inter-Regular.ttf') format('truetype');
            font-weight: 400;
            font-style: normal;
            font-display: swap;
        }
        @font-face {
            font-family: 'Inter';
            src: url('assets/fonts/Inter-Bold.ttf') format('truetype');
            font-weight: 600;
            font-style: normal;
            font-display: swap;
        }
        @font-face {
            font-family: 'Inter';
            src: url('assets/fonts/Inter-Bold.ttf') format('truetype');
            font-weight: 800;
            font-style: normal;
            font-display: swap;
        }
        
:root {
    --background: #0f172a;
    --panel: #1e293b;
    --primary-text: #f1f5f9;
    --muted-text: #94a3b8;
    --inverse-text: #0f172a;
    --border: #334155;
    --shadow-color: #000000;
    --icon-pad-bg: #1e293b;
    --art-glow: #7dd3fc;
    --art-glow-opacity: 0.18;
    --art-sheen: #ffffff;
    --art-sheen-opacity: 0.18;
    --art-shadow: #000000;
    --art-shadow-opacity: 0.28;
    --art-muted-line: #64748b;
    --art-panel-tint: #1e293b;
    --semantic-risk: #f87171;
    --semantic-warning: #fb923c;
    --semantic-uncertain: #fbbf24;
    --semantic-evidence: #60a5fa;
    --semantic-claim: #c084fc;
    --semantic-positive: #4ade80;
    --semantic-outcome: #22d3ee;
    --font-family: 'Inter', 'Segoe UI', 'Kalam', Roboto, Helvetica, Arial, sans-serif;
    --radius-xl: 16px;
    --font-family-headline: 'Segoe UI Variable Display', 'Aptos Display', 'Inter', 'Segoe UI', Helvetica, Arial, sans-serif;
    --font-family-body: 'Segoe UI Variable Text', 'Aptos', 'Inter', 'Segoe UI', Helvetica, Arial, sans-serif;
    --font-heading: var(--font-family-headline);
    --font-body: var(--font-family-body);
    --font-size-h1: 64px;
    --font-size-h2: 42px;
    --font-size-h3: 29px;
    --font-size-body: 21px;
    --font-size-caption: 17px;
    --secondary-text: var(--muted-text);
    --panel-border: var(--border);
    --font-weight-normal: 400;
    --font-weight-medium: 500;
    --font-weight-semibold: 600;
    --font-weight-bold: 700;
    --spacing-gutter-pct: 0.07;
    --spacing-top-pct: 0.15;
    --spacing-bottom-pct: 0.07;
    --spacing-title-y-pct: 0.055;
    --accent-1: #93c5fd;
    --accent-2: #60a5fa;
    --accent-3: #818cf8;
    --accent-4: #a78bfa;
    --accent-5: #38bdf8;
    --accent-6: #fb923c;
}
:root[data-theme="dark"] {
    --background: #0f172a;
    --panel: #1e293b;
    --primary-text: #f1f5f9;
    --muted-text: #94a3b8;
    --inverse-text: #0f172a;
    --border: #334155;
    --shadow-color: #000000;
    --icon-pad-bg: #1e293b;
    --art-glow: #7dd3fc;
    --art-glow-opacity: 0.18;
    --art-sheen: #ffffff;
    --art-sheen-opacity: 0.18;
    --art-shadow: #000000;
    --art-shadow-opacity: 0.28;
    --art-muted-line: #64748b;
    --art-panel-tint: #1e293b;
    --semantic-risk: #f87171;
    --semantic-warning: #fb923c;
    --semantic-uncertain: #fbbf24;
    --semantic-evidence: #60a5fa;
    --semantic-claim: #c084fc;
    --semantic-positive: #4ade80;
    --semantic-outcome: #22d3ee;
    --accent-1: #93c5fd;
    --accent-2: #60a5fa;
    --accent-3: #818cf8;
    --accent-4: #a78bfa;
    --accent-5: #38bdf8;
    --accent-6: #fb923c;
}
:root[data-theme="light"] {
    --background: #f8fafc;
    --panel: #ffffff;
    --primary-text: #0f172a;
    --muted-text: #64748b;
    --inverse-text: #ffffff;
    --border: #e2e8f0;
    --shadow-color: #000000;
    --icon-pad-bg: #1e293b;
    --art-glow: #0891b2;
    --art-glow-opacity: 0.10;
    --art-sheen: #ffffff;
    --art-sheen-opacity: 0.34;
    --art-shadow: #0f172a;
    --art-shadow-opacity: 0.14;
    --art-muted-line: #94a3b8;
    --art-panel-tint: #f1f5f9;
    --semantic-risk: #b91c1c;
    --semantic-warning: #c2410c;
    --semantic-uncertain: #a16207;
    --semantic-evidence: #1d4ed8;
    --semantic-claim: #6d28d9;
    --semantic-positive: #15803d;
    --semantic-outcome: #0e7490;
    --accent-1: #1d4ed8;
    --accent-2: #2563eb;
    --accent-3: #4f46e5;
    --accent-4: #6d28d9;
    --accent-5: #0369a1;
    --accent-6: #c2410c;
}</style>
  <rect x="0" y="0" width="1.92E+3" height="1.08E+3" fill="#252a34" stroke="none" id="programmatic_background"/>
  <line id="HEADER_DECOR" x1="960.0" x2="1080.0" y1="135.0" y2="135.0" stroke="var(--accent-1)" stroke-width="6" stroke-linecap="round"/>
  <defs>
    <pattern id="svg115cccdd-napkin-hatch" patternUnits="userSpaceOnUse" width="12" height="12">
      <path d="M -3 12 L 12 -3 M 0 15 L 15 0" fill="none" stroke="var(--primary-text)" stroke-width="1" stroke-opacity="0.04"/>
    </pattern>
    <filter id="svg115cccdd-soft-shadow" x="-30%" y="-30%" width="160%" height="160%">
      <feDropShadow dx="0" dy="4" stdDeviation="8" flood-color="#000000" flood-opacity="0.18"/>
    </filter>
    <radialGradient id="svg115cccdd-universal-edge-vignette" cx="50%" cy="50%" r="72%">
      <stop offset="0%" stop-color="var(--background)" stop-opacity="0"/>
      <stop offset="72%" stop-color="var(--background)" stop-opacity="0.12"/>
      <stop offset="100%" stop-color="var(--primary-text)" stop-opacity="0.08"/>
    </radialGradient>
    <linearGradient id="svg115cccdd-universal-surface-sheen" x1="0%" y1="0%" x2="100%" y2="100%">
      <stop offset="0%" stop-color="var(--art-sheen)" stop-opacity="var(--art-sheen-opacity)"/>
      <stop offset="46%" stop-color="var(--art-sheen)" stop-opacity="0.035"/>
      <stop offset="100%" stop-color="var(--art-panel-tint)" stop-opacity="0.14"/>
    </linearGradient>
    <radialGradient id="svg115cccdd-universal-icon-aura" cx="50%" cy="42%" r="64%">
      <stop offset="0%" stop-color="var(--art-glow)" stop-opacity="var(--art-glow-opacity)"/>
      <stop offset="100%" stop-color="var(--background)" stop-opacity="0"/>
    </radialGradient>
    <linearGradient id="svg115cccdd-tug-rope-sheen" x1="0%" y1="0%" x2="100%" y2="0%">
      <stop offset="0%" stop-color="var(--background)" stop-opacity="0"/>
      <stop offset="50%" stop-color="var(--inverse-text)" stop-opacity="0.16"/>
      <stop offset="100%" stop-color="var(--background)" stop-opacity="0"/>
    </linearGradient>
    <filter id="svg115cccdd-text-glow" x="-20%" y="-20%" width="140%" height="140%">
      <feDropShadow dx="0" dy="0" stdDeviation="2" flood-color="#000000" flood-opacity="0.4"/>
    </filter>
    <filter id="svg115cccdd-shadow" x="-30%" y="-30%" width="160%" height="160%">
      <feDropShadow dx="0" dy="2" stdDeviation="3" flood-color="#000000" flood-opacity="0.08"/>
      <feDropShadow dx="0" dy="6" stdDeviation="10" flood-color="#000000" flood-opacity="0.12"/>
    </filter>
    <marker id="svg115cccdd-arrowhead" markerWidth="10" markerHeight="7" refX="9" refY="3.5" orient="auto" markerUnits="strokeWidth">
      <polygon points="0 0, 10 3.5, 0 7" fill="var(--muted-text)" opacity="0.6"/>
    </marker>
  </defs>
  <rect id="CANVAS_BG" width="100%" height="100%" fill="var(--background)"/>
  <rect width="100%" height="100%" fill="url(#svg115cccdd-napkin-hatch)"/>
  <rect id="UNIVERSAL_EDGE_VIGNETTE" width="100%" height="100%" fill="url(#svg115cccdd-universal-edge-vignette)" opacity="0.62"/>
  <text id="TITLE" x="960.0" y="59" text-anchor="middle" font-size="56" font-weight="800" fill="#f1f5f9" style="font-size: 69px; font-family: 'Segoe UI Variable Display', 'Aptos Display', 'Inter', 'Segoe UI', Helvetica, Arial, sans-serif; font-weight: 800; font-kerning: normal; font-feature-settings: &quot;kern&quot; 1, &quot;liga&quot; 1; letter-spacing:-1.2px;" data-final-font-size="69">
    <tspan x="960.0" dy="70.47px">TUFOIC Reporting Cluster Types</tspan>
  </text>
  <rect id="TITLE_FRAME" x="134" y="59" width="1652" height="103" fill="none"/>
  <ellipse cx="960" cy="332" rx="214" ry="60" fill="var(--panel)" fill-opacity="0.50" opacity="0.34"/>
  <path d="M 182 320 Q 616 302 934 332" fill="none" stroke="var(--primary-text)" stroke-width="16" stroke-linecap="round" opacity="0.10"/>
  <path d="M 1738 320 Q 1304 302 986 332" fill="none" stroke="var(--primary-text)" stroke-width="16" stroke-linecap="round" opacity="0.10"/>
  <path d="M 220 320 Q 618 306 936 332" fill="none" stroke="var(--muted-text)" stroke-width="8" stroke-linecap="round" opacity="0.88"/>
  <path d="M 1700 320 Q 1302 306 984 332" fill="none" stroke="var(--muted-text)" stroke-width="8" stroke-linecap="round" opacity="0.88"/>
  <circle cx="960" cy="332" r="24" fill="var(--panel)" fill-opacity="0.94" stroke="var(--primary-text)" stroke-width="3"/>
  <path d="M 960 308 L 982 332 L 960 356 L 938 332 Z" fill="var(--primary-text)"/>
  <path d="M 960 356 L 960 666" fill="none" stroke="var(--primary-text)" stroke-width="12" stroke-linecap="round" opacity="0.10"/>
  <path d="M 960 356 L 960 666" fill="none" stroke="var(--muted-text)" stroke-width="6" stroke-linecap="round" opacity="0.78"/>
  <ellipse cx="960" cy="690" rx="106" ry="36" fill="var(--panel)" fill-opacity="0.46" opacity="0.3"/>
  <path d="M 542 690 Q 746 678 928 690" fill="none" stroke="var(--primary-text)" stroke-width="14" stroke-linecap="round" opacity="0.10"/>
  <path d="M 1378 690 Q 1174 678 992 690" fill="none" stroke="var(--primary-text)" stroke-width="14" stroke-linecap="round" opacity="0.10"/>
  <path d="M 564 690 Q 752 680 928 690" fill="none" stroke="var(--muted-text)" stroke-width="7" stroke-linecap="round" opacity="0.86"/>
  <path d="M 1356 690 Q 1168 680 992 690" fill="none" stroke="var(--muted-text)" stroke-width="7" stroke-linecap="round" opacity="0.86"/>
  <circle cx="960" cy="690" r="18" fill="var(--panel)" fill-opacity="0.94" stroke="var(--primary-text)" stroke-width="3"/>
  <path d="M 818 336 L 530 360" fill="none" stroke="var(--muted-text)" stroke-width="3" stroke-linecap="round" opacity="0.72"/>
  <circle cx="530" cy="360" r="6" fill="var(--accent-1)"/>
  <g transform="translate(410, 350)" filter="url(#svg115cccdd-soft-shadow)">
    <path d="M 62 0 L 96 -30 L 146 -30 Q 156 -30 162 -18 L 174 0 Z" fill="var(--panel)" fill-opacity="0.95" stroke="var(--accent-1)" stroke-width="3"/>
    <rect id="ITEM_1_BG" x="-228" y="0" width="456" height="348" rx="24" fill="var(--panel)" fill-opacity="0.96" stroke="var(--accent-1)" stroke-width="3"/>
    <rect x="-184" y="14" width="344" height="8" rx="4" fill="var(--accent-1)" fill-opacity="0.42"/>
    <path d="M 76 28 L 184 28 L 160 322 L 84 322 Z" fill="var(--accent-1)" fill-opacity="0.07"/>
    <circle cx="0" cy="80" r="61" fill="url(#svg115cccdd-universal-icon-aura)" opacity="0.82"/>
    <circle id="ITEM_1_PAD" cx="0" cy="80" r="44" fill="var(--icon-pad-bg)" stroke="var(--accent-1)" opacity="1" fill-opacity="0.9" stroke-width="2" stroke-opacity="0.72" data-badge-layer="pad"/>
    <circle id="ITEM_1_PAD_INNER" cx="0" cy="80" r="34.32" fill="var(--accent-1)" fill-opacity="0.12" stroke="none" data-badge-layer="tint"/>
    <circle cx="0" cy="80" r="34" fill="none" stroke="var(--accent-1)" stroke-width="2.5" stroke-dasharray="5 4" opacity="0.82" display="none" data-suppressed-decoration="redundant-badge-ring"/>
    <g id="ITEM_1_ICON" transform="translate(-33, 46)" data-icon-size="66" stroke-linecap="round" stroke-linejoin="round" data-badge-treatment="clean">
      <g transform="translate(-4.228474576271187,-4.228474576271186) scale(3.102372881355932)" vector-effect="non-scaling-stroke" stroke-width="2.50" stroke-linecap="round" stroke-linejoin="round" stroke-opacity="1.0">
        <path d="M14 18V6a2 2 0 0 0-2-2H4a2 2 0 0 0-2 2v11a1 1 0 0 0 1 1h2" vector-effect="non-scaling-stroke" fill="none" stroke="#f1f5f9"/>
        <path d="M15 18H9" vector-effect="non-scaling-stroke" fill="none" stroke="#f1f5f9"/>
        <path d="M19 18h2a1 1 0 0 0 1-1v-3.65a1 1 0 0 0-.22-.624l-3.48-4.35A1 1 0 0 0 17.52 8H14" vector-effect="non-scaling-stroke" fill="none" stroke="#f1f5f9"/>
        <circle cx="17" cy="18" r="2" vector-effect="non-scaling-stroke" fill="none" stroke="#f1f5f9"/>
        <circle cx="7" cy="18" r="2" vector-effect="non-scaling-stroke" fill="none" stroke="#f1f5f9"/>
      </g>
    </g>
    <text id="ITEM_1_HEAD" x="0.0" y="138.0" text-anchor="middle" font-size="40" font-weight="800" fill="var(--accent-1)" data-bg-id="ITEM_1_BG" data-max-lines="3" data-min-font-size="14" fill-opacity="1.0" stroke="none" style="font-size: 31px; font-family: 'Segoe UI Variable Display', 'Aptos Display', 'Inter', 'Segoe UI', Helvetica, Arial, sans-serif; font-weight: 700; font-kerning: normal; font-feature-settings: &quot;kern&quot; 1, &quot;liga&quot; 1; letter-spacing:-0.4px;" data-final-font-size="31">
      <tspan x="0.0" dy="47.28px">Vehicle Interference</tspan>
    </text>
    <rect id="ITEM_1_HEAD_FRAME" x="-194" y="138" width="388" height="68" fill="none"/>
    <text id="ITEM_1_BODY" x="0.0" y="202.0" text-anchor="middle" font-size="24" fill="var(--primary-text)" data-bg-id="ITEM_1_BG" data-max-lines="5" style="font-size: 23px; font-family: 'Segoe UI Variable Text', 'Aptos', 'Inter', 'Segoe UI', Helvetica, Arial, sans-serif; font-weight: 400; font-kerning: normal; font-feature-settings: &quot;kern&quot; 1, &quot;liga&quot; 1;" data-final-font-size="23">
      <tspan x="0.0" dy="35.64px">Radio static and engine irregularities</tspan>
      <tspan x="0.0" dy="26.45px">during sightings</tspan>
    </text>
    <rect id="ITEM_1_BODY_FRAME" x="-214" y="202" width="428" height="122" fill="none"/>
  </g>
  <path d="M 960 356 L 960 342" fill="none" stroke="var(--muted-text)" stroke-width="3" stroke-linecap="round" opacity="0.72"/>
  <circle cx="960" cy="342" r="6" fill="var(--accent-2)"/>
  <g transform="translate(960, 332)" filter="url(#svg115cccdd-soft-shadow)">
    <path d="M -46 0 L -16 -30 L 16 -30 L 46 0 Z" fill="var(--panel)" fill-opacity="0.95" stroke="var(--accent-2)" stroke-width="3"/>
    <rect id="ITEM_2_BG" x="-228" y="0" width="456" height="348" rx="24" fill="var(--panel)" fill-opacity="0.96" stroke="var(--accent-2)" stroke-width="3"/>
    <rect x="-160" y="14" width="320" height="8" rx="4" fill="var(--accent-2)" fill-opacity="0.42"/>
    <path d="M -70 28 L 70 28 L 104 320 L -104 320 Z" fill="var(--accent-2)" fill-opacity="0.05"/>
    <circle cx="0" cy="80" r="61" fill="url(#svg115cccdd-universal-icon-aura)" opacity="0.82"/>
    <circle id="ITEM_2_PAD" cx="0" cy="80" r="44" fill="var(--icon-pad-bg)" stroke="var(--accent-2)" opacity="1" fill-opacity="0.9" stroke-width="2" stroke-opacity="0.72" data-badge-layer="pad"/>
    <circle id="ITEM_2_PAD_INNER" cx="0" cy="80" r="34.32" fill="var(--accent-2)" fill-opacity="0.12" stroke="none" data-badge-layer="tint"/>
    <circle cx="0" cy="80" r="34" fill="none" stroke="var(--accent-2)" stroke-width="2.5" stroke-dasharray="5 4" opacity="0.82" display="none" data-suppressed-decoration="redundant-badge-ring"/>
    <g id="ITEM_2_ICON" transform="translate(-33, 46)" data-icon-size="66" stroke-linecap="round" stroke-linejoin="round" data-badge-treatment="clean">
      <g transform="translate(-4.228474576271187,-4.228474576271184) scale(3.102372881355932)" vector-effect="non-scaling-stroke" stroke-width="2.50" stroke-linecap="round" stroke-linejoin="round" stroke-opacity="1.0">
        <path d="M10 10h4" vector-effect="non-scaling-stroke" fill="none" stroke="#f1f5f9"/>
        <path d="M19 7V4a1 1 0 0 0-1-1h-2a1 1 0 0 0-1 1v3" vector-effect="non-scaling-stroke" fill="none" stroke="#f1f5f9"/>
        <path d="M20 21a2 2 0 0 0 2-2v-3.851c0-1.39-2-2.962-2-4.829V8a1 1 0 0 0-1-1h-4a1 1 0 0 0-1 1v11a2 2 0 0 0 2 2z" vector-effect="non-scaling-stroke" fill="none" stroke="#f1f5f9"/>
        <path d="M 22 16 L 2 16" vector-effect="non-scaling-stroke" fill="none" stroke="#f1f5f9"/>
        <path d="M4 21a2 2 0 0 1-2-2v-3.851c0-1.39 2-2.962 2-4.829V8a1 1 0 0 1 1-1h4a1 1 0 0 1 1 1v11a2 2 0 0 1-2 2z" vector-effect="non-scaling-stroke" fill="none" stroke="#f1f5f9"/>
        <path d="M9 7V4a1 1 0 0 0-1-1H6a1 1 0 0 0-1 1v3" vector-effect="non-scaling-stroke" fill="none" stroke="#f1f5f9"/>
      </g>
    </g>
    <text id="ITEM_2_HEAD" x="0.0" y="138.0" text-anchor="middle" font-size="40" font-weight="800" fill="var(--accent-2)" data-bg-id="ITEM_2_BG" data-max-lines="3" data-min-font-size="14" fill-opacity="1.0" stroke="none" style="font-size: 31px; font-family: 'Segoe UI Variable Display', 'Aptos Display', 'Inter', 'Segoe UI', Helvetica, Arial, sans-serif; font-weight: 700; font-kerning: normal; font-feature-settings: &quot;kern&quot; 1, &quot;liga&quot; 1; letter-spacing:-0.4px;" data-final-font-size="31">
      <tspan x="0.0" dy="47.28px">Visual Clusters</tspan>
    </text>
    <rect id="ITEM_2_HEAD_FRAME" x="-194" y="138" width="388" height="68" fill="none"/>
    <text id="ITEM_2_BODY" x="0.0" y="202.0" text-anchor="middle" font-size="24" fill="var(--primary-text)" data-bg-id="ITEM_2_BG" data-max-lines="5" style="font-size: 23px; font-family: 'Segoe UI Variable Text', 'Aptos', 'Inter', 'Segoe UI', Helvetica, Arial, sans-serif; font-weight: 400; font-kerning: normal; font-feature-settings: &quot;kern&quot; 1, &quot;liga&quot; 1;" data-final-font-size="23">
      <tspan x="0.0" dy="35.64px">Multiple witnesses seeing lights</tspan>
      <tspan x="0.0" dy="26.45px">in rural districts</tspan>
    </text>
    <rect id="ITEM_2_BODY_FRAME" x="-214" y="202" width="428" height="122" fill="none"/>
  </g>
  <path d="M 1102 336 L 1390 360" fill="none" stroke="var(--muted-text)" stroke-width="3" stroke-linecap="round" opacity="0.72"/>
  <circle cx="1390" cy="360" r="6" fill="var(--accent-3)"/>
  <g transform="translate(1510, 350)" filter="url(#svg115cccdd-soft-shadow)">
    <path d="M -62 0 L -96 -30 L -146 -30 Q -156 -30 -162 -18 L -174 0 Z" fill="var(--panel)" fill-opacity="0.95" stroke="var(--accent-3)" stroke-width="3"/>
    <rect id="ITEM_3_BG" x="-228" y="0" width="456" height="348" rx="24" fill="var(--panel)" fill-opacity="0.96" stroke="var(--accent-3)" stroke-width="3"/>
    <rect x="-160" y="14" width="344" height="8" rx="4" fill="var(--accent-3)" fill-opacity="0.42"/>
    <path d="M -76 28 L -184 28 L -160 322 L -84 322 Z" fill="var(--accent-3)" fill-opacity="0.07"/>
    <circle cx="0" cy="80" r="61" fill="url(#svg115cccdd-universal-icon-aura)" opacity="0.82"/>
    <circle id="ITEM_3_PAD" cx="0" cy="80" r="44" fill="var(--icon-pad-bg)" stroke="var(--accent-3)" opacity="1" fill-opacity="0.9" stroke-width="2" stroke-opacity="0.72" data-badge-layer="pad"/>
    <circle id="ITEM_3_PAD_INNER" cx="0" cy="80" r="34.32" fill="var(--accent-3)" fill-opacity="0.12" stroke="none" data-badge-layer="tint"/>
    <circle cx="0" cy="80" r="34" fill="none" stroke="var(--accent-3)" stroke-width="2.5" stroke-dasharray="5 4" opacity="0.82" display="none" data-suppressed-decoration="redundant-badge-ring"/>
    <g id="ITEM_3_ICON" transform="translate(-33, 46)" data-icon-size="66" stroke-linecap="round" stroke-linejoin="round" data-badge-treatment="clean">
      <g transform="translate(-4.179999999999997,-3.608) scale(0.143)" vector-effect="non-scaling-stroke" fill="#f1f5f9" fill-opacity="1.0" stroke="none">
        <path fill="#f1f5f9" d="M246.625 18.375c-11.817-.153-23.918 8.608-29.375 22.438c-6.716 17.02-.85 35.28 13.094 40.78c13.943 5.502 30.69-3.822 37.406-20.843c6.716-17.02.85-35.28-13.094-40.78a22.5 22.5 0 0 0-8.03-1.595zm74.75 15.938c-10.97.006-22.743 6.024-30.78 16.874c-12.25 16.534-11.2 38.06 2.342 48.094c13.544 10.035 34.44 4.754 46.688-11.78c12.25-16.534 11.2-38.06-2.344-48.094c-4.654-3.45-10.16-5.097-15.905-5.093zm67.25 37.53c-10.336-.127-21.542 4.263-30.47 12.907c-15.87 15.368-18.525 38.344-5.936 51.344c12.587 13 35.66 11.086 51.53-4.28c15.87-15.37 18.526-38.345 5.938-51.345c-5.508-5.69-13.024-8.527-21.063-8.626zm-156.438 32.063c-22.51-.28-44.378 6.893-63.5 24C107.65 182.513 48.192 261.012 28.28 386.97C5.023 534.1 186.257 507.523 168.313 428.936c-22.922-100.387 34.13-141.11 108-124.156c32.838 7.54 66.54-4.9 86-40.436c23.402-42.733-7.428-106.817-62.875-139.625c-21.61-12.79-44.74-20.534-67.25-20.814zM449.438 134c-10.52.022-21.654 2.82-32.093 8.625c-27.837 15.48-40.15 46.51-27.47 69.313c12.682 22.802 45.54 28.73 73.376 13.25s40.118-46.51 27.438-69.313c-7.926-14.252-23.717-21.91-41.25-21.875z" vector-effect="non-scaling-stroke" stroke="none"/>
      </g>
    </g>
    <text id="ITEM_3_HEAD" x="0.0" y="138.0" text-anchor="middle" font-size="40" font-weight="800" fill="var(--accent-3)" data-bg-id="ITEM_3_BG" data-max-lines="3" data-min-font-size="14" fill-opacity="1.0" stroke="none" style="font-size: 31px; font-family: 'Segoe UI Variable Display', 'Aptos Display', 'Inter', 'Segoe UI', Helvetica, Arial, sans-serif; font-weight: 700; font-kerning: normal; font-feature-settings: &quot;kern&quot; 1, &quot;liga&quot; 1; letter-spacing:-0.4px;" data-final-font-size="31">
      <tspan x="0.0" dy="47.28px">Physical Traces</tspan>
    </text>
    <rect id="ITEM_3_HEAD_FRAME" x="-194" y="138" width="388" height="68" fill="none"/>
    <text id="ITEM_3_BODY" x="0.0" y="202.0" text-anchor="middle" font-size="24" fill="var(--primary-text)" data-bg-id="ITEM_3_BG" data-max-lines="5" style="font-size: 23px; font-family: 'Segoe UI Variable Text', 'Aptos', 'Inter', 'Segoe UI', Helvetica, Arial, sans-serif; font-weight: 400; font-kerning: normal; font-feature-settings: &quot;kern&quot; 1, &quot;liga&quot; 1;" data-final-font-size="23">
      <tspan x="0.0" dy="35.64px">Scorched grass or circular markings</tspan>
      <tspan x="0.0" dy="26.45px">on ground</tspan>
    </text>
    <rect id="ITEM_3_BODY_FRAME" x="-214" y="202" width="428" height="122" fill="none"/>
  </g>
  <path d="M 930 690 L 810 696" fill="none" stroke="var(--muted-text)" stroke-width="3" stroke-linecap="round" opacity="0.72"/>
  <circle cx="810" cy="696" r="6" fill="var(--accent-4)"/>
  <g transform="translate(690, 700)" filter="url(#svg115cccdd-soft-shadow)">
    <path d="M 62 0 L 96 -30 L 146 -30 Q 156 -30 162 -18 L 174 0 Z" fill="var(--panel)" fill-opacity="0.95" stroke="var(--accent-4)" stroke-width="3"/>
    <rect id="ITEM_4_BG" x="-228" y="0" width="456" height="348" rx="24" fill="var(--panel)" fill-opacity="0.96" stroke="var(--accent-4)" stroke-width="3"/>
    <rect x="-184" y="14" width="344" height="8" rx="4" fill="var(--accent-4)" fill-opacity="0.42"/>
    <path d="M 76 28 L 184 28 L 160 322 L 84 322 Z" fill="var(--accent-4)" fill-opacity="0.07"/>
    <circle cx="0" cy="80" r="61" fill="url(#svg115cccdd-universal-icon-aura)" opacity="0.82"/>
    <circle id="ITEM_4_PAD" cx="0" cy="80" r="44" fill="var(--icon-pad-bg)" stroke="var(--accent-1)" opacity="1" fill-opacity="0.9" stroke-width="2" stroke-opacity="0.72" data-badge-layer="pad"/>
    <circle id="ITEM_4_PAD_INNER" cx="0" cy="80" r="34.32" fill="var(--accent-1)" fill-opacity="0.12" stroke="none" data-badge-layer="tint"/>
    <circle cx="0" cy="80" r="34" fill="none" stroke="var(--accent-4)" stroke-width="2.5" stroke-dasharray="5 4" opacity="0.82" display="none" data-suppressed-decoration="redundant-badge-ring"/>
    <g id="ITEM_4_ICON" transform="translate(-33, 46)" data-icon-size="66" stroke-linecap="round" stroke-linejoin="round" data-badge-treatment="clean">
      <g transform="translate(-3.608,-8.183999999999996) scale(2.288)">
        <path d="M4 7C4 5.89543 4.89543 5 6 5H29C30.1046 5 31 5.89543 31 7V29C31 30.1046 30.1046 31 29 31H4C2.34315 31 1 29.6569 1 28V10C1 8.34314 2.34315 7 4 7Z" fill="#B4ACBC"/>
        <path d="M28 10C28 8.89543 27.1046 8 26 8H4C2.89543 8 2 8.89543 2 10V28C2 29.1046 2.89543 30 4 30H29.5C28.6716 30 28 29.3284 28 28.5V10Z" fill="#F3EEF8"/>
        <path d="M4 11C4 10.4477 4.44772 10 5 10H25C25.5523 10 26 10.4477 26 11C26 11.5523 25.5523 12 25 12H5C4.44772 12 4 11.5523 4 11ZM4 14.5C4 14.2239 4.22386 14 4.5 14H25.5C25.7761 14 26 14.2239 26 14.5C26 14.7761 25.7761 15 25.5 15H4.5C4.22386 15 4 14.7761 4 14.5ZM19.5 17C19.2239 17 19 17.2239 19 17.5C19 17.7761 19.2239 18 19.5 18H25.5C25.7761 18 26 17.7761 26 17.5C26 17.2239 25.7761 17 25.5 17H19.5ZM19 20.5C19 20.2239 19.2239 20 19.5 20H25.5C25.7761 20 26 20.2239 26 20.5C26 20.7761 25.7761 21 25.5 21H19.5C19.2239 21 19 20.7761 19 20.5ZM19.5 23C19.2239 23 19 23.2239 19 23.5C19 23.7761 19.2239 24 19.5 24H25.5C25.7761 24 26 23.7761 26 23.5C26 23.2239 25.7761 23 25.5 23H19.5ZM19 26.5C19 26.2239 19.2239 26 19.5 26H25.5C25.7761 26 26 26.2239 26 26.5C26 26.7761 25.7761 27 25.5 27H19.5C19.2239 27 19 26.7761 19 26.5ZM6 17C4.89543 17 4 17.8954 4 19V25C4 26.1046 4.89543 27 6 27H15C16.1046 27 17 26.1046 17 25V19C17 17.8954 16.1046 17 15 17H6Z" fill="#998EA4"/>
      </g>
    </g>
    <text id="ITEM_4_HEAD" x="0.0" y="138.0" text-anchor="middle" font-size="40" font-weight="800" fill="var(--accent-1)" data-bg-id="ITEM_4_BG" data-max-lines="3" data-min-font-size="14" fill-opacity="1.0" stroke="none" style="font-size: 31px; font-family: 'Segoe UI Variable Display', 'Aptos Display', 'Inter', 'Segoe UI', Helvetica, Arial, sans-serif; font-weight: 700; font-kerning: normal; font-feature-settings: &quot;kern&quot; 1, &quot;liga&quot; 1; letter-spacing:-0.4px;" data-final-font-size="31">
      <tspan x="0.0" dy="47.28px">Media Feedback</tspan>
    </text>
    <rect id="ITEM_4_HEAD_FRAME" x="-194" y="138" width="388" height="68" fill="none"/>
    <text id="ITEM_4_BODY" x="0.0" y="202.0" text-anchor="middle" font-size="24" fill="var(--primary-text)" data-bg-id="ITEM_4_BG" data-max-lines="5" style="font-size: 23px; font-family: 'Segoe UI Variable Text', 'Aptos', 'Inter', 'Segoe UI', Helvetica, Arial, sans-serif; font-weight: 400; font-kerning: normal; font-feature-settings: &quot;kern&quot; 1, &quot;liga&quot; 1;" data-final-font-size="23">
      <tspan x="0.0" dy="35.64px">Publicity encouraging neighbors to report</tspan>
      <tspan x="0.0" dy="26.45px">previous sightings</tspan>
    </text>
    <rect id="ITEM_4_BODY_FRAME" x="-214" y="202" width="428" height="122" fill="none"/>
  </g>
  <path d="M 990 690 L 1110 696" fill="none" stroke="var(--muted-text)" stroke-width="3" stroke-linecap="round" opacity="0.72"/>
  <circle cx="1110" cy="696" r="6" fill="var(--accent-5)"/>
  <g transform="translate(1230, 700)" filter="url(#svg115cccdd-soft-shadow)">
    <path d="M -62 0 L -96 -30 L -146 -30 Q -156 -30 -162 -18 L -174 0 Z" fill="var(--panel)" fill-opacity="0.95" stroke="var(--accent-5)" stroke-width="3"/>
    <rect id="ITEM_5_BG" x="-228" y="0" width="456" height="348" rx="24" fill="var(--panel)" fill-opacity="0.96" stroke="var(--accent-5)" stroke-width="3"/>
    <rect x="-160" y="14" width="344" height="8" rx="4" fill="var(--accent-5)" fill-opacity="0.42"/>
    <path d="M -76 28 L -184 28 L -160 322 L -84 322 Z" fill="var(--accent-5)" fill-opacity="0.07"/>
    <circle cx="0" cy="80" r="61" fill="url(#svg115cccdd-universal-icon-aura)" opacity="0.82"/>
    <circle id="ITEM_5_PAD" cx="0" cy="80" r="44" fill="var(--icon-pad-bg)" stroke="var(--accent-2)" opacity="1" fill-opacity="0.9" stroke-width="2" stroke-opacity="0.72" data-badge-layer="pad"/>
    <circle id="ITEM_5_PAD_INNER" cx="0" cy="80" r="34.32" fill="var(--accent-2)" fill-opacity="0.12" stroke="none" data-badge-layer="tint"/>
    <circle cx="0" cy="80" r="34" fill="none" stroke="var(--accent-5)" stroke-width="2.5" stroke-dasharray="5 4" opacity="0.82" display="none" data-suppressed-decoration="redundant-badge-ring"/>
    <g id="ITEM_5_ICON" transform="translate(-33, 46)" data-icon-size="66" stroke-linecap="round" stroke-linejoin="round" data-badge-treatment="clean">
      <g transform="translate(-6.222857142857143,-8.367857142857147) scale(2.4514285714285715)">
        <path d="M8.97695 9.81822C7.68369 9.81822 7.53001 10.5467 7.61483 10.9109V25.3158L24.7324 27.2146L30.0002 22.5V15.0422L23.1876 8.26566L22.8596 8.02197L15.5002 9L12.4142 8.02197C12.2033 8.15625 11.951 8.32512 11.8094 8.46545C10.993 9.27463 10.3546 9.81822 8.97695 9.81822Z" fill="#8C5543"/>
        <path d="M13.6198 9.31063C13.035 9.08884 12.4462 8.80135 11.8037 8.47407C12.4581 7.81966 14.0595 6.21636 15.2299 5.03847C16.6928 3.5661 18.656 3.69821 19.9679 5.03847C20.2326 5.30884 20.5296 5.60931 20.8363 5.91774C18.5156 7.0625 16.3906 7.6875 13.6198 9.31063Z" fill="#CDC4D6"/>
        <path d="M13.1558 9.12228C14.1001 9.52955 15.0007 9.7862 16.0606 9.7862C17.6085 9.7862 18.8166 9.19163 19.4207 8.87073C20.0247 8.54982 21.0818 8.2006 21.9973 8.2006C22.7003 8.2006 23.0885 8.25855 23.2104 8.29102C22.8107 7.89374 22.362 7.44613 21.9279 7.00997C21.5508 6.63436 21.1458 6.22946 20.7593 5.84035C19.4543 4.68908 17.6172 4.64256 16.23 6.03871C15.2344 7.04072 13.9269 8.35058 13.1558 9.12228Z" fill="#F4F4F4"/>
        <path d="M5.96834 11.2402C5.07024 12.3299 2.95313 14.8594 2.00684 15.9879V22.5L16 27.8125L22.9724 25.3105L15.8325 18.1406C14.7667 17.0629 13.3627 16.2097 11.7162 16.2097C9.99483 16.2097 8.99195 14.7428 8.99195 13.0065C8.99195 10.9666 12.3886 10.1728 13.1604 9.12524C12.4433 8.81133 12.1057 8.64478 11.8209 8.46558C10.6252 9.68774 9.79822 9.78931 9.29321 9.78931C8.96166 9.78931 7.59646 9.61208 5.96834 11.2402Z" fill="#7D4533"/>
        <path d="M11.0125 23.0202C7.06082 21.6581 4.12549 21.9275 2 22.4664V29.9955H30V22.4609C26.8267 23.8679 23.4212 25.0261 20.0084 25.0261C16.5956 25.0261 14.9641 24.3824 11.0125 23.0202Z" fill="#00D26A"/>
      </g>
    </g>
    <text id="ITEM_5_HEAD" x="0.0" y="138.0" text-anchor="middle" font-size="40" font-weight="800" fill="var(--accent-2)" data-bg-id="ITEM_5_BG" data-max-lines="3" data-min-font-size="14" fill-opacity="1.0" stroke="none" style="font-size: 31px; font-family: 'Segoe UI Variable Display', 'Aptos Display', 'Inter', 'Segoe UI', Helvetica, Arial, sans-serif; font-weight: 700; font-kerning: normal; font-feature-settings: &quot;kern&quot; 1, &quot;liga&quot; 1; letter-spacing:-0.4px;" data-final-font-size="31">
      <tspan x="0.0" dy="47.28px">Remote Observations</tspan>
    </text>
    <rect id="ITEM_5_HEAD_FRAME" x="-194" y="138" width="388" height="68" fill="none"/>
    <text id="ITEM_5_BODY" x="0.0" y="202.0" text-anchor="middle" font-size="24" fill="var(--primary-text)" data-bg-id="ITEM_5_BG" data-max-lines="5" style="font-size: 23px; font-family: 'Segoe UI Variable Text', 'Aptos', 'Inter', 'Segoe UI', Helvetica, Arial, sans-serif; font-weight: 400; font-kerning: normal; font-feature-settings: &quot;kern&quot; 1, &quot;liga&quot; 1;" data-final-font-size="23">
      <tspan x="0.0" dy="35.64px">Distant lights viewed against dark</tspan>
      <tspan x="0.0" dy="26.45px">highland backgrounds</tspan>
    </text>
    <rect id="ITEM_5_BODY_FRAME" x="-214" y="202" width="428" height="122" fill="none"/>
  </g>
  <text id="SOURCE_NOTE" x="134.0" y="1058.0" fill="var(--muted-text)" opacity="0.88" style="font-family: var(--font-family); font-size: 20px;">Source: Introduction</text>
</svg>
