<?xml version='1.0' encoding='utf-8'?>
<svg xmlns="http://www.w3.org/2000/svg" width="1920" height="1080" viewBox="0 0 1920 1080" data-theme="dark" data-semantic-intent="loop_system" data-relation-type="taxonomy" data-site-visual-identity="signal-cobalt">
  <style>
        @font-face {
            font-family: 'Inter';
            src: url('assets/fonts/Inter-Regular.ttf') format('truetype');
            font-weight: 400;
            font-style: normal;
            font-display: swap;
        }
        @font-face {
            font-family: 'Inter';
            src: url('assets/fonts/Inter-Bold.ttf') format('truetype');
            font-weight: 600;
            font-style: normal;
            font-display: swap;
        }
        @font-face {
            font-family: 'Inter';
            src: url('assets/fonts/Inter-Bold.ttf') format('truetype');
            font-weight: 800;
            font-style: normal;
            font-display: swap;
        }
        
:root {
    --background: #0f172a;
    --panel: #1e293b;
    --primary-text: #f1f5f9;
    --muted-text: #94a3b8;
    --inverse-text: #0f172a;
    --border: #334155;
    --shadow-color: #000000;
    --icon-pad-bg: #1e293b;
    --art-glow: #7dd3fc;
    --art-glow-opacity: 0.18;
    --art-sheen: #ffffff;
    --art-sheen-opacity: 0.18;
    --art-shadow: #000000;
    --art-shadow-opacity: 0.28;
    --art-muted-line: #64748b;
    --art-panel-tint: #1e293b;
    --semantic-risk: #f87171;
    --semantic-warning: #fb923c;
    --semantic-uncertain: #fbbf24;
    --semantic-evidence: #60a5fa;
    --semantic-claim: #c084fc;
    --semantic-positive: #4ade80;
    --semantic-outcome: #22d3ee;
    --font-family: 'Inter', 'Segoe UI', 'Kalam', Roboto, Helvetica, Arial, sans-serif;
    --radius-xl: 16px;
    --font-family-headline: 'Segoe UI Variable Display', 'Aptos Display', 'Inter', 'Segoe UI', Helvetica, Arial, sans-serif;
    --font-family-body: 'Segoe UI Variable Text', 'Aptos', 'Inter', 'Segoe UI', Helvetica, Arial, sans-serif;
    --font-heading: var(--font-family-headline);
    --font-body: var(--font-family-body);
    --font-size-h1: 64px;
    --font-size-h2: 42px;
    --font-size-h3: 29px;
    --font-size-body: 21px;
    --font-size-caption: 17px;
    --secondary-text: var(--muted-text);
    --panel-border: var(--border);
    --font-weight-normal: 400;
    --font-weight-medium: 500;
    --font-weight-semibold: 600;
    --font-weight-bold: 700;
    --spacing-gutter-pct: 0.07;
    --spacing-top-pct: 0.15;
    --spacing-bottom-pct: 0.07;
    --spacing-title-y-pct: 0.055;
    --accent-1: #93c5fd;
    --accent-2: #60a5fa;
    --accent-3: #818cf8;
    --accent-4: #a78bfa;
    --accent-5: #38bdf8;
    --accent-6: #fb923c;
}
:root[data-theme="dark"] {
    --background: #0f172a;
    --panel: #1e293b;
    --primary-text: #f1f5f9;
    --muted-text: #94a3b8;
    --inverse-text: #0f172a;
    --border: #334155;
    --shadow-color: #000000;
    --icon-pad-bg: #1e293b;
    --art-glow: #7dd3fc;
    --art-glow-opacity: 0.18;
    --art-sheen: #ffffff;
    --art-sheen-opacity: 0.18;
    --art-shadow: #000000;
    --art-shadow-opacity: 0.28;
    --art-muted-line: #64748b;
    --art-panel-tint: #1e293b;
    --semantic-risk: #f87171;
    --semantic-warning: #fb923c;
    --semantic-uncertain: #fbbf24;
    --semantic-evidence: #60a5fa;
    --semantic-claim: #c084fc;
    --semantic-positive: #4ade80;
    --semantic-outcome: #22d3ee;
    --accent-1: #93c5fd;
    --accent-2: #60a5fa;
    --accent-3: #818cf8;
    --accent-4: #a78bfa;
    --accent-5: #38bdf8;
    --accent-6: #fb923c;
}
:root[data-theme="light"] {
    --background: #f8fafc;
    --panel: #ffffff;
    --primary-text: #0f172a;
    --muted-text: #64748b;
    --inverse-text: #ffffff;
    --border: #e2e8f0;
    --shadow-color: #000000;
    --icon-pad-bg: #1e293b;
    --art-glow: #0891b2;
    --art-glow-opacity: 0.10;
    --art-sheen: #ffffff;
    --art-sheen-opacity: 0.34;
    --art-shadow: #0f172a;
    --art-shadow-opacity: 0.14;
    --art-muted-line: #94a3b8;
    --art-panel-tint: #f1f5f9;
    --semantic-risk: #b91c1c;
    --semantic-warning: #c2410c;
    --semantic-uncertain: #a16207;
    --semantic-evidence: #1d4ed8;
    --semantic-claim: #6d28d9;
    --semantic-positive: #15803d;
    --semantic-outcome: #0e7490;
    --accent-1: #1d4ed8;
    --accent-2: #2563eb;
    --accent-3: #4f46e5;
    --accent-4: #6d28d9;
    --accent-5: #0369a1;
    --accent-6: #c2410c;
}</style>
  <rect x="0" y="0" width="1.92E+3" height="1.08E+3" fill="#252a34" stroke="none" id="programmatic_background"/>
  <line id="HEADER_DECOR" x1="960.0" x2="1080.0" y1="90.0" y2="90.0" stroke="var(--accent-1)" stroke-width="6" stroke-linecap="round"/>
  <defs>
    <pattern id="svg6e0105ce-napkin-hatch" patternUnits="userSpaceOnUse" width="12" height="12">
      <path d="M -3 12 L 12 -3 M 0 15 L 15 0" fill="none" stroke="var(--primary-text)" stroke-width="1" stroke-opacity="0.05"/>
    </pattern>
    <filter id="svg6e0105ce-shadow" x="-30%" y="-30%" width="160%" height="160%">
      <feDropShadow dx="0" dy="2" stdDeviation="3" flood-color="#000000" flood-opacity="0.08"/>
      <feDropShadow dx="0" dy="6" stdDeviation="10" flood-color="#000000" flood-opacity="0.12"/>
    </filter>
    <marker id="svg6e0105ce-arrowhead" markerWidth="10" markerHeight="10" refX="9" refY="5" orient="auto">
      <path d="M 0 0 L 10 5 L 0 10 Z" fill="var(--accent-1)"/>
    </marker>
    <filter id="svg6e0105ce-text-glow" x="-20%" y="-20%" width="140%" height="140%">
      <feDropShadow dx="0" dy="0" stdDeviation="2" flood-color="#000000" flood-opacity="0.4"/>
    </filter>
    <path id="svg6e0105ce-hex-shape" d="M 129.9 0 L 259.8 75 L 259.8 225 L 129.9 300 L 0 225 L 0 75 Z"/>
    <filter id="svg6e0105ce-glow" x="-30%" y="-30%" width="210%" height="210%">
      <feDropShadow dx="0" dy="0" stdDeviation="15" flood-color="var(--accent-1)" flood-opacity="0.1"/>
    </filter>
    <filter id="svg6e0105ce-hub-glow" x="-50%" y="-50%" width="200%" height="200%">
      <feGaussianBlur stdDeviation="15" result="blur"/>
      <feComposite in_="SourceGraphic" in2="blur" operator="over"/>
    </filter>
    <radialGradient id="svg6e0105ce-universal-edge-vignette" cx="50%" cy="50%" r="72%">
      <stop offset="0%" stop-color="var(--background)" stop-opacity="0"/>
      <stop offset="72%" stop-color="var(--background)" stop-opacity="0.12"/>
      <stop offset="100%" stop-color="var(--primary-text)" stop-opacity="0.08"/>
    </radialGradient>
    <linearGradient id="svg6e0105ce-universal-surface-sheen" x1="0%" y1="0%" x2="100%" y2="100%">
      <stop offset="0%" stop-color="var(--art-sheen)" stop-opacity="var(--art-sheen-opacity)"/>
      <stop offset="46%" stop-color="var(--art-sheen)" stop-opacity="0.035"/>
      <stop offset="100%" stop-color="var(--art-panel-tint)" stop-opacity="0.14"/>
    </linearGradient>
    <radialGradient id="svg6e0105ce-universal-icon-aura" cx="50%" cy="42%" r="64%">
      <stop offset="0%" stop-color="var(--art-glow)" stop-opacity="var(--art-glow-opacity)"/>
      <stop offset="100%" stop-color="var(--background)" stop-opacity="0"/>
    </radialGradient>
  </defs>
  <rect width="100%" height="100%" fill="var(--background)" id="CANVAS_BG"/>
  <rect width="100%" height="100%" fill="url(#svg6e0105ce-napkin-hatch)"/>
  <rect id="UNIVERSAL_EDGE_VIGNETTE" width="100%" height="100%" fill="url(#svg6e0105ce-universal-edge-vignette)" opacity="0.62"/>
  <text id="TITLE" x="960.0" y="59" text-anchor="middle" font-weight="800" font-size="72" fill="#f1f5f9" style="font-size: 69px; font-family: 'Segoe UI Variable Display', 'Aptos Display', 'Inter', 'Segoe UI', Helvetica, Arial, sans-serif; font-weight: 800; font-kerning: normal; font-feature-settings: &quot;kern&quot; 1, &quot;liga&quot; 1; letter-spacing:-1.2px;" data-final-font-size="69">
    <tspan x="960.0" dy="70.47px">Mechanisms of Reporting Contagion</tspan>
  </text>
  <rect id="TITLE_FRAME" x="134" y="59" width="1652" height="103" fill="none"/>
  <g id="DIAGRAM_SCALER" transform="translate(192, 150) scale(0.80)">
    <g transform="translate(960, 600)">
      <use href="#svg6e0105ce-hex-shape" id="ITEM_1_BG" transform="translate(-130, -150)" fill="var(--accent-1)" fill_opacity="0.15" stroke="var(--accent-1)" filter="url(#svg6e0105ce-hub-glow)" stroke-width="4" fill-opacity="0.4"/>
      <circle cx="0" cy="-35" r="70" fill="var(--background)" opacity="0.4"/>
      <g transform="translate(0, 50)">
        <text id="ITEM_1_HEAD" x="0.0" y="-35.0" text-anchor="middle" font-weight="bold" font-size="40" fill="var(--primary-text)" data-bg-id="ITEM_1_BG" fill-opacity="1.0" stroke="none" style="font-size: 31px; font-family: 'Segoe UI Variable Display', 'Aptos Display', 'Inter', 'Segoe UI', Helvetica, Arial, sans-serif; font-weight: 700; font-kerning: normal; font-feature-settings: &quot;kern&quot; 1, &quot;liga&quot; 1; letter-spacing:-0.4px;" data-final-font-size="31">
          <tspan x="0.0" dy="33.52px">Geographical Linking</tspan>
        </text>
        <rect id="ITEM_1_HEAD_FRAME" x="-190" y="-35" width="380" height="50" fill="none"/>
        <text id="ITEM_1_BODY" x="0.0" y="10.0" text-anchor="middle" font-size="16" fill="var(--primary-text)" data-bg-id="ITEM_1_BG" style="font-size: 23px; font-family: 'Segoe UI Variable Text', 'Aptos', 'Inter', 'Segoe UI', Helvetica, Arial, sans-serif; font-weight: 400; font-kerning: normal; font-feature-settings: &quot;kern&quot; 1, &quot;liga&quot; 1;" data-final-font-size="23">
          <tspan x="0.0" dy="31.82px">Connecting Melbourne and Hamilton</tspan>
          <tspan x="0.0" dy="26.45px">reports into one wave</tspan>
        </text>
        <rect id="ITEM_1_BODY_FRAME" x="-190" y="10" width="380" height="120" fill="none"/>
      </g>
      <circle id="ITEM_1_PAD" cx="0" cy="-35" r="55" fill="var(--icon-pad-bg)" stroke="var(--accent-1)" opacity="1" fill-opacity="0.9" stroke-width="2" stroke-opacity="0.72" data-badge-layer="pad"/>
      <circle id="ITEM_1_PAD_INNER" cx="0" cy="-35" r="42.90" fill="var(--accent-1)" fill-opacity="0.12" stroke="none" data-badge-layer="tint"/>
      <circle cx="0" cy="-35" r="44.0" fill="none" stroke="var(--accent-1)" stroke-width="3" stroke-dasharray="6 4" display="none" data-suppressed-decoration="redundant-badge-ring"/>
      <g id="ITEM_1_ICON" transform="translate(-45, -80)" data-icon-size="90" stroke-linecap="round" stroke-linejoin="round" data-badge-treatment="clean">
        <g transform="translate(-3.813559322033896,-3.813559322033898) scale(4.067796610169491)" vector-effect="non-scaling-stroke" stroke-width="2.79" stroke-linecap="round" stroke-linejoin="round" stroke-opacity="1.0">
          <path d="M12 17v5" vector-effect="non-scaling-stroke" fill="none" stroke="#f1f5f9"/>
          <path d="M9 10.76a2 2 0 0 1-1.11 1.79l-1.78.9A2 2 0 0 0 5 15.24V16a1 1 0 0 0 1 1h12a1 1 0 0 0 1-1v-.76a2 2 0 0 0-1.11-1.79l-1.78-.9A2 2 0 0 1 15 10.76V7a1 1 0 0 1 1-1 2 2 0 0 0 0-4H8a2 2 0 0 0 0 4 1 1 0 0 1 1 1z" vector-effect="non-scaling-stroke" fill="none" stroke="#f1f5f9"/>
        </g>
      </g>
    </g>
    <g transform="translate(960.0, 240.0)">
      <use href="#svg6e0105ce-hex-shape" id="ITEM_2_BG" transform="translate(-130, -150)" fill="var(--accent-2)" fill_opacity="0.12" stroke="var(--accent-2)" stroke-width="3" fill-opacity="0.4"/>
      <circle cx="0" cy="0" r="75" fill="var(--background)" opacity="0.5"/>
      <line x1="0" y1="0" x2="-0.0" y2="225.0" stroke="var(--muted-text)" opacity="0.6" stroke-width="2.5" stroke-dasharray="4 4"/>
      <g transform="translate(220.0, -15.0)">
        <text id="ITEM_2_HEAD" x="10.0" y="-35.0" text-anchor="start" font-weight="bold" font-size="42" fill="var(--primary-text)" data-bg-id="ITEM_2_BG" fill-opacity="1.0" stroke="none" style="font-size: 31px; font-family: 'Segoe UI Variable Display', 'Aptos Display', 'Inter', 'Segoe UI', Helvetica, Arial, sans-serif; font-weight: 700; font-kerning: normal; font-feature-settings: &quot;kern&quot; 1, &quot;liga&quot; 1; letter-spacing:-0.4px;" data-final-font-size="31">
          <tspan x="10.0" dy="33.52px">Numerical Accumulation</tspan>
        </text>
        <rect id="ITEM_2_HEAD_FRAME" x="10" y="-35" width="380" height="50" fill="none"/>
        <text id="ITEM_2_BODY" x="10.0" y="10.0" text-anchor="start" font-size="28" fill="var(--primary-text)" data-bg-id="ITEM_2_BG" style="font-size: 23px; font-family: 'Segoe UI Variable Text', 'Aptos', 'Inter', 'Segoe UI', Helvetica, Arial, sans-serif; font-weight: 400; font-kerning: normal; font-feature-settings: &quot;kern&quot; 1, &quot;liga&quot; 1;" data-final-font-size="23">
          <tspan x="10.0" dy="31.82px">Headlines stressing dozens</tspan>
          <tspan x="10.0" dy="26.45px">of reports suggested momentum</tspan>
        </text>
        <rect id="ITEM_2_BODY_FRAME" x="10" y="10" width="380" height="120" fill="none"/>
      </g>
      <circle id="ITEM_2_PAD" cx="0" cy="0" r="50" fill="var(--icon-pad-bg)" stroke="var(--accent-2)" opacity="1" fill-opacity="0.9" stroke-width="2" stroke-opacity="0.72" data-badge-layer="pad"/>
      <circle id="ITEM_2_PAD_INNER" cx="0" cy="0" r="39.00" fill="var(--accent-2)" fill-opacity="0.12" stroke="none" data-badge-layer="tint"/>
      <circle cx="0" cy="0" r="40.0" fill="none" stroke="var(--accent-2)" stroke-width="3" stroke-dasharray="6 4" display="none" data-suppressed-decoration="redundant-badge-ring"/>
      <g id="ITEM_2_ICON" transform="translate(-45, -45)" data-icon-size="90" stroke-linecap="round" stroke-linejoin="round" data-badge-treatment="clean">
        <g transform="translate(-3.8135593220338997,-3.813559322033898) scale(4.067796610169491)" vector-effect="non-scaling-stroke" stroke-width="2.79" stroke-linecap="round" stroke-linejoin="round" stroke-opacity="1.0">
          <rect width="16" height="20" x="4" y="2" rx="2" vector-effect="non-scaling-stroke" fill="none" stroke="#f1f5f9"/>
          <line x1="8" x2="16" y1="6" y2="6" vector-effect="non-scaling-stroke" fill="none" stroke="#f1f5f9"/>
          <line x1="16" x2="16" y1="14" y2="18" vector-effect="non-scaling-stroke" fill="none" stroke="#f1f5f9"/>
          <path d="M16 10h.01" vector-effect="non-scaling-stroke" fill="none" stroke="#f1f5f9"/>
          <path d="M12 10h.01" vector-effect="non-scaling-stroke" fill="none" stroke="#f1f5f9"/>
          <path d="M8 10h.01" vector-effect="non-scaling-stroke" fill="none" stroke="#f1f5f9"/>
          <path d="M12 14h.01" vector-effect="non-scaling-stroke" fill="none" stroke="#f1f5f9"/>
          <path d="M8 14h.01" vector-effect="non-scaling-stroke" fill="none" stroke="#f1f5f9"/>
          <path d="M12 18h.01" vector-effect="non-scaling-stroke" fill="none" stroke="#f1f5f9"/>
          <path d="M8 18h.01" vector-effect="non-scaling-stroke" fill="none" stroke="#f1f5f9"/>
        </g>
      </g>
    </g>
    <g transform="translate(1320.0, 600.0)">
      <use href="#svg6e0105ce-hex-shape" id="ITEM_3_BG" transform="translate(-130, -150)" fill="var(--accent-3)" fill_opacity="0.12" stroke="var(--accent-3)" stroke-width="3" fill-opacity="0.4"/>
      <circle cx="0" cy="0" r="75" fill="var(--background)" opacity="0.5"/>
      <line x1="0" y1="0" x2="-225.0" y2="-0.0" stroke="var(--muted-text)" opacity="0.6" stroke-width="2.5" stroke-dasharray="4 4"/>
      <g transform="translate(220.0, -15.0)">
        <text id="ITEM_3_HEAD" x="10.0" y="-35.0" text-anchor="start" font-weight="bold" font-size="42" fill="var(--primary-text)" data-bg-id="ITEM_3_BG" fill-opacity="1.0" stroke="none" style="font-size: 31px; font-family: 'Segoe UI Variable Display', 'Aptos Display', 'Inter', 'Segoe UI', Helvetica, Arial, sans-serif; font-weight: 700; font-kerning: normal; font-feature-settings: &quot;kern&quot; 1, &quot;liga&quot; 1; letter-spacing:-0.4px;" data-final-font-size="31">
          <tspan x="10.0" dy="33.52px">Public Participation</tspan>
        </text>
        <rect id="ITEM_3_HEAD_FRAME" x="10" y="-35" width="380" height="50" fill="none"/>
        <text id="ITEM_3_BODY" x="10.0" y="10.0" text-anchor="start" font-size="28" fill="var(--primary-text)" data-bg-id="ITEM_3_BG" style="font-size: 23px; font-family: 'Segoe UI Variable Text', 'Aptos', 'Inter', 'Segoe UI', Helvetica, Arial, sans-serif; font-weight: 400; font-kerning: normal; font-feature-settings: &quot;kern&quot; 1, &quot;liga&quot; 1;" data-final-font-size="23">
          <tspan x="10.0" dy="31.82px">Readers submitted accounts</tspan>
          <tspan x="10.0" dy="26.45px">to create a feedback loop</tspan>
        </text>
        <rect id="ITEM_3_BODY_FRAME" x="10" y="10" width="380" height="120" fill="none"/>
      </g>
      <circle id="ITEM_3_PAD" cx="0" cy="0" r="50" fill="var(--icon-pad-bg)" stroke="var(--accent-3)" opacity="1" fill-opacity="0.9" stroke-width="2" stroke-opacity="0.72" data-badge-layer="pad"/>
      <circle id="ITEM_3_PAD_INNER" cx="0" cy="0" r="39.00" fill="var(--accent-3)" fill-opacity="0.12" stroke="none" data-badge-layer="tint"/>
      <circle cx="0" cy="0" r="40.0" fill="none" stroke="var(--accent-3)" stroke-width="3" stroke-dasharray="6 4" display="none" data-suppressed-decoration="redundant-badge-ring"/>
      <g id="ITEM_3_ICON" transform="translate(-45, -45)" data-icon-size="90" stroke-linecap="round" stroke-linejoin="round" data-badge-treatment="clean">
        <g transform="translate(-3.813559322033898,-3.813559322033896) scale(4.067796610169491)" vector-effect="non-scaling-stroke" stroke-width="2.79" stroke-linecap="round" stroke-linejoin="round" stroke-opacity="1.0">
          <path d="M22 17a2 2 0 0 1-2 2H4a2 2 0 0 1-2-2V9.5C2 7 4 5 6.5 5H18c2.2 0 4 1.8 4 4v8Z" vector-effect="non-scaling-stroke" fill="none" stroke="#f1f5f9"/>
          <polyline points="15,9 18,9 18,11" vector-effect="non-scaling-stroke" fill="none" stroke="#f1f5f9"/>
          <path d="M6.5 5C9 5 11 7 11 9.5V17a2 2 0 0 1-2 2" vector-effect="non-scaling-stroke" fill="none" stroke="#f1f5f9"/>
          <line x1="6" x2="7" y1="10" y2="10" vector-effect="non-scaling-stroke" fill="none" stroke="#f1f5f9"/>
        </g>
      </g>
    </g>
    <g transform="translate(960.0, 960.0)">
      <use href="#svg6e0105ce-hex-shape" id="ITEM_4_BG" transform="translate(-130, -150)" fill="var(--accent-1)" fill_opacity="0.12" stroke="var(--accent-4)" stroke-width="3" fill-opacity="0.4"/>
      <circle cx="0" cy="0" r="75" fill="var(--background)" opacity="0.5"/>
      <line x1="0" y1="0" x2="-0.0" y2="-225.0" stroke="var(--muted-text)" opacity="0.6" stroke-width="2.5" stroke-dasharray="4 4"/>
      <g transform="translate(220.0, -15.0)">
        <text id="ITEM_4_HEAD" x="10.0" y="-35.0" text-anchor="start" font-weight="bold" font-size="42" fill="var(--primary-text)" data-bg-id="ITEM_4_BG" fill-opacity="1.0" stroke="none" style="font-size: 31px; font-family: 'Segoe UI Variable Display', 'Aptos Display', 'Inter', 'Segoe UI', Helvetica, Arial, sans-serif; font-weight: 700; font-kerning: normal; font-feature-settings: &quot;kern&quot; 1, &quot;liga&quot; 1; letter-spacing:-0.4px;" data-final-font-size="31">
          <tspan x="10.0" dy="33.52px">Label Standardization</tspan>
        </text>
        <rect id="ITEM_4_HEAD_FRAME" x="10" y="-35" width="380" height="50" fill="none"/>
        <text id="ITEM_4_BODY" x="10.0" y="10.0" text-anchor="start" font-size="28" fill="var(--primary-text)" data-bg-id="ITEM_4_BG" style="font-size: 23px; font-family: 'Segoe UI Variable Text', 'Aptos', 'Inter', 'Segoe UI', Helvetica, Arial, sans-serif; font-weight: 400; font-kerning: normal; font-feature-settings: &quot;kern&quot; 1, &quot;liga&quot; 1;" data-final-font-size="23">
          <tspan x="10.0" dy="31.82px">Using consistent terms like flying</tspan>
          <tspan x="10.0" dy="26.45px">saucer and disc</tspan>
        </text>
        <rect id="ITEM_4_BODY_FRAME" x="10" y="10" width="380" height="120" fill="none"/>
      </g>
      <circle id="ITEM_4_PAD" cx="0" cy="0" r="50" fill="var(--icon-pad-bg)" stroke="var(--accent-1)" opacity="1" fill-opacity="0.9" stroke-width="2" stroke-opacity="0.72" data-badge-layer="pad"/>
      <circle id="ITEM_4_PAD_INNER" cx="0" cy="0" r="39.00" fill="var(--accent-1)" fill-opacity="0.12" stroke="none" data-badge-layer="tint"/>
      <circle cx="0" cy="0" r="40.0" fill="none" stroke="var(--accent-4)" stroke-width="3" stroke-dasharray="6 4" display="none" data-suppressed-decoration="redundant-badge-ring"/>
      <g id="ITEM_4_ICON" transform="translate(-45, -45)" data-icon-size="90" stroke-linecap="round" stroke-linejoin="round" data-badge-treatment="clean">
        <g transform="translate(-3.0,-3.0) scale(0.1875)" vector-effect="non-scaling-stroke" fill="#f1f5f9" fill-opacity="1.0" stroke="none">
          <path fill="#f1f5f9" d="M303.297 42.269q-2.31.037-4.476.158c-11.55.649-19.422 3.475-22.47 6.438L18.923 299.087L184.807 469.75l257.43-250.222c3.047-2.963 6.096-10.75 7.072-22.278s.207-26.288-1.645-42.248c-1.605-13.84-3.991-28.476-6.597-42.96c-12.99 9.51-28.1 16.583-48.25 20.222a40 40 0 0 1-11.38 36.191a40 40 0 0 1-56.562-.802a40 40 0 0 1 .803-56.563a40 40 0 0 1 29.031-11.3a40 40 0 0 1 27.532 12.103a40 40 0 0 1 2.998 3.5c24.115-3.229 38.245-11.132 52.109-23.326c-1.891-9.87-3.776-19.475-5.47-28.424c-27.556-6.032-61.042-14.049-90.872-18.371c-11.925-1.728-23.195-2.83-32.957-2.998q-2.441-.042-4.752-.004zm159.469 34.836c-3.39.175-6.773 1.444-9.342 3.283a2734 2734 0 0 1 3.7 19.365l5.326-3.707c.268.372.45.517.765 1.106c2.648 4.937 5.797 16.02 7.912 30.437c4.231 28.833 5.344 71.6 1.848 116.16s-11.623 91.069-25.262 127.625c-13.639 36.557-32.614 61.986-55.453 68.49c-8.264 2.354-12.21.983-16.803-3.57c-4.593-4.552-9.035-13.679-12.054-26.199c-5.115-21.207-6.457-51.417-5.526-83.469l-18.336 17.824c-.067 25.974 1.633 50.248 6.364 69.864c3.443 14.277 8.383 26.341 16.882 34.765s21.359 11.814 34.405 8.098c31.734-9.038 52.827-40.494 67.384-79.512s22.756-86.771 26.344-132.508c3.589-45.736 2.547-89.302-1.984-120.181c-2.266-15.44-5.15-27.556-9.858-36.332c-2.353-4.388-5.217-8.459-10.513-10.627c-1.324-.542-2.736-.832-4.174-.91q-.81-.044-1.625-.002M293.1 187.796l12.549 12.906l-29.38 28.563c6.195 6.952 11.437 14.253 15.71 21.908c5.1 9.1 8.755 18.47 10.96 28.12l-16.91 16.212q-1.421-16.44-7.652-30.496t-17.27-25.57q-21.758-22.696-44.751-22.59q-22.914.189-46.744 23.035q-23.752 22.772-24.907 45.656q-1.074 22.969 20.684 45.664q8.498 8.864 16.584 14.463q8.164 5.526 16.553 8.135l31.539-30.236l-26.205-27.336l13.054-12.516l42.09 43.9l-50.416 48.335q-15.82-3.435-30.398-11.872c-8.672-5.09-16.86-11.463-24.569-19.097l-25.826 24.635l-12.424-13.026l26.303-25.088c-12.28-16.036-18.338-32.69-18.164-49.963q.48-31.775 29.188-59.298q27.885-26.735 58.498-26.692q.987.002 1.976.031c17.69.524 34.44 7.564 50.254 21.069z" vector-effect="non-scaling-stroke" stroke="none"/>
        </g>
      </g>
    </g>
    <g transform="translate(600.0, 600.0)">
      <use href="#svg6e0105ce-hex-shape" id="ITEM_5_BG" transform="translate(-130, -150)" fill="var(--accent-2)" fill_opacity="0.12" stroke="var(--accent-5)" stroke-width="3" fill-opacity="0.4"/>
      <circle cx="0" cy="0" r="75" fill="var(--background)" opacity="0.5"/>
      <line x1="0" y1="0" x2="225.0" y2="-0.0" stroke="var(--muted-text)" opacity="0.6" stroke-width="2.5" stroke-dasharray="4 4"/>
      <g transform="translate(-220.0, -15.0)">
        <text id="ITEM_5_HEAD" x="-10.0" y="-35.0" text-anchor="end" font-weight="bold" font-size="42" fill="var(--primary-text)" data-bg-id="ITEM_5_BG" fill-opacity="1.0" stroke="none" style="font-size: 31px; font-family: 'Segoe UI Variable Display', 'Aptos Display', 'Inter', 'Segoe UI', Helvetica, Arial, sans-serif; font-weight: 700; font-kerning: normal; font-feature-settings: &quot;kern&quot; 1, &quot;liga&quot; 1; letter-spacing:-0.4px;" data-final-font-size="31">
          <tspan x="-10.0" dy="33.52px">Credibility Anchoring</tspan>
        </text>
        <rect id="ITEM_5_HEAD_FRAME" x="-390" y="-35" width="380" height="50" fill="none"/>
        <text id="ITEM_5_BODY" x="-10.0" y="10.0" text-anchor="end" font-size="28" fill="var(--primary-text)" data-bg-id="ITEM_5_BG" style="font-size: 23px; font-family: 'Segoe UI Variable Text', 'Aptos', 'Inter', 'Segoe UI', Helvetica, Arial, sans-serif; font-weight: 400; font-kerning: normal; font-feature-settings: &quot;kern&quot; 1, &quot;liga&quot; 1;" data-final-font-size="23">
          <tspan x="-10.0" dy="31.82px">Using professional pilot accounts</tspan>
          <tspan x="-10.0" dy="26.45px">as a starting point</tspan>
        </text>
        <rect id="ITEM_5_BODY_FRAME" x="-390" y="10" width="380" height="120" fill="none"/>
      </g>
      <circle id="ITEM_5_PAD" cx="0" cy="0" r="50" fill="var(--icon-pad-bg)" stroke="var(--accent-2)" opacity="1" fill-opacity="0.9" stroke-width="2" stroke-opacity="0.72" data-badge-layer="pad"/>
      <circle id="ITEM_5_PAD_INNER" cx="0" cy="0" r="39.00" fill="var(--accent-2)" fill-opacity="0.12" stroke="none" data-badge-layer="tint"/>
      <circle cx="0" cy="0" r="40.0" fill="none" stroke="var(--accent-5)" stroke-width="3" stroke-dasharray="6 4" display="none" data-suppressed-decoration="redundant-badge-ring"/>
      <g id="ITEM_5_ICON" transform="translate(-45, -45)" data-icon-size="90" stroke-linecap="round" stroke-linejoin="round" data-badge-treatment="clean">
        <g transform="translate(-8.333333333333334,-8.333333333333336) scale(4.444444444444445)" vector-effect="non-scaling-stroke" stroke-width="2.79" stroke-linecap="round" stroke-linejoin="round" stroke-opacity="1.0">
          <path d="M3 7a2 2 0 0 1 2 -2h14a2 2 0 0 1 2 2v10a2 2 0 0 1 -2 2h-14a2 2 0 0 1 -2 -2z" vector-effect="non-scaling-stroke" fill="none" stroke="#f1f5f9"/>
          <path d="M14 9v6" vector-effect="non-scaling-stroke" fill="none" stroke="#f1f5f9"/>
          <path d="M17 9l-2 3l2 3" vector-effect="non-scaling-stroke" fill="none" stroke="#f1f5f9"/>
          <path d="M15 12h-1" vector-effect="non-scaling-stroke" fill="none" stroke="#f1f5f9"/>
          <path d="M7 9h2a1 1 0 0 1 1 1v1a1 1 0 0 1 -1 1h-1a1 1 0 0 0 -1 1v1a1 1 0 0 0 1 1h2" vector-effect="non-scaling-stroke" fill="none" stroke="#f1f5f9"/>
        </g>
      </g>
    </g>
  </g>
  <text id="SOURCE_NOTE" x="134.0" y="1058.0" fill="var(--muted-text)" opacity="0.88" style="font-family: var(--font-family); font-size: 20px;">Source: Introduction</text>
</svg>
