<?xml version='1.0' encoding='utf-8'?>
<svg xmlns="http://www.w3.org/2000/svg" width="1920" height="1080" viewBox="0 0 1920 1080" data-theme="dark" data-semantic-intent="uncertain_compare" data-relation-type="hypothesis_comparison" data-site-visual-identity="signal-cobalt">
  <style>
        @font-face {
            font-family: 'Inter';
            src: url('assets/fonts/Inter-Regular.ttf') format('truetype');
            font-weight: 400;
            font-style: normal;
            font-display: swap;
        }
        @font-face {
            font-family: 'Inter';
            src: url('assets/fonts/Inter-Bold.ttf') format('truetype');
            font-weight: 600;
            font-style: normal;
            font-display: swap;
        }
        @font-face {
            font-family: 'Inter';
            src: url('assets/fonts/Inter-Bold.ttf') format('truetype');
            font-weight: 800;
            font-style: normal;
            font-display: swap;
        }
        
:root {
    --background: #0f172a;
    --panel: #1e293b;
    --primary-text: #f1f5f9;
    --muted-text: #94a3b8;
    --inverse-text: #0f172a;
    --border: #334155;
    --shadow-color: #000000;
    --icon-pad-bg: #1e293b;
    --art-glow: #7dd3fc;
    --art-glow-opacity: 0.18;
    --art-sheen: #ffffff;
    --art-sheen-opacity: 0.18;
    --art-shadow: #000000;
    --art-shadow-opacity: 0.28;
    --art-muted-line: #64748b;
    --art-panel-tint: #1e293b;
    --semantic-risk: #f87171;
    --semantic-warning: #fb923c;
    --semantic-uncertain: #fbbf24;
    --semantic-evidence: #60a5fa;
    --semantic-claim: #c084fc;
    --semantic-positive: #4ade80;
    --semantic-outcome: #22d3ee;
    --font-family: 'Inter', 'Segoe UI', 'Kalam', Roboto, Helvetica, Arial, sans-serif;
    --radius-xl: 16px;
    --font-family-headline: 'Segoe UI Variable Display', 'Aptos Display', 'Inter', 'Segoe UI', Helvetica, Arial, sans-serif;
    --font-family-body: 'Segoe UI Variable Text', 'Aptos', 'Inter', 'Segoe UI', Helvetica, Arial, sans-serif;
    --font-heading: var(--font-family-headline);
    --font-body: var(--font-family-body);
    --font-size-h1: 64px;
    --font-size-h2: 42px;
    --font-size-h3: 29px;
    --font-size-body: 21px;
    --font-size-caption: 17px;
    --secondary-text: var(--muted-text);
    --panel-border: var(--border);
    --font-weight-normal: 400;
    --font-weight-medium: 500;
    --font-weight-semibold: 600;
    --font-weight-bold: 700;
    --spacing-gutter-pct: 0.07;
    --spacing-top-pct: 0.15;
    --spacing-bottom-pct: 0.07;
    --spacing-title-y-pct: 0.055;
    --accent-1: #93c5fd;
    --accent-2: #60a5fa;
    --accent-3: #818cf8;
    --accent-4: #a78bfa;
    --accent-5: #38bdf8;
    --accent-6: #fb923c;
}
:root[data-theme="dark"] {
    --background: #0f172a;
    --panel: #1e293b;
    --primary-text: #f1f5f9;
    --muted-text: #94a3b8;
    --inverse-text: #0f172a;
    --border: #334155;
    --shadow-color: #000000;
    --icon-pad-bg: #1e293b;
    --art-glow: #7dd3fc;
    --art-glow-opacity: 0.18;
    --art-sheen: #ffffff;
    --art-sheen-opacity: 0.18;
    --art-shadow: #000000;
    --art-shadow-opacity: 0.28;
    --art-muted-line: #64748b;
    --art-panel-tint: #1e293b;
    --semantic-risk: #f87171;
    --semantic-warning: #fb923c;
    --semantic-uncertain: #fbbf24;
    --semantic-evidence: #60a5fa;
    --semantic-claim: #c084fc;
    --semantic-positive: #4ade80;
    --semantic-outcome: #22d3ee;
    --accent-1: #93c5fd;
    --accent-2: #60a5fa;
    --accent-3: #818cf8;
    --accent-4: #a78bfa;
    --accent-5: #38bdf8;
    --accent-6: #fb923c;
}
:root[data-theme="light"] {
    --background: #f8fafc;
    --panel: #ffffff;
    --primary-text: #0f172a;
    --muted-text: #64748b;
    --inverse-text: #ffffff;
    --border: #e2e8f0;
    --shadow-color: #000000;
    --icon-pad-bg: #1e293b;
    --art-glow: #0891b2;
    --art-glow-opacity: 0.10;
    --art-sheen: #ffffff;
    --art-sheen-opacity: 0.34;
    --art-shadow: #0f172a;
    --art-shadow-opacity: 0.14;
    --art-muted-line: #94a3b8;
    --art-panel-tint: #f1f5f9;
    --semantic-risk: #b91c1c;
    --semantic-warning: #c2410c;
    --semantic-uncertain: #a16207;
    --semantic-evidence: #1d4ed8;
    --semantic-claim: #6d28d9;
    --semantic-positive: #15803d;
    --semantic-outcome: #0e7490;
    --accent-1: #1d4ed8;
    --accent-2: #2563eb;
    --accent-3: #4f46e5;
    --accent-4: #6d28d9;
    --accent-5: #0369a1;
    --accent-6: #c2410c;
}</style>
  <rect x="0" y="0" width="1.92E+3" height="1.08E+3" fill="#252a34" stroke="none" id="programmatic_background"/>
  <line id="HEADER_DECOR" x1="960.0" x2="1080.0" y1="135.0" y2="135.0" stroke="var(--accent-1)" stroke-width="6" stroke-linecap="round"/>
  <defs>
    <pattern id="svge0dd54a5-napkin-hatch" patternUnits="userSpaceOnUse" width="12" height="12">
      <path d="M -3 12 L 12 -3 M 0 15 L 15 0" fill="none" stroke="var(--primary-text)" stroke-width="1" stroke-opacity="0.05"/>
    </pattern>
    <filter id="svge0dd54a5-shadow" x="-30%" y="-30%" width="160%" height="160%">
      <feDropShadow dx="0" dy="2" stdDeviation="3" flood-color="#000000" flood-opacity="0.08"/>
      <feDropShadow dx="0" dy="6" stdDeviation="10" flood-color="#000000" flood-opacity="0.12"/>
    </filter>
    <radialGradient id="svge0dd54a5-universal-edge-vignette" cx="50%" cy="50%" r="72%">
      <stop offset="0%" stop-color="var(--background)" stop-opacity="0"/>
      <stop offset="72%" stop-color="var(--background)" stop-opacity="0.12"/>
      <stop offset="100%" stop-color="var(--primary-text)" stop-opacity="0.08"/>
    </radialGradient>
    <linearGradient id="svge0dd54a5-universal-surface-sheen" x1="0%" y1="0%" x2="100%" y2="100%">
      <stop offset="0%" stop-color="var(--art-sheen)" stop-opacity="var(--art-sheen-opacity)"/>
      <stop offset="46%" stop-color="var(--art-sheen)" stop-opacity="0.035"/>
      <stop offset="100%" stop-color="var(--art-panel-tint)" stop-opacity="0.14"/>
    </linearGradient>
    <radialGradient id="svge0dd54a5-universal-icon-aura" cx="50%" cy="42%" r="64%">
      <stop offset="0%" stop-color="var(--art-glow)" stop-opacity="var(--art-glow-opacity)"/>
      <stop offset="100%" stop-color="var(--background)" stop-opacity="0"/>
    </radialGradient>
    <linearGradient id="svge0dd54a5-fact-card-sheen" x1="0%" y1="0%" x2="100%" y2="100%">
      <stop offset="0%" stop-color="var(--inverse-text)" stop-opacity="0.18"/>
      <stop offset="54%" stop-color="var(--inverse-text)" stop-opacity="0.04"/>
      <stop offset="100%" stop-color="var(--background)" stop-opacity="0.14"/>
    </linearGradient>
    <radialGradient id="svge0dd54a5-fact-icon-glow" cx="50%" cy="42%" r="62%">
      <stop offset="0%" stop-color="var(--inverse-text)" stop-opacity="0.22"/>
      <stop offset="100%" stop-color="var(--background)" stop-opacity="0"/>
    </radialGradient>
    <filter id="svge0dd54a5-text-glow" x="-20%" y="-20%" width="140%" height="140%">
      <feDropShadow dx="0" dy="0" stdDeviation="2" flood-color="#000000" flood-opacity="0.4"/>
    </filter>
    <marker id="svge0dd54a5-arrowhead" markerWidth="10" markerHeight="7" refX="9" refY="3.5" orient="auto" markerUnits="strokeWidth">
      <polygon points="0 0, 10 3.5, 0 7" fill="var(--muted-text)" opacity="0.6"/>
    </marker>
  </defs>
  <rect width="100%" height="100%" fill="var(--background)" id="CANVAS_BG"/>
  <rect width="100%" height="100%" fill="url(#svge0dd54a5-napkin-hatch)"/>
  <rect id="UNIVERSAL_EDGE_VIGNETTE" width="100%" height="100%" fill="url(#svge0dd54a5-universal-edge-vignette)" opacity="0.62"/>
  <line x1="960" y1="178" x2="960" y2="986" stroke="var(--muted-text)" stroke-width="5" stroke-opacity="0.10" stroke-linecap="round"/>
  <path d="M 360 178 C 620 152 1300 152 1560 178" fill="none" stroke="var(--primary-text)" stroke-width="2" stroke-opacity="0.12" stroke-linecap="round"/>
  <text id="TITLE" x="960.0" y="59" font-size="72" font-weight="800" fill="#f1f5f9" style="font-size: 69px; font-family: 'Segoe UI Variable Display', 'Aptos Display', 'Inter', 'Segoe UI', Helvetica, Arial, sans-serif; font-weight: 800; font-kerning: normal; font-feature-settings: &quot;kern&quot; 1, &quot;liga&quot; 1; letter-spacing:-1.2px;" text-anchor="middle" data-final-font-size="69">
    <tspan x="960.0" dy="70.47px">Interpretations of the Burst Tyre</tspan>
  </text>
  <rect id="TITLE_FRAME" x="134" y="59" width="1652" height="103" fill="none"/>
  <g transform="translate(960.0, 220.0)">
    <rect id="ITEM_1_BG" x="-600" y="-64" width="1200" height="184" rx="18" fill="var(--semantic-uncertain)" stroke="var(--accent-1)" filter="url(#svge0dd54a5-shadow)" stroke-width="3" fill-opacity="0.4"/>
    <g transform="translate(-480.0, 0.0)">
      <circle r="45" fill="var(--background)" opacity="0.3"/>
      <circle id="ITEM_1_PAD" cx="0" cy="0" r="42" fill="var(--icon-pad-bg)" stroke="var(--semantic-uncertain)" opacity="1" fill-opacity="0.9" stroke-width="2" stroke-opacity="0.72" data-badge-layer="pad"/>
      <circle id="ITEM_1_PAD_INNER" cx="0" cy="0" r="32.76" fill="var(--semantic-uncertain)" fill-opacity="0.12" stroke="none" data-badge-layer="tint"/>
      <circle cx="0" cy="0" r="34" fill="none" stroke="var(--accent-1)" stroke-width="3" stroke-dasharray="6 4" display="none" data-suppressed-decoration="redundant-badge-ring"/>
      <g id="ITEM_1_ICON" transform="translate(-34, -34)" data-icon-size="68" stroke-linecap="round" stroke-linejoin="round" data-badge-treatment="clean">
        <g transform="translate(-3.5172413793103487,-3.517241379310345) scale(3.1264367816091956)" vector-effect="non-scaling-stroke" stroke-width="2.53" stroke-linecap="round" stroke-linejoin="round" stroke-opacity="1.0">
          <path d="M8 6.5V4.5C8 4.03534 8 3.80302 7.96157 3.60982C7.80376 2.81644 7.18356 2.19624 6.39018 2.03843C6.19698 2 5.96466 2 5.5 2C5.03534 2 4.80302 2 4.60982 2.03843C3.81644 2.19624 3.19624 2.81644 3.03843 3.60982C3 3.80302 3 4.03534 3 4.5V6.5C3 6.96466 3 7.19698 3.03843 7.39018C3.19624 8.18356 3.81644 8.80376 4.60982 8.96157C4.80302 9 5.03534 9 5.5 9C5.96466 9 6.19698 9 6.39018 8.96157C7.18356 8.80376 7.80376 8.18356 7.96157 7.39018C8 7.19698 8 6.96466 8 6.5Z" stroke="#f1f5f9" vector-effect="non-scaling-stroke" fill="none"/>
          <path d="M21 6.5V4.5C21 4.03534 21 3.80302 20.9616 3.60982C20.8038 2.81644 20.1836 2.19624 19.3902 2.03843C19.197 2 18.9647 2 18.5 2C18.0353 2 17.803 2 17.6098 2.03843C16.8164 2.19624 16.1962 2.81644 16.0384 3.60982C16 3.80302 16 4.03534 16 4.5V6.5C16 6.96466 16 7.19698 16.0384 7.39018C16.1962 8.18356 16.8164 8.80376 17.6098 8.96157C17.803 9 18.0353 9 18.5 9C18.9647 9 19.197 9 19.3902 8.96157C20.1836 8.80376 20.8038 8.18356 20.9616 7.39018C21 7.19698 21 6.96466 21 6.5Z" stroke="#f1f5f9" vector-effect="non-scaling-stroke" fill="none"/>
          <path d="M8 19.5V17.5C8 17.0353 8 16.803 7.96157 16.6098C7.80376 15.8164 7.18356 15.1962 6.39018 15.0384C6.19698 15 5.96466 15 5.5 15C5.03534 15 4.80302 15 4.60982 15.0384C3.81644 15.1962 3.19624 15.8164 3.03843 16.6098C3 16.803 3 17.0353 3 17.5V19.5C3 19.9647 3 20.197 3.03843 20.3902C3.19624 21.1836 3.81644 21.8038 4.60982 21.9616C4.80302 22 5.03534 22 5.5 22C5.96466 22 6.19698 22 6.39018 21.9616C7.18356 21.8038 7.80376 21.1836 7.96157 20.3902C8 20.197 8 19.9647 8 19.5Z" stroke="#f1f5f9" vector-effect="non-scaling-stroke" fill="none"/>
          <path d="M21 19.5V17.5C21 17.0353 21 16.803 20.9616 16.6098C20.8038 15.8164 20.1836 15.1962 19.3902 15.0384C19.197 15 18.9647 15 18.5 15C18.0353 15 17.803 15 17.6098 15.0384C16.8164 15.1962 16.1962 15.8164 16.0384 16.6098C16 16.803 16 17.0353 16 17.5V19.5C16 19.9647 16 20.197 16.0384 20.3902C16.1962 21.1836 16.8164 21.8038 17.6098 21.9616C17.803 22 18.0353 22 18.5 22C18.9647 22 19.197 22 19.3902 21.9616C20.1836 21.8038 20.8038 21.1836 20.9616 20.3902C21 20.197 21 19.9647 21 19.5Z" stroke="#f1f5f9" vector-effect="non-scaling-stroke" fill="none"/>
          <path d="M16 18.5H8" stroke="#f1f5f9" vector-effect="non-scaling-stroke" fill="none"/>
          <path d="M16 5.5H8" stroke="#f1f5f9" vector-effect="non-scaling-stroke" fill="none"/>
          <path d="M12 18.5V5.5" stroke="#f1f5f9" vector-effect="non-scaling-stroke" fill="none"/>
        </g>
      </g>
    </g>
    <g transform="translate(-330, -34)">
      <text id="ITEM_1_HEAD" text-anchor="start" font-weight="bold" font-size="29" fill="var(--primary-text)" x="0.0" y="-10.0" data-bg-id="ITEM_1_BG" fill-opacity="1.0" stroke="none" style="font-size: 31px; font-family: 'Segoe UI Variable Display', 'Aptos Display', 'Inter', 'Segoe UI', Helvetica, Arial, sans-serif; font-weight: 700; font-kerning: normal; font-feature-settings: &quot;kern&quot; 1, &quot;liga&quot; 1; letter-spacing:-0.4px;" data-final-font-size="31">
        <tspan x="0.0" dy="33.30px">UFO Interaction Claim</tspan>
      </text>
      <rect id="ITEM_1_HEAD_FRAME" x="0" y="-10" width="846" height="42" fill="none"/>
      <text id="ITEM_1_BODY" text-anchor="start" font-size="21" fill="var(--primary-text)" x="0.0" y="30.0" data-bg-id="ITEM_1_BG" style="font-size: 23px; font-family: 'Segoe UI Variable Text', 'Aptos', 'Inter', 'Segoe UI', Helvetica, Arial, sans-serif; font-weight: 400; font-kerning: normal; font-feature-settings: &quot;kern&quot; 1, &quot;liga&quot; 1;" data-final-font-size="23">
        <tspan x="0.0" dy="40.47px">Vehicle was lifted and dropped by an unknown craft</tspan>
      </text>
      <rect id="ITEM_1_BODY_FRAME" x="0" y="30" width="846" height="114" fill="none"/>
    </g>
  </g>
  <g transform="translate(960.0, 390.0)">
    <rect id="ITEM_2_BG" x="-600" y="-64" width="1200" height="184" rx="18" fill="var(--semantic-evidence)" stroke="var(--accent-2)" filter="url(#svge0dd54a5-shadow)" stroke-width="3" fill-opacity="0.4"/>
    <g transform="translate(-480.0, 0.0)">
      <circle r="45" fill="var(--background)" opacity="0.3"/>
      <circle id="ITEM_2_PAD" cx="0" cy="0" r="42" fill="var(--icon-pad-bg)" stroke="var(--semantic-evidence)" opacity="1" fill-opacity="0.9" stroke-width="2" stroke-opacity="0.72" data-badge-layer="pad"/>
      <circle id="ITEM_2_PAD_INNER" cx="0" cy="0" r="32.76" fill="var(--semantic-evidence)" fill-opacity="0.12" stroke="none" data-badge-layer="tint"/>
      <circle cx="0" cy="0" r="34" fill="none" stroke="var(--accent-1)" stroke-width="3" stroke-dasharray="6 4" display="none" data-suppressed-decoration="redundant-badge-ring"/>
      <g id="ITEM_2_ICON" transform="translate(-34, -34)" data-icon-size="68" stroke-linecap="round" stroke-linejoin="round" data-badge-treatment="clean">
        <g transform="translate(-1.7,-1.9833333333333352) scale(0.14166666666666666)" vector-effect="non-scaling-stroke" fill="#f1f5f9" fill-opacity="1.0" stroke="none">
          <path fill="#f1f5f9" d="M128.844 16.313c-1.26.01-2.52.042-3.75.093c-19.69.814-35.63 6.786-46.625 17.782c-21.992 21.99-23.814 63.782-4.72 115.687s58.568 112.162 113.688 167.28c55.12 55.12 115.376 94.595 167.28 113.69c51.906 19.092 93.73 17.27 115.72-4.72s23.78-63.782 4.687-115.688c-19.094-51.905-58.54-112.195-113.656-167.312C306.35 88.008 246.06 48.563 194.155 29.47c-24.33-8.952-46.42-13.317-65.312-13.157zm34.97 52.156c45.347-.48 113.94 35.972 175.155 97.186c76.95 76.95 114.752 165.567 89.28 205c-16.348-55.695-56.743-120.148-115.438-178.844C254.13 133.127 189.692 92.728 134 76.376c8.06-5.202 18.167-7.784 29.813-7.906zM42.718 70.03L31.78 80.97c-10.986 10.987-16.853 26.35-17.686 46.06c-.834 19.712 3.62 43.48 13.219 69.376C46.508 248.202 86.06 308.372 141.156 363.47c55.097 55.096 115.267 94.646 167.063 113.842c25.896 9.6 49.663 14.052 69.374 13.22c19.71-.834 35.076-6.702 46.062-17.688l10.97-10.97c-25.293 3.142-55.017-1.975-86.345-13.5c-55.3-20.342-117.292-61.23-174.06-118c-56.77-56.768-97.658-118.728-118-174.03c-11.516-31.302-16.626-61.026-13.5-86.313zm77.218 21.876c52.77 13.2 119.523 52.99 179.656 113.125c60.133 60.136 99.926 126.892 113.125 179.657c-41.025 21.154-126.707-16.642-201.408-91.343c-74.715-74.716-112.55-160.424-91.375-201.438z" vector-effect="non-scaling-stroke" stroke="none"/>
        </g>
      </g>
    </g>
    <g transform="translate(-330, -34)">
      <text id="ITEM_2_HEAD" text-anchor="start" font-weight="bold" font-size="29" fill="var(--primary-text)" x="0.0" y="-10.0" data-bg-id="ITEM_2_BG" fill-opacity="1.0" stroke="none" style="font-size: 31px; font-family: 'Segoe UI Variable Display', 'Aptos Display', 'Inter', 'Segoe UI', Helvetica, Arial, sans-serif; font-weight: 700; font-kerning: normal; font-feature-settings: &quot;kern&quot; 1, &quot;liga&quot; 1; letter-spacing:-0.4px;" data-final-font-size="31">
        <tspan x="0.0" dy="33.30px">Mechanical Failure Theory</tspan>
      </text>
      <rect id="ITEM_2_HEAD_FRAME" x="0" y="-10" width="846" height="42" fill="none"/>
      <text id="ITEM_2_BODY" text-anchor="start" font-size="21" fill="var(--primary-text)" x="0.0" y="30.0" data-bg-id="ITEM_2_BG" style="font-size: 23px; font-family: 'Segoe UI Variable Text', 'Aptos', 'Inter', 'Segoe UI', Helvetica, Arial, sans-serif; font-weight: 400; font-kerning: normal; font-feature-settings: &quot;kern&quot; 1, &quot;liga&quot; 1;" data-final-font-size="23">
        <tspan x="0.0" dy="40.47px">High-speed driving caused a standard rubber blowout</tspan>
      </text>
      <rect id="ITEM_2_BODY_FRAME" x="0" y="30" width="846" height="114" fill="none"/>
    </g>
  </g>
  <g transform="translate(960.0, 560.0)">
    <rect id="ITEM_3_BG" x="-600" y="-64" width="1200" height="184" rx="18" fill="var(--semantic-uncertain)" stroke="var(--accent-3)" filter="url(#svge0dd54a5-shadow)" stroke-width="3" fill-opacity="0.4"/>
    <g transform="translate(-480.0, 0.0)">
      <circle r="45" fill="var(--background)" opacity="0.3"/>
      <circle id="ITEM_3_PAD" cx="0" cy="0" r="42" fill="var(--icon-pad-bg)" stroke="var(--semantic-uncertain)" opacity="1" fill-opacity="0.9" stroke-width="2" stroke-opacity="0.72" data-badge-layer="pad"/>
      <circle id="ITEM_3_PAD_INNER" cx="0" cy="0" r="32.76" fill="var(--semantic-uncertain)" fill-opacity="0.12" stroke="none" data-badge-layer="tint"/>
      <circle cx="0" cy="0" r="34" fill="none" stroke="var(--accent-2)" stroke-width="3" stroke-dasharray="6 4" display="none" data-suppressed-decoration="redundant-badge-ring"/>
      <g id="ITEM_3_ICON" transform="translate(-34, -34)" data-icon-size="68" stroke-linecap="round" stroke-linejoin="round" data-badge-treatment="clean">
        <g transform="translate(-6.296296296296296,-6.296296296296294) scale(3.3580246913580245)" vector-effect="non-scaling-stroke" stroke-width="2.53" stroke-linecap="round" stroke-linejoin="round" stroke-opacity="1.0">
          <path d="M3 7c3 -2 6 -2 9 0s6 2 9 0" vector-effect="non-scaling-stroke" fill="none" stroke="#f1f5f9"/>
          <path d="M3 17c3 -2 6 -2 9 0s6 2 9 0" vector-effect="non-scaling-stroke" fill="none" stroke="#f1f5f9"/>
          <path d="M3 12c3 -2 6 -2 9 0s6 2 9 0" vector-effect="non-scaling-stroke" fill="none" stroke="#f1f5f9"/>
        </g>
      </g>
    </g>
    <g transform="translate(-330, -34)">
      <text id="ITEM_3_HEAD" text-anchor="start" font-weight="bold" font-size="29" fill="var(--primary-text)" x="0.0" y="-10.0" data-bg-id="ITEM_3_BG" fill-opacity="1.0" stroke="none" style="font-size: 31px; font-family: 'Segoe UI Variable Display', 'Aptos Display', 'Inter', 'Segoe UI', Helvetica, Arial, sans-serif; font-weight: 700; font-kerning: normal; font-feature-settings: &quot;kern&quot; 1, &quot;liga&quot; 1; letter-spacing:-0.4px;" data-final-font-size="31">
        <tspan x="0.0" dy="33.30px">Vibration Sensations</tspan>
      </text>
      <rect id="ITEM_3_HEAD_FRAME" x="0" y="-10" width="846" height="42" fill="none"/>
      <text id="ITEM_3_BODY" text-anchor="start" font-size="21" fill="var(--primary-text)" x="0.0" y="30.0" data-bg-id="ITEM_3_BG" style="font-size: 23px; font-family: 'Segoe UI Variable Text', 'Aptos', 'Inter', 'Segoe UI', Helvetica, Arial, sans-serif; font-weight: 400; font-kerning: normal; font-feature-settings: &quot;kern&quot; 1, &quot;liga&quot; 1;" data-final-font-size="23">
        <tspan x="0.0" dy="40.47px">Sudden failure produced severe shaking and loud impacts</tspan>
      </text>
      <rect id="ITEM_3_BODY_FRAME" x="0" y="30" width="846" height="114" fill="none"/>
    </g>
  </g>
  <g transform="translate(960.0, 730.0)">
    <rect id="ITEM_4_BG" x="-600" y="-64" width="1200" height="184" rx="18" fill="var(--semantic-evidence)" stroke="var(--accent-4)" filter="url(#svge0dd54a5-shadow)" stroke-width="3" fill-opacity="0.4"/>
    <g transform="translate(-480.0, 0.0)">
      <circle r="45" fill="var(--background)" opacity="0.3"/>
      <circle id="ITEM_4_PAD" cx="0" cy="0" r="42" fill="var(--icon-pad-bg)" stroke="var(--semantic-evidence)" opacity="1" fill-opacity="0.9" stroke-width="2" stroke-opacity="0.72" data-badge-layer="pad"/>
      <circle id="ITEM_4_PAD_INNER" cx="0" cy="0" r="32.76" fill="var(--semantic-evidence)" fill-opacity="0.12" stroke="none" data-badge-layer="tint"/>
      <circle cx="0" cy="0" r="34" fill="none" stroke="var(--accent-3)" stroke-width="3" stroke-dasharray="6 4" display="none" data-suppressed-decoration="redundant-badge-ring"/>
      <g id="ITEM_4_ICON" transform="translate(-34, -34)" data-icon-size="68" stroke-linecap="round" stroke-linejoin="round" data-badge-treatment="clean">
        <g transform="translate(-11.333333333333332,-11.333333333333332) scale(3.7777777777777777)" vector-effect="non-scaling-stroke" fill="#f1f5f9" fill-opacity="1.0" stroke="none">
          <path fill="#f1f5f9" d="M13 3C9.2 3 6.2 5.9 6 9.7l-1.9 2.5c-.2.3 0 .8.4.8H6v3c0 1.1.9 2 2 2h1v3h7v-4.7c2.4-1.1 4-3.5 4-6.3c0-3.9-3.1-7-7-7" vector-effect="non-scaling-stroke" stroke="none"/>
        </g>
      </g>
    </g>
    <g transform="translate(-330, -34)">
      <text id="ITEM_4_HEAD" text-anchor="start" font-weight="bold" font-size="29" fill="var(--primary-text)" x="0.0" y="-10.0" data-bg-id="ITEM_4_BG" fill-opacity="1.0" stroke="none" style="font-size: 31px; font-family: 'Segoe UI Variable Display', 'Aptos Display', 'Inter', 'Segoe UI', Helvetica, Arial, sans-serif; font-weight: 700; font-kerning: normal; font-feature-settings: &quot;kern&quot; 1, &quot;liga&quot; 1; letter-spacing:-0.4px;" data-final-font-size="31">
        <tspan x="0.0" dy="33.30px">Psychological Interpretation</tspan>
      </text>
      <rect id="ITEM_4_HEAD_FRAME" x="0" y="-10" width="846" height="42" fill="none"/>
      <text id="ITEM_4_BODY" text-anchor="start" font-size="21" fill="var(--primary-text)" x="0.0" y="30.0" data-bg-id="ITEM_4_BG" style="font-size: 23px; font-family: 'Segoe UI Variable Text', 'Aptos', 'Inter', 'Segoe UI', Helvetica, Arial, sans-serif; font-weight: 400; font-kerning: normal; font-feature-settings: &quot;kern&quot; 1, &quot;liga&quot; 1;" data-final-font-size="23">
        <tspan x="0.0" dy="40.47px">Fear caused passengers to view stress as external attack</tspan>
      </text>
      <rect id="ITEM_4_BODY_FRAME" x="0" y="30" width="846" height="114" fill="none"/>
    </g>
  </g>
  <g transform="translate(960.0, 900.0)">
    <rect id="ITEM_5_BG" x="-600" y="-64" width="1200" height="184" rx="18" fill="var(--semantic-uncertain)" stroke="var(--accent-5)" filter="url(#svge0dd54a5-shadow)" stroke-width="3" fill-opacity="0.4"/>
    <g transform="translate(-480.0, 0.0)">
      <circle r="45" fill="var(--background)" opacity="0.3"/>
      <circle id="ITEM_5_PAD" cx="0" cy="0" r="42" fill="var(--icon-pad-bg)" stroke="var(--semantic-uncertain)" opacity="1" fill-opacity="0.9" stroke-width="2" stroke-opacity="0.72" data-badge-layer="pad"/>
      <circle id="ITEM_5_PAD_INNER" cx="0" cy="0" r="32.76" fill="var(--semantic-uncertain)" fill-opacity="0.12" stroke="none" data-badge-layer="tint"/>
      <circle cx="0" cy="0" r="34" fill="none" stroke="var(--accent-4)" stroke-width="3" stroke-dasharray="6 4" display="none" data-suppressed-decoration="redundant-badge-ring"/>
      <g id="ITEM_5_ICON" transform="translate(-34, -34)" data-icon-size="68" stroke-linecap="round" stroke-linejoin="round" data-badge-treatment="clean">
        <g transform="translate(-0.5666666666666673,-2.833333333333333) scale(0.14166666666666666)" vector-effect="non-scaling-stroke" fill="#f1f5f9" fill-opacity="1.0" stroke="none">
          <path fill="#f1f5f9" d="M157.28 20.156c49.034 80.853 158.543 191.31 280.314 282.72c-12.952-21.306-30.14-44.73-50.656-69.313c28.743-10.15 24.95-58.844-11.344-58.844c-13.48 0-22.456 6.72-26.97 15.686C295.36 133.576 228.32 73.53 157.282 20.156zm149.5 19.657c-28.475 0-28.49 42.656 0 42.656c28.494 0 28.477-42.657 0-42.657zM96.814 53.718c-28.476 0-28.493 42.655 0 42.655c1.2 0 2.337-.074 3.437-.22c11.16 20.95 24.392 43.76 30.094 54.72c-34.91-27.997-71.838-55.12-110.375-80.03c45.8 69.48 95.23 131.372 148.343 187.468c-44.29-39.876-94.253-78.585-147.157-113.282c46.907 90.757 163.835 205.804 299 294.345c-18.66-35.987-48.926-76.256-86.437-116.813c39.578 36.5 81.035 70.486 124.405 102.532c-26.27 2.126-25.556 42.562 2.188 42.562c16.258 0 23.203-13.887 20.906-25.812c27.366 19.495 55.49 38.282 84.374 56.5c-17.89-46.96-52.54-103.187-97.938-161.188a1075 1075 0 0 0 97.594 71.094c-40.95-88.83-150.568-199.87-279.72-283.344c6.852 14.92 15.627 30.436 26.095 46.344c-32.12-28.783-65.672-55.986-99.75-80.563c11.906-11.61 6.894-36.968-15.063-36.968zm-4.188 236.405c-28.476 0-28.493 42.656 0 42.656s28.476-42.655 0-42.655zm15.313 79.25c-28.476 0-28.493 42.656 0 42.656s28.475-42.655 0-42.655zm70.906 12.53c-48.87 0-48.9 73.22 0 73.22c48.898 0 48.87-73.22 0-73.22" vector-effect="non-scaling-stroke" stroke="none"/>
        </g>
      </g>
    </g>
    <g transform="translate(-330, -34)">
      <text id="ITEM_5_HEAD" text-anchor="start" font-weight="bold" font-size="29" fill="var(--primary-text)" x="0.0" y="-10.0" data-bg-id="ITEM_5_BG" fill-opacity="1.0" stroke="none" style="font-size: 31px; font-family: 'Segoe UI Variable Display', 'Aptos Display', 'Inter', 'Segoe UI', Helvetica, Arial, sans-serif; font-weight: 700; font-kerning: normal; font-feature-settings: &quot;kern&quot; 1, &quot;liga&quot; 1; letter-spacing:-0.4px;" data-final-font-size="31">
        <tspan x="0.0" dy="33.30px">Debris Distribution</tspan>
      </text>
      <rect id="ITEM_5_HEAD_FRAME" x="0" y="-10" width="846" height="42" fill="none"/>
      <text id="ITEM_5_BODY" text-anchor="start" font-size="21" fill="var(--primary-text)" x="0.0" y="30.0" data-bg-id="ITEM_5_BG" style="font-size: 23px; font-family: 'Segoe UI Variable Text', 'Aptos', 'Inter', 'Segoe UI', Helvetica, Arial, sans-serif; font-weight: 400; font-kerning: normal; font-feature-settings: &quot;kern&quot; 1, &quot;liga&quot; 1;" data-final-font-size="23">
        <tspan x="0.0" dy="40.47px">Rubber particles and brake dust were thrown around</tspan>
      </text>
      <rect id="ITEM_5_BODY_FRAME" x="0" y="30" width="846" height="114" fill="none"/>
    </g>
  </g>
  <text id="SOURCE_NOTE" x="134.0" y="1058.0" fill="var(--muted-text)" opacity="0.88" style="font-family: var(--font-family); font-size: 20px;">Source: Introduction</text>
  <text id="EDITORIAL_NOTE" x="1786.0" y="1058.0" fill="var(--semantic-uncertain)" opacity="0.92" style="font-family: var(--font-family); font-size: 20px;" text-anchor="end">Interpretations remain disputed; wording reflects source uncertainty.</text>
</svg>
